<svg width="280" height="20" viewBox="0 0 280 20" fill="none" xmlns="http://www.w3.org/2000/svg">
<g clip-path="url(#clip0_3_261)">
<path d="M237.822 5.12195C237.846 5.10309 237.863 5.07408 237.871 5.04477C237.831 5.07292 237.822 5.10222 237.822 5.12195Z" fill="#C12A21"/>
<path d="M216.165 4.71227L216.413 4.67438C216.333 4.67162 216.245 4.68716 216.165 4.71227Z" fill="#C12A21"/>
<path d="M250.799 5.34687C250.791 5.35394 250.775 5.3535 250.767 5.36056L251.683 5.38525L250.799 5.34687Z" fill="#C12A21"/>
<path d="M169.968 4.88444L170.257 4.87657C170.161 4.88202 170.064 4.87899 169.968 4.88444Z" fill="#C12A21"/>
<path d="M197.344 4.77214C197.223 4.80524 197.102 4.81971 196.974 4.82459C197.102 4.84765 197.231 4.82415 197.344 4.77214Z" fill="#C12A21"/>
<path d="M257.651 7.17576L257.282 7.0484C257.281 7.10556 257.418 7.15801 257.651 7.17576Z" fill="#C12A21"/>
<path d="M270.804 6.83522C270.796 6.82517 270.78 6.81484 270.772 6.80479C270.756 6.82373 270.772 6.83407 270.804 6.83522Z" fill="#C12A21"/>
<path d="M265.67 6.30308C265.558 6.30843 265.429 6.3224 265.3 6.34555C265.453 6.34156 265.654 6.34838 265.67 6.30308Z" fill="#C12A21"/>
<path d="M265.123 6.37418L265.3 6.35262C265.203 6.34935 265.123 6.3558 265.123 6.37418Z" fill="#C12A21"/>
<path d="M2.28118 12.1412C1.8868 12.1746 1.49203 12.255 1.11303 12.3736L2.28118 12.1412Z" fill="#C12A21"/>
<path d="M128.153 5.96767L128.233 5.92206C128.153 5.9289 128.137 5.94772 128.153 5.96767Z" fill="#C12A21"/>
<path d="M1.84064 13.2145L1.55949 13.2142C1.64783 13.2168 1.7442 13.2195 1.84064 13.2145Z" fill="#C12A21"/>
<path d="M250.682 7.4708C250.303 7.57343 249.525 7.43291 249.532 7.53932C249.926 7.52568 250.496 7.61513 250.682 7.4708Z" fill="#C12A21"/>
<path d="M119.404 10.7013L119.156 10.7105C119.276 10.7058 119.348 10.7081 119.404 10.7013Z" fill="#C12A21"/>
<path d="M1.84072 13.208L2.17033 13.2101C2.13834 13.1905 2.10634 13.1709 2.06623 13.1603C1.98563 13.1853 1.91313 13.2013 1.84072 13.208Z" fill="#C12A21"/>
<path d="M84.6127 7.47112L84.6288 7.47168L84.7175 7.44635L84.6127 7.47112Z" fill="#C12A21"/>
<path d="M82.3008 7.35784L82.7915 7.31074C82.6228 7.30506 82.4619 7.31782 82.3008 7.35784Z" fill="#C12A21"/>
<path d="M1.11288 12.3986L0.46022 12.5363C0.677643 12.5061 0.895223 12.4571 1.11288 12.3986Z" fill="#C12A21"/>
<path d="M57.4159 8.58059L57.6403 8.56103C57.5682 8.55862 57.4881 8.56496 57.4159 8.58059Z" fill="#C12A21"/>
<path d="M199.102 4.8031L199.302 4.82826C199.327 4.80155 199.311 4.78266 199.102 4.8031Z" fill="#C12A21"/>
<path d="M182.848 8.08207C182.535 8.07126 182.229 8.11663 181.93 8.2275C182.244 8.22899 182.558 8.1839 182.848 8.08207Z" fill="#C12A21"/>
<path d="M179.963 8.21826L180.075 8.2306C180.035 8.2293 180.003 8.21956 179.963 8.21826Z" fill="#C12A21"/>
<path d="M198.439 8.12961L198.439 8.11971C198.431 8.11939 198.43 8.12928 198.43 8.12928L198.439 8.12961Z" fill="#C12A21"/>
<path d="M194.782 8.20186C194.702 8.1809 194.614 8.15966 194.526 8.15668C194.614 8.18704 194.694 8.19888 194.782 8.20186Z" fill="#C12A21"/>
<path d="M170.863 8.75387L170.847 8.74359L170.863 8.75387Z" fill="#C12A21"/>
<path d="M136.409 10.359C139.864 10.2515 144.342 10.02 147.781 10.0423C148.739 9.85943 149.72 9.76687 150.7 9.76385L150.826 10.0282L151.735 9.93347C152.104 10.0097 151.035 9.98567 151.693 10.0788L152.032 9.90987C152.104 10.0016 154.378 9.94802 152.849 10.1544L156.393 10.1228C157.18 10.1221 156.845 9.90025 157.712 9.95896C157.888 10.0376 157.406 10.0149 157.478 10.1066C160.088 10.2748 160.472 9.56989 162.898 9.66744L162.688 9.70184C163.099 9.62465 163.886 9.6321 163.895 9.59164C163.576 9.32961 163.459 9.73323 162.722 9.58885C162.78 9.36262 163.639 9.46179 163.584 9.28915C164.05 9.31948 164.516 9.29282 164.983 9.22546C165.833 9.36509 167.039 9.25489 167.68 9.42893C168.253 9.2589 168.84 9.15447 169.435 9.12355C170.076 9.29758 169.289 9.29013 170.156 9.35699L170.294 9.23086C171.001 9.24403 170.896 9.28158 170.871 9.34598C171.394 9.26403 171.925 9.23117 172.455 9.24716L171.923 9.3777C172.631 9.32574 172.912 9.34236 173.9 9.35586C173.883 9.42864 173.49 9.42491 173.201 9.40806C173.737 9.59522 174.109 9.32146 174.398 9.33831C174.319 9.27891 173.636 9.25833 173.966 9.12988C174.456 9.15279 174.997 8.94923 175.349 9.09826L174.817 9.2288C175.373 9.10713 175.952 9.06758 176.522 9.1092C176.457 9.1154 176.489 9.14893 176.465 9.18076C177.39 9.08651 178.33 9.08228 179.261 9.16735L179.052 9.20175C179.494 9.15809 179.728 9.04301 179.969 9.05027C179.343 8.9744 179.512 8.93879 179.457 8.81499C180.283 9.02716 180.705 8.55948 182.054 8.68156C182.037 8.75434 181.715 8.85047 181.338 8.77397C180.949 9.05539 180.498 9.2372 180.015 9.28779C180.522 9.23792 181.125 9.1991 180.995 9.29291L181.15 9.08587C181.455 9.07879 181.704 9.09443 181.937 9.08518C182.067 8.95881 181.313 8.87907 182.021 8.78641C182.825 8.71294 182.452 8.99485 182.574 8.9008C183.683 8.81212 183.026 8.6783 184.094 8.74306C183.965 8.77175 183.828 8.78391 183.692 8.7798C184.454 8.85978 185.572 8.73064 185.795 8.98162C185.674 9.07567 185.52 9.11991 185.376 9.09113L185.385 9.05067C184.547 9.23714 186.084 8.99848 185.825 9.2268C185.762 9.09462 186.838 9.12706 187.32 9.14973L187.161 8.99837C188.764 8.55 187.078 9.29713 188.669 9.23925C189.682 9.13952 188.284 9.19507 188.903 9.09161C189.545 9.17611 190.196 9.212 190.847 9.19091C191.127 9.24823 191.697 9.33054 191.752 9.50318C192.483 9.52521 193.214 9.49841 193.946 9.41462C192.903 9.26918 192.916 9.59527 191.697 9.37124L192.036 9.21047C192.879 9.21961 193.949 9.13786 194.535 9.19623C194.415 9.16004 194.367 9.11789 194.439 9.08751C195.332 8.976 196.241 8.91382 197.149 8.90862C197.308 9.05999 196.625 9.03127 196.127 9.04882C196.777 9.10913 197.428 9.12874 198.079 9.10766C198.142 9.23984 197.292 9.10021 197.162 9.22657L198.456 9.18416C198.448 9.19206 198.456 9.20044 198.456 9.20858C198.642 8.98622 199.444 9.23022 200.232 9.16441C201.316 9.1564 202.386 9.00138 203.418 8.69049C203.699 8.74781 203.778 8.80721 203.665 8.8608C203.208 8.7656 203.288 8.84128 203.127 8.89342C203.762 8.87184 204.515 9.11439 204.16 9.20142C205.165 9.134 203.8 9.0847 204.411 9.01356L205.785 9.03055C205.617 8.91964 205.135 8.88883 205.843 8.80432C206.446 8.77364 206.735 8.79864 207.514 8.80584C207.401 8.85943 207.762 8.97615 207.175 8.96662C207.577 9.02756 207.987 9.00735 208.373 8.90501C207.515 8.7977 209.78 8.80901 209.139 8.63497L209.998 8.74228C209.805 8.73647 209.78 8.81715 209.491 8.79215C209.739 8.96246 210.191 8.74809 210.488 8.73263C210.874 8.74426 211.259 8.78844 211.644 8.85704C211.998 8.81072 212.359 8.83789 212.704 8.93785C213.106 8.90925 212.737 8.82485 212.85 8.77126L214.224 8.79639C214.295 8.89625 214.413 9.15223 214.212 9.18688C214.727 9.10469 214.391 8.9073 215.178 8.92289C214.735 9.10493 216.214 9.06809 215.569 9.28478C216.379 9.41506 217.198 9.4479 218.002 9.38257C218.438 9.24098 217.24 9.29444 217.281 9.14913C219.266 9.11126 219.383 8.6995 220.836 8.77589L220.459 8.73195C220.909 8.72109 221.36 8.66139 221.795 8.55236C221.544 8.73208 222.834 9.05597 224.321 9.0275C224.442 8.93345 223.487 8.84766 223.73 8.70026L224.718 8.6812C224.79 8.69966 224.677 8.72883 224.557 8.74962C225.441 8.68671 226.209 9.00301 226.469 8.78283L227.374 9.06254L227.013 8.94582C227.448 8.86121 227.89 8.81755 228.341 8.79855C228.984 8.7121 229.643 8.74824 230.284 8.90599C230.108 8.8274 229.668 8.65128 230.463 8.62641C230.46 8.9276 232.141 8.75028 232.116 8.90422C232.437 8.90576 233.015 9.0046 233.048 8.88346L232.998 9.06924C233.073 8.81093 234.246 8.83814 235.146 8.80014C234.942 9.15225 236.134 8.78922 236.541 9.1109C236.712 8.87178 238.141 9.03698 238.295 8.83808C238.986 8.83449 238.92 9.06047 239.096 9.13906L239.418 9.05107C239.77 9.16754 241.072 9.19863 241.85 9.28724L242.567 9.08086L242.831 9.1784C242.944 9.12481 243.547 9.10227 243.17 9.01762L243.556 9.03739C243.59 8.81043 244.103 8.98059 244.883 8.89012C245.068 8.92825 245.019 8.98378 244.85 9.01125C245.235 9.02287 245.074 9.13199 245.29 9.21179C245.009 9.14634 246.692 8.81436 245.64 8.69309C245.569 8.60137 246.18 8.53837 246.565 8.58256L246.796 8.79308L247.256 8.57896C247.706 8.59252 248.156 8.64678 248.597 8.72522C248.098 8.73463 247.492 9.1072 248.778 9.12152C248.319 9.14842 247.869 9.19998 247.426 9.29248C247.691 9.30861 247.828 9.32901 247.409 9.40596C248.414 9.35483 247.748 9.28589 248.736 9.26683C248.678 9.45236 248.959 9.51782 249.826 9.59281L249.176 9.45109C249.217 9.42788 249.257 9.41281 249.297 9.39774C249.048 9.37396 248.985 9.33946 248.929 9.27264C249.122 9.27845 250.08 9.05493 250.24 9.17373C249.238 8.8667 251.977 8.97369 251.344 8.79176C251.634 8.72721 251.939 8.74455 252.219 8.83443C251.39 8.96415 252.844 9.05682 252.706 9.18295C253.012 9.13517 252.057 9.03309 252.467 8.97218C252.853 8.9838 253.23 9.03588 253.598 9.1447L253.389 9.17911L254.151 9.27537C254.273 9.18132 253.414 9.09843 254.113 9.07066C254.298 9.11693 255.005 9.08126 254.98 9.15379C254.642 9.27386 254.889 9.45231 254.286 9.46671C254.784 9.46545 256.367 9.48059 255.726 9.29027L256.321 9.30819C255.952 9.22379 254.909 9.05393 256.098 9.05721L256.089 9.10581L256.918 8.98422L257.279 9.0928C257.271 9.04372 257.4 9.00689 257.705 9.0161C257.785 9.0755 258.074 9.10049 258.049 9.17303C258.941 9.18363 258.87 9.08377 258.983 9.03832C259.481 9.03705 259.665 9.07518 259.431 9.18212C260.21 9.18933 260.989 9.24537 261.768 9.33398C262.684 9.27205 261.583 9.28771 262.115 9.17345C262.899 9.51465 265.126 9.37008 266.613 9.3579C266.206 9.06064 267.022 9.33768 267.29 9.07705C266.968 9.15691 268.702 9.33131 267.4 9.38162L268.195 9.37304C268.74 9.54417 266.877 9.46357 267.702 9.69201C268.539 9.57881 269.383 9.52284 270.226 9.53198C269.871 9.72483 271.038 9.48318 270.771 9.69497C270.506 9.74396 270.24 9.76039 269.967 9.74402L270.152 9.79029C272.103 9.88983 270.716 9.56303 271.746 9.4475C272.935 9.45078 272.684 9.6305 272.756 9.72222C273.125 9.75778 273.486 9.75239 273.857 9.69841C273.132 9.80686 272.516 9.54401 272.847 9.4237C273.536 9.5829 274.251 9.57189 274.936 9.39711C273.235 9.11785 273.755 9.36152 272.167 9.06123C271.95 9.12795 271.98 9.33242 271.025 9.23035C271.628 9.14269 270.986 9.11517 270.817 9.07753C271.001 9.19706 270.15 9.11441 269.86 9.15453C269.596 9.04886 270.433 8.89496 269.462 8.82496L269.274 9.1043C268.897 9.05222 269.437 8.90564 268.625 8.95444C269.06 8.82099 268.491 8.7224 269.592 8.70673C268.284 8.43934 267.59 8.79296 266.569 8.86803C266.674 8.8549 266.682 8.81444 266.787 8.80131C266.489 8.85747 266.183 8.88083 265.878 8.86349C265.212 8.78641 266.409 8.74923 266.233 8.67064L265.149 8.65423C265.125 8.64536 265.125 8.63722 265.125 8.63722C264.908 8.68767 264.683 8.68089 264.466 8.61737C264.788 8.53751 264.918 8.4437 265.135 8.37698L264.001 8.54634C264.122 8.46043 263.063 8.36335 263.875 8.31454L262.187 8.31253L262.045 8.12095C261.643 8.14954 261.626 8.18162 262.116 8.21267C261.538 8.15454 259.558 8.4857 259.867 8.12045C258.54 8.2433 258.067 8.17203 256.467 8.22967C257.698 8.08763 255.056 7.97541 256.358 7.92509C255.844 7.90145 255.329 7.9348 254.83 8.04189C254.269 7.95168 254.519 7.77196 255.131 7.7171L254.415 7.78509L254.431 7.74487L253.812 7.84019C253.154 7.73079 253.677 7.64885 252.994 7.61199L252.848 7.77857L252.383 7.67499C252.559 7.75358 252.149 7.78193 251.659 7.79158L251.667 7.75112L251.064 7.77366C251.66 7.67762 250.518 7.73277 250.785 7.61052C250.271 7.59502 250.263 7.59478 249.33 7.61553L249.49 7.73434C248.276 7.81988 249.435 7.5617 248.455 7.5403L248.518 7.67248C247.107 7.4345 246.123 7.76312 245.072 7.6093C245.675 7.58676 245.516 7.43539 245.507 7.46771C244.607 7.50571 243.137 7.44512 242.212 7.59636C241.788 7.34746 241.308 7.22711 240.833 7.24538C240.142 7.24898 240.038 7.26211 239.812 7.36929C239.153 7.382 238.494 7.33772 237.836 7.2446C237.683 7.35397 237.226 7.20992 236.864 7.30485L236.784 7.24544L236.847 7.37762C235.653 7.06478 234.829 7.51221 233.618 7.24772L233.827 7.21332L233.321 7.25504C233.241 7.19564 233.442 7.16099 233.467 7.08846L231.105 7.03355L231.57 7.13713C231.112 7.20473 230.638 7.21487 230.172 7.18454C231.114 6.99309 229.385 7.16895 229.233 7.01783L229.74 6.96796C229.049 6.97156 229.049 6.97156 229.104 7.10349C228.204 7.1415 228.488 6.84879 227.659 6.98665L228.253 6.99643C228.429 7.07501 228.003 7.17614 227.609 7.17242C227.513 7.15323 227.24 7.08802 227.538 7.07256C226.83 7.11637 225.77 7.04371 225.456 7.09124C225.071 7.04706 225.201 6.95325 225.402 6.9186C223.89 7.02774 224.719 6.88988 223.208 6.99088L223.232 6.91835L222.693 7.03237L221.947 6.87146L222.211 6.969C221.753 7.00403 221.287 7.00627 220.829 6.98433L221.063 6.87739C219.665 6.93294 219.442 6.68195 218.115 6.82922C218.027 6.81028 218.228 6.77563 218.333 6.75436C217.102 6.92081 217.395 6.54694 216.163 6.7541C216.236 6.71558 216.1 6.67076 216.148 6.63965L215.585 6.70411L215.627 6.55879L215.167 6.77292L214.815 6.62388L214.597 6.6906C213.997 6.40382 213.144 6.61421 212.318 6.39391L212.461 6.58549C210.385 6.95445 207.699 6.33608 205.182 6.52077L205.224 6.37546L204.186 6.54773C203.624 6.43309 204.516 6.41927 204.34 6.34068C203.231 6.42123 203.88 6.56295 202.594 6.6056C201.936 6.50435 202.82 6.49842 203.134 6.44274C201.856 6.54263 200.57 6.569 199.285 6.51398C199.269 6.52978 199.212 6.56064 199.26 6.57023C198.456 6.63556 197.388 6.5708 196.496 6.57648C196.513 6.51184 196.738 6.4942 196.955 6.48446C196.61 6.44963 196.264 6.45549 195.926 6.49417L196.257 6.36571C195.542 6.41742 194.819 6.39563 194.104 6.30082C194.184 6.36022 194.159 6.47345 193.565 6.46368C193.237 6.23396 191.957 6.56177 191.01 6.43551C191.123 6.38192 191.814 6.37019 191.621 6.36438C191.18 6.33478 190.737 6.37844 190.302 6.47933L190.432 6.38552L188.229 6.51454C187.902 6.28482 186.148 6.5495 186.294 6.38292C185.507 6.37547 186.96 6.48442 185.963 6.51137C185.699 6.41384 185.063 6.56565 185.105 6.4122L185.209 6.39093L184.51 6.40242L184.945 6.2527C184.35 6.28362 183.907 6.4331 183.882 6.54634C183.336 6.53801 182.79 6.49713 182.244 6.4074L182.453 6.37299C180.862 6.43901 179.806 5.98376 178.558 6.23927C178.462 6.22009 178.478 6.17987 178.671 6.18568L177.683 6.18846L177.917 6.07338L176.292 6.25239L176.309 6.17961C175.232 6.15531 173.553 6.20238 172.162 6.23375L172.372 6.19935C170.86 6.32477 170.91 6.13899 169.808 6.21978C169.841 6.20447 169.881 6.1894 169.921 6.19061L168.925 6.20129L169.142 6.12642C168.588 6.15856 168.041 6.13395 167.488 6.06026C167.062 6.10441 166.643 6.1895 166.24 6.31577C165.155 6.33193 165.976 6.21824 165.301 6.16534C164.642 6.21875 163.983 6.23959 163.316 6.22763L163.333 6.15486C162.835 6.1724 162.529 6.22832 161.838 6.24006L162.047 6.20566C160.92 6.37526 160.635 6.00023 159.756 6.33201C159.282 6.27702 158.382 6.3313 158.424 6.17785C157.016 6.29014 155.923 6.33861 154.532 6.41882C154.302 6.17573 154.235 6.43428 153.385 6.30279L153.448 6.43497C151.471 6.47309 149.192 6.16825 147.014 6.24101L146.951 6.10883L146.515 6.25856C144.17 6.22041 141.133 6.19401 139.26 6.21085C138.432 6.34871 137.595 6.42121 136.752 6.4202L136.856 6.39893C135.168 6.4946 133.375 6.57899 131.528 6.52329C131.641 6.4697 131.457 6.43157 131.658 6.38879C131.167 6.4717 130.669 6.4811 130.179 6.40935L130.644 6.5048C130.129 6.60326 129.599 6.57914 129.094 6.43365L128.265 6.58779C128.209 6.57795 128.121 6.55901 128.113 6.53435L127.968 6.60325L127.52 6.43503C126.965 6.46716 126.418 6.55651 125.878 6.70309C125.798 6.64369 125.019 6.61206 125.622 6.57324L122.585 6.56311L123.059 6.6181C123.122 6.75028 122.213 6.84502 121.739 6.79003C122.351 6.67819 121.781 6.60402 121.517 6.50649C121.106 6.58368 121.877 6.61507 121.668 6.69017C121.048 6.79363 120.413 6.82334 119.779 6.78793L120.085 6.73201C119.385 6.79235 119.05 6.56239 118.359 6.58227C117.739 6.69387 117.274 6.60656 117.408 6.83046C116.508 6.89288 117.056 6.68142 116.767 6.66457C116.155 6.76827 115.529 6.74938 114.919 6.61701C114.434 6.96065 112.486 6.5355 112.314 6.81532L111.568 6.6707C111.552 6.74348 111.405 6.9182 110.81 6.95727C110.241 6.88309 110.37 6.74858 110.202 6.67838L109.83 6.96029C106.562 6.71521 102.277 6.98501 98.6956 6.79562C97.104 6.87791 95.1017 7.04554 93.2458 7.03845L93.447 6.99566L91.5994 6.95625L92.9483 7.05391C92.5462 7.09065 92.2323 7.15446 91.8466 7.15912C89.4293 7.03739 87.0188 7.04615 84.607 7.18515C83.0048 7.53583 83.5249 6.92454 81.9797 7.18737C82.1085 7.15869 82.1572 7.1113 82.278 7.07423C80.6135 7.21133 79.713 7.28189 78.0477 7.50039C78.2275 7.18011 76.9628 7.52468 77.101 7.35786L76.9631 7.49212C76.5861 7.42376 75.7104 7.41365 75.8319 7.3196L75.099 7.49293L75.028 7.36051C74.0476 7.37166 71.9571 7.52849 71.4293 7.2683C69.0165 7.52127 65.1918 7.54439 62.1545 7.55868C61.4946 7.66907 60.8271 7.73037 60.1522 7.72631L59.4064 7.58169C58.7141 7.71553 58.0145 7.784 57.3074 7.77898C57.3076 7.76269 57.3399 7.74738 57.3801 7.74045C56.6893 7.72777 55.9978 7.78021 55.3139 7.88173C54.5264 7.89056 53.7637 7.82685 53.9981 7.67921C53.9314 7.93776 52.3349 7.68607 52.3349 7.68607C52.3349 7.68607 42.2745 7.78177 30.9826 8.10905C19.6826 8.44423 7.16702 9.01961 2.28114 9.93899C1.91017 10.0825 0.904406 10.2313 1.321 10.3579C0.556751 10.457 0.140783 10.2653 0.018971 10.4001C1.08751 10.4078 -0.201259 10.7435 0.842405 10.832L0.214942 10.9108C0.109585 11.0053 1.04399 10.7567 0.929903 10.9242L1.06084 10.6757C1.39851 10.6533 1.73556 10.6961 2.06411 10.7874C2.62926 10.5032 3.26523 10.3758 3.90743 10.4359L3.60188 10.4592C4.49418 10.4128 4.15495 10.598 4.34749 10.6283L4.1466 10.6303L4.90898 10.7266C4.33907 10.6687 3.40481 10.9011 3.89526 10.867C4.96364 10.8911 3.61451 10.8179 4.4105 10.7604C4.90898 10.7266 4.7711 10.8609 4.75425 10.9418L5.63852 10.8952C5.61333 11.0084 5.05184 10.91 5.42047 11.0107L6.53082 10.8488C6.75315 11.1242 7.73778 10.6653 8.26566 10.9174C7.46132 11.0071 8.34512 11.0093 8.21567 11.1031L10.1849 11.0241C10.3694 11.0541 9.66968 11.1307 9.9672 11.1071C10.2402 11.1235 10.5137 11.091 10.7716 11.0092C10.9477 11.0796 12.2425 10.9558 12.2004 11.15C13.5414 11.2311 12.7493 10.8897 14.002 10.96C14.1697 11.0709 13.0132 11.0198 13.5747 11.1181L14.8772 11.0271C14.6669 11.1673 14.4092 11.2328 14.1523 11.2088C17.6551 11.2411 19.5701 11.7956 22.7542 11.5496C23.211 11.6692 22.4318 11.6538 22.1175 11.7502C24.4259 11.5022 25.3857 11.9546 27.355 11.8755L27.3882 11.7625C30.1495 12.0331 33.4466 11.7416 36.5635 11.7949L36.1865 11.7265C36.7178 11.6204 37.2648 11.5554 37.8035 11.5147C37.8834 11.5659 37.4476 11.7645 38.3402 11.6937C38.1477 11.6553 37.7703 11.6277 37.8834 11.5659C40.565 11.7771 46.1912 11.5721 50.5778 11.6066C56.5017 11.37 62.9448 11.4502 68.7638 11.2511C67.8797 11.2814 68.244 10.9911 68.9104 11.0438C70.7623 11.4742 72.0775 10.895 73.963 11.1717C77.3478 10.9399 80.3895 11.3003 83.5352 10.874L83.5982 11.0061C83.9677 11.0173 84.3295 10.9956 84.6916 10.9414L84.6831 10.9819C85.8559 11.0091 87.2636 10.8479 87.938 10.9008L87.9716 10.7471C88.6628 10.7191 88.3401 10.856 89.0481 10.7552L89.0314 10.828L89.8524 10.6736C89.7856 10.9321 91.813 10.6594 92.3744 10.7659C93.2749 10.7035 94.9716 10.5592 96.3373 10.5841C97.3325 10.6955 98.3364 10.742 99.3328 10.7314C101.406 10.6636 104.372 10.5739 107.015 10.5803L106.961 10.4158L107.652 10.3959C107.644 10.4364 107.74 10.4474 107.635 10.4687C108.18 10.6561 109.227 10.3864 109.78 10.4926C109.428 10.3436 109.298 10.4781 108.905 10.4825C108.335 10.4083 108.875 10.2373 109.637 10.3092L109.621 10.3494L110.136 10.2509C110.199 10.3831 110.673 10.4381 110.744 10.5624C113.01 10.4923 114.555 10.2457 116.893 10.2674C116.659 10.415 118.573 10.204 118.112 10.467C119.52 10.3547 117.873 10.2643 118.51 10.0718C118.904 10.0756 119.314 9.99836 119.386 10.0901C119.2 10.1578 119.714 10.2384 119.392 10.2694L120.332 10.2408C120.42 10.2597 120.219 10.2943 120.115 10.3156C122.028 10.1453 123.512 10.4425 125.225 10.2661C125.347 10.1721 124.542 10.2455 124.664 10.1515C126.385 9.94282 126.197 10.2954 127.805 10.1485L127.475 10.2769C127.99 10.1296 128.537 10.0891 129.075 10.1623C129.234 10.3137 128.35 10.2952 127.94 10.3724C128.526 10.3738 130.013 10.3128 129.557 10.185C130.007 10.1578 130.456 10.1958 130.905 10.2908C130.914 10.2503 130.247 10.1977 130.658 10.1205C131.621 10.1902 133.1 10.1697 134.273 10.1725C134.265 10.2129 134.344 10.2642 134.248 10.2857C135.198 10.0864 135.106 10.4256 136.409 10.359Z" fill="#C12A21"/>
<path d="M198.92 8.1585L198.446 8.13292C198.446 8.17006 198.429 8.21593 198.204 8.25462L198.92 8.1585Z" fill="#C12A21"/>
<path d="M176.465 8.44589C176.409 8.45346 176.353 8.47059 176.296 8.49726C176.409 8.48212 176.441 8.46415 176.465 8.44589Z" fill="#C12A21"/>
<path d="M171.014 8.88417C171.401 8.84029 171.055 8.79922 170.862 8.75398C170.854 8.79209 170.861 8.83076 171.014 8.88417Z" fill="#C12A21"/>
<path d="M211.628 7.48258C211.548 7.49915 211.499 7.5266 211.507 7.55607C211.62 7.53094 211.644 7.50262 211.628 7.48258Z" fill="#C12A21"/>
<path d="M246.787 7.45495L246.65 7.42218C246.698 7.44254 246.738 7.45328 246.787 7.45495Z" fill="#C12A21"/>
<path d="M244.839 7.16923C244.702 7.16477 244.573 7.17822 244.445 7.19167C244.581 7.19613 244.71 7.1915 244.839 7.16923Z" fill="#C12A21"/>
<path d="M203.112 7.67479C202.991 7.67992 202.862 7.69404 202.741 7.72697C202.87 7.73138 202.991 7.70772 203.112 7.67479Z" fill="#C12A21"/>
<path d="M244.042 7.24161L243.553 7.21736C243.544 7.22572 243.544 7.23433 243.544 7.25157L244.042 7.24161Z" fill="#C12A21"/>
<path d="M247.405 7.48181C247.212 7.47599 246.955 7.46822 246.786 7.45496C246.995 7.49392 247.204 7.50023 247.405 7.48181Z" fill="#C12A21"/>
<path d="M224.532 7.14834L224.476 7.15573C224.107 7.21769 224.34 7.18837 224.532 7.14834Z" fill="#C12A21"/>
<path d="M241.893 7.54341L241.829 7.53181L241.684 7.5737L241.893 7.54341Z" fill="#C12A21"/>
<path d="M249.524 7.55581C249.444 7.55304 249.363 7.56893 249.283 7.58481L249.564 7.61319C249.532 7.58409 249.532 7.56542 249.524 7.55581Z" fill="#C12A21"/>
<path d="M231.896 7.35713C232.033 7.29384 232.082 7.24686 232.09 7.21792C231.929 7.22188 231.824 7.24736 231.896 7.35713Z" fill="#C12A21"/>
<g opacity="0.26">
<g opacity="0.26">
<g opacity="0.26">
<g opacity="0.26">
<path opacity="0.26" d="M237.822 5.12191C237.846 5.10308 237.863 5.07409 237.871 5.04481C237.831 5.07291 237.822 5.10219 237.822 5.12191Z" fill="#C12A21"/>
<path opacity="0.26" d="M216.165 4.71212L216.413 4.67453C216.333 4.67172 216.245 4.68715 216.165 4.71212Z" fill="#C12A21"/>
<path opacity="0.26" d="M250.799 5.34688C250.791 5.35385 250.775 5.35341 250.767 5.36038L251.683 5.38525L250.799 5.34688Z" fill="#C12A21"/>
<path opacity="0.26" d="M169.968 4.88432L170.257 4.87669C170.161 4.88204 170.064 4.87897 169.968 4.88432Z" fill="#C12A21"/>
<path opacity="0.26" d="M197.344 4.77237C197.223 4.80528 197.102 4.81962 196.974 4.82439C197.102 4.84747 197.231 4.82413 197.344 4.77237Z" fill="#C12A21"/>
<path opacity="0.26" d="M257.651 7.17576L257.282 7.0484C257.281 7.10544 257.418 7.15788 257.651 7.17576Z" fill="#C12A21"/>
<path opacity="0.26" d="M270.804 6.83522C270.796 6.82517 270.78 6.81484 270.772 6.8048C270.756 6.82371 270.772 6.83405 270.804 6.83522Z" fill="#C12A21"/>
<path opacity="0.26" d="M265.67 6.30329C265.558 6.30854 265.429 6.32237 265.3 6.34534C265.453 6.34148 265.654 6.34841 265.67 6.30329Z" fill="#C12A21"/>
<path opacity="0.26" d="M265.123 6.37407L265.3 6.35272C265.203 6.34939 265.123 6.35577 265.123 6.37407Z" fill="#C12A21"/>
<path opacity="0.26" d="M2.28116 12.142C1.88678 12.1749 1.49201 12.2548 1.11301 12.3728L2.28116 12.142Z" fill="#C12A21"/>
<path opacity="0.26" d="M128.153 5.96762L128.233 5.92212C128.153 5.92889 128.137 5.94767 128.153 5.96762Z" fill="#C12A21"/>
<path opacity="0.26" d="M1.84064 13.2146L1.55949 13.2141C1.64783 13.2167 1.7442 13.2195 1.84064 13.2146Z" fill="#C12A21"/>
<path opacity="0.26" d="M250.682 7.47137C250.303 7.5732 249.525 7.4329 249.532 7.53875C249.926 7.52545 250.496 7.6148 250.682 7.47137Z" fill="#C12A21"/>
<path opacity="0.26" d="M119.404 10.7014L119.156 10.7104C119.276 10.7058 119.348 10.7081 119.404 10.7014Z" fill="#C12A21"/>
<path opacity="0.26" d="M1.84073 13.2079L2.17035 13.2101C2.13835 13.1906 2.10635 13.171 2.06624 13.1604C1.98563 13.1853 1.91314 13.2012 1.84073 13.2079Z" fill="#C12A21"/>
<path opacity="0.26" d="M84.6127 7.47105L84.6288 7.47162L84.7175 7.44642L84.6127 7.47105Z" fill="#C12A21"/>
<path opacity="0.26" d="M82.3008 7.35758L82.7915 7.311C82.6228 7.30524 82.4619 7.31784 82.3008 7.35758Z" fill="#C12A21"/>
<path opacity="0.26" d="M1.11288 12.3991L0.460216 12.5359C0.677642 12.506 0.895221 12.4572 1.11288 12.3991Z" fill="#C12A21"/>
<path opacity="0.26" d="M57.4159 8.58047L57.6403 8.56115C57.5682 8.5587 57.4881 8.56496 57.4159 8.58047Z" fill="#C12A21"/>
<path opacity="0.26" d="M199.102 4.80305L199.302 4.82825C199.327 4.80166 199.311 4.78283 199.102 4.80305Z" fill="#C12A21"/>
<path opacity="0.26" d="M182.848 8.08262C182.535 8.07162 182.229 8.11664 181.93 8.22695C182.244 8.22866 182.558 8.18393 182.848 8.08262Z" fill="#C12A21"/>
<path opacity="0.26" d="M179.963 8.21826L180.075 8.2306C180.035 8.22928 180.003 8.21958 179.963 8.21826Z" fill="#C12A21"/>
<path opacity="0.26" d="M198.439 8.12961L198.439 8.11971C198.431 8.11939 198.43 8.12928 198.43 8.12928L198.439 8.12961Z" fill="#C12A21"/>
<path opacity="0.26" d="M194.782 8.20186C194.702 8.18092 194.614 8.15971 194.526 8.15668C194.614 8.18698 194.694 8.19883 194.782 8.20186Z" fill="#C12A21"/>
<path opacity="0.26" d="M170.863 8.75387L170.847 8.74359L170.863 8.75387Z" fill="#C12A21"/>
<path opacity="0.26" d="M136.409 10.3524C139.865 10.2479 144.342 10.0212 147.781 10.0454C148.739 9.86476 149.72 9.77361 150.7 9.77122L150.826 10.0334L151.735 9.94C152.104 10.0158 151.035 9.99131 151.693 10.084L152.032 9.91679C152.104 10.0078 154.378 9.95604 152.85 10.1596L156.393 10.1305C157.181 10.1303 156.845 9.91021 157.712 9.96895C157.888 10.047 157.407 10.0242 157.478 10.1152C160.088 10.2835 160.472 9.58497 162.898 9.68316L162.688 9.71713C163.099 9.64086 163.886 9.64873 163.895 9.60863C163.576 9.34869 163.459 9.74872 162.722 9.60514C162.78 9.38092 163.639 9.47976 163.584 9.30859C164.05 9.33894 164.516 9.3128 164.983 9.24632C165.833 9.38525 167.039 9.27676 167.68 9.44967C168.253 9.28147 168.84 9.17832 169.435 9.14803C170.076 9.32094 169.289 9.31307 170.156 9.37988L170.294 9.25494C171.001 9.26842 170.896 9.30558 170.871 9.3694C171.394 9.2885 171.925 9.25625 172.455 9.27242L171.923 9.40149C172.631 9.35043 172.912 9.36707 173.9 9.38107C173.883 9.4532 173.49 9.44927 173.201 9.43238C173.737 9.61824 174.109 9.34709 174.398 9.36398C174.319 9.30505 173.636 9.28422 173.966 9.15709C174.456 9.1801 174.997 8.97865 175.349 9.12661L174.817 9.25568C175.373 9.13541 175.952 9.09656 176.522 9.13816C176.457 9.14427 176.489 9.17753 176.465 9.20907C177.39 9.11621 178.33 9.11259 179.261 9.1975L179.052 9.23147C179.494 9.18846 179.728 9.07453 179.969 9.08188C179.343 9.00629 179.512 8.97108 179.457 8.84833C180.283 9.05916 180.705 8.59582 182.054 8.71766C182.037 8.7898 181.715 8.8849 181.338 8.80883C180.949 9.08756 180.498 9.2675 180.015 9.31735C180.522 9.26823 181.125 9.23012 180.995 9.32303L181.15 9.11789C181.455 9.11106 181.704 9.12672 181.937 9.11769C182.067 8.9925 181.313 8.91299 182.02 8.82158C182.825 8.74925 182.452 9.02847 182.574 8.93531C183.683 8.84808 183.026 8.71503 184.094 8.77989C183.965 8.80824 183.828 8.82022 183.692 8.81605C184.454 8.89581 185.572 8.76848 185.795 9.01741C185.674 9.11057 185.52 9.15433 185.376 9.12571L185.385 9.08561C184.547 9.26993 186.084 9.0343 185.825 9.26047C185.762 9.1294 186.838 9.16223 187.32 9.18499L187.161 9.03485C188.764 8.59138 187.078 9.33096 188.669 9.27456C189.682 9.17633 188.284 9.23053 188.903 9.12836C189.545 9.21251 190.196 9.24849 190.847 9.22799C191.128 9.28497 191.697 9.36692 191.752 9.53809C192.483 9.56038 193.214 9.53426 193.946 9.45165C192.903 9.30684 192.916 9.63009 191.697 9.40727L192.036 9.2481C192.879 9.25769 193.949 9.1773 194.535 9.23553C194.415 9.19958 194.367 9.15777 194.439 9.12769C195.332 9.01771 196.241 8.95663 197.149 8.95204C197.308 9.10218 196.625 9.07329 196.127 9.09038C196.777 9.15057 197.428 9.17041 198.079 9.14991C198.142 9.28097 197.292 9.14204 197.162 9.26722L198.456 9.22597C198.448 9.2338 198.456 9.24211 198.456 9.25018C198.642 9.02988 199.444 9.27224 200.232 9.20749C201.316 9.20022 202.386 9.04721 203.418 8.73966C203.699 8.79665 203.778 8.85559 203.665 8.90864C203.208 8.81399 203.288 8.88906 203.127 8.94064C203.762 8.91965 204.515 9.16054 204.16 9.24659C205.165 9.18039 203.8 9.13067 204.411 9.06053L205.785 9.07821C205.617 8.96817 205.135 8.93733 205.843 8.85399C206.446 8.82395 206.735 8.84891 207.514 8.85653C207.401 8.90959 207.762 9.02551 207.176 9.0157C207.577 9.07636 207.987 9.05658 208.373 8.95537C207.515 8.84846 209.78 8.86106 209.139 8.68815L209.998 8.79506C209.805 8.78918 209.78 8.86913 209.491 8.84418C209.739 9.01315 210.191 8.80093 210.488 8.78579C210.874 8.79755 211.259 8.84159 211.644 8.90983C211.998 8.86412 212.359 8.89129 212.704 8.99058C213.106 8.96248 212.737 8.87859 212.85 8.82554L214.224 8.85129C214.295 8.95032 214.413 9.20414 214.212 9.23836C214.727 9.15721 214.391 8.96133 215.178 8.97727C214.735 9.15746 216.214 9.12184 215.569 9.33625C216.379 9.46589 217.198 9.49895 218.002 9.43468C218.438 9.2946 217.24 9.34686 217.281 9.20284C219.266 9.16652 219.383 8.75842 220.836 8.83504L220.459 8.79125C220.909 8.78076 221.36 8.72186 221.795 8.61405C221.544 8.79205 222.834 9.11391 224.321 9.0866C224.442 8.99345 223.487 8.90781 223.73 8.76185L224.718 8.74357C224.79 8.76191 224.677 8.79076 224.557 8.81129C225.441 8.74948 226.209 9.06348 226.469 8.84539L227.374 9.12321L227.013 9.00729C227.448 8.92369 227.89 8.88068 228.341 8.86212C228.984 8.77682 229.643 8.81305 230.284 8.96982C230.108 8.89181 229.668 8.71695 230.463 8.69279C230.461 8.99135 232.141 8.81661 232.116 8.96919C232.437 8.97092 233.015 9.06925 233.048 8.94919L232.998 9.13331C233.073 8.87731 234.246 8.905 235.146 8.86789C234.942 9.2168 236.134 8.85767 236.541 9.17679C236.712 8.93986 238.141 9.10451 238.295 8.90743C238.986 8.90429 238.92 9.12827 239.096 9.20628L239.418 9.11925C239.77 9.23493 241.072 9.26655 241.85 9.35486L242.567 9.15073L242.832 9.24757C242.945 9.19452 243.547 9.17255 243.171 9.08841L243.556 9.10824C243.59 8.88328 244.103 9.05227 244.883 8.96307C245.068 9.00098 245.019 9.056 244.85 9.08313C245.235 9.09489 245.074 9.20295 245.29 9.28219C245.009 9.21713 246.692 8.88908 245.64 8.76823C245.569 8.67727 246.18 8.61519 246.565 8.65923L246.796 8.86806L247.256 8.65609C247.706 8.66981 248.156 8.72387 248.597 8.8019C248.099 8.81092 247.492 9.17986 248.778 9.19485C248.32 9.22123 247.869 9.27207 247.426 9.36349C247.691 9.37965 247.828 9.39995 247.409 9.47597C248.414 9.4259 247.748 9.35715 248.736 9.33887C248.678 9.52275 248.959 9.5878 249.826 9.66267L249.176 9.5218C249.217 9.49881 249.257 9.4839 249.298 9.46899C249.049 9.44525 248.985 9.41102 248.929 9.34475C249.122 9.35063 250.08 9.12964 250.24 9.24751C249.238 8.94253 251.977 9.05028 251.344 8.86954C251.634 8.80574 251.939 8.82312 252.219 8.91238C251.391 9.04046 252.844 9.13322 252.706 9.25816C253.012 9.21099 252.057 9.10921 252.467 9.04908C252.853 9.06084 253.23 9.1127 253.598 9.2208L253.389 9.25478L254.152 9.35067C254.273 9.25752 253.414 9.17482 254.113 9.14772C254.298 9.1937 255.005 9.15877 254.98 9.23066C254.642 9.34948 254.889 9.52652 254.286 9.54043C254.785 9.53948 256.367 9.55546 255.726 9.36641L256.321 9.38454C255.952 9.30065 254.909 9.13163 256.098 9.13561L256.09 9.18377L256.918 9.06376L257.279 9.17162C257.271 9.12296 257.4 9.08653 257.705 9.09584C257.785 9.15477 258.074 9.17973 258.049 9.25162C258.941 9.26267 258.87 9.16364 258.983 9.11865C259.481 9.1177 259.665 9.15561 259.431 9.26148C260.211 9.2691 260.989 9.32514 261.768 9.41346C262.685 9.35262 261.584 9.36748 262.115 9.25454C262.899 9.59324 265.126 9.4513 266.613 9.44014C266.206 9.14523 267.023 9.42036 267.29 9.16216C266.968 9.24112 268.702 9.41507 267.4 9.46415L268.195 9.45612C268.74 9.6261 266.877 9.54505 267.702 9.77202C268.539 9.66032 269.383 9.60535 270.227 9.61493C269.871 9.80588 271.039 9.56705 270.772 9.77684C270.506 9.82524 270.241 9.84136 269.968 9.82496L270.152 9.87094C272.103 9.97081 270.717 9.64601 271.746 9.53213C272.935 9.53611 272.684 9.7141 272.756 9.80507C273.125 9.84054 273.487 9.83543 273.857 9.78215C273.133 9.8892 272.516 9.62827 272.847 9.50921C273.537 9.66745 274.252 9.65698 274.936 9.48414C273.236 9.20627 273.756 9.44813 272.168 9.14948C271.95 9.21549 271.98 9.41819 271.025 9.31642C271.628 9.2299 270.986 9.20223 270.817 9.16481C271.001 9.28341 270.15 9.20096 269.861 9.24055C269.596 9.13564 270.434 8.9836 269.462 8.91361L269.275 9.19039C268.897 9.13853 269.437 8.99357 268.625 9.04145C269.06 8.90943 268.491 8.81135 269.592 8.79649C268.285 8.53063 267.59 8.88074 266.569 8.95452C266.674 8.94157 266.682 8.90147 266.787 8.88852C266.489 8.94401 266.183 8.96697 265.878 8.94959C265.212 8.87278 266.41 8.83666 266.233 8.75865L265.149 8.74171C265.125 8.73291 265.125 8.72484 265.125 8.72484C264.908 8.77471 264.683 8.76785 264.466 8.70475C264.788 8.62579 264.918 8.53288 265.135 8.46687L264.001 8.63406C264.122 8.54897 263.063 8.45208 263.875 8.4042L262.187 8.40117L262.045 8.21117C261.643 8.23927 261.626 8.27106 262.116 8.30214C261.538 8.24415 259.558 8.57121 259.867 8.20934C258.54 8.3303 258.067 8.25936 256.467 8.31551C257.698 8.17547 255.056 8.0626 256.358 8.01352C255.844 7.98978 255.329 8.02251 254.83 8.12836C254.269 8.03859 254.519 7.86059 255.13 7.80659L254.415 7.87355L254.431 7.83369L253.812 7.9278C253.154 7.81895 253.677 7.73804 252.994 7.70108L252.848 7.86612L252.383 7.76315C252.559 7.84117 252.149 7.86902 251.659 7.87828L251.667 7.83818L251.064 7.86015C251.66 7.76531 250.518 7.81929 250.785 7.69827C250.271 7.68259 250.263 7.68234 249.33 7.70234L249.49 7.82021C248.276 7.90425 249.435 7.64904 248.455 7.62722L248.518 7.75829C247.106 7.52151 246.123 7.84667 245.072 7.69354C245.675 7.67157 245.516 7.52142 245.507 7.55345C244.607 7.59057 243.137 7.5296 242.212 7.67895C241.788 7.43196 241.307 7.31236 240.833 7.33019C240.142 7.33333 240.037 7.34628 239.811 7.45239C239.153 7.46458 238.494 7.42028 237.836 7.32757C237.682 7.43588 237.226 7.29281 236.863 7.38669L236.784 7.32776L236.847 7.45882C235.652 7.14797 234.829 7.59099 233.618 7.32807L233.827 7.29409L233.32 7.33514C233.241 7.2762 233.442 7.24198 233.467 7.1701L231.105 7.11421L231.57 7.21718C231.111 7.28391 230.637 7.29366 230.172 7.26332C231.113 7.07411 229.384 7.24738 229.233 7.09748L229.74 7.04836C229.049 7.0515 229.049 7.0515 229.104 7.18232C228.203 7.21943 228.487 6.92945 227.659 7.0656L228.253 7.07566C228.429 7.15367 228.002 7.25366 227.609 7.24972C227.512 7.23064 227.24 7.16583 227.537 7.15069C226.83 7.19368 225.77 7.121 225.456 7.16793C225.071 7.12389 225.2 7.03098 225.401 6.99676C223.89 7.10402 224.719 6.96787 223.207 7.06706L223.232 6.99517L222.693 7.10786L221.947 6.94791L222.211 7.04475C221.753 7.0792 221.287 7.08113 220.829 7.0591L221.063 6.95324C219.665 7.00744 219.442 6.75851 218.115 6.90368C218.027 6.88484 218.228 6.85062 218.332 6.8296C217.102 6.99385 217.394 6.62342 216.163 6.82801C216.236 6.78987 216.1 6.74536 216.148 6.71455L215.585 6.77809L215.627 6.63407L215.167 6.84605L214.814 6.69809L214.597 6.7641C213.997 6.47944 213.143 6.68748 212.318 6.46859L212.461 6.65859C210.384 7.02305 207.698 6.40842 205.182 6.58995L205.223 6.44594L204.185 6.61606C203.624 6.50208 204.516 6.48893 204.34 6.41092C203.23 6.49008 203.88 6.63096 202.594 6.67246C201.936 6.57168 202.82 6.56635 203.134 6.51135C201.855 6.60957 200.569 6.63493 199.284 6.57959C199.268 6.59524 199.212 6.6258 199.26 6.63534C198.456 6.69961 197.388 6.63475 196.496 6.63983C196.512 6.57577 196.738 6.55842 196.955 6.5489C196.609 6.51416 196.264 6.51976 195.926 6.55788L196.257 6.43075C195.541 6.48157 194.818 6.45953 194.104 6.3651C194.184 6.42403 194.159 6.53627 193.564 6.52621C193.237 6.2983 191.956 6.62246 191.009 6.49672C191.122 6.44367 191.813 6.43246 191.621 6.42658C191.179 6.39697 190.737 6.43998 190.302 6.53971L190.431 6.44681L188.229 6.57334C187.901 6.34543 186.147 6.60672 186.293 6.44168C185.506 6.43381 186.959 6.5427 185.963 6.56881C185.699 6.47197 185.062 6.62206 185.104 6.46998L185.209 6.44895L184.51 6.45992L184.945 6.31176C184.35 6.34205 183.907 6.48996 183.881 6.60219C183.335 6.5936 182.789 6.55274 182.244 6.46346L182.453 6.42948C180.861 6.49394 179.805 6.04201 178.557 6.29453C178.461 6.27545 178.478 6.23559 178.67 6.24147L177.682 6.24362L177.916 6.12969L176.291 6.30614L176.308 6.234C175.232 6.20925 173.552 6.25487 172.162 6.28512L172.371 6.25114C170.859 6.37454 170.909 6.19042 169.808 6.26982C169.84 6.25466 169.88 6.23975 169.92 6.24098L168.924 6.25094L169.142 6.17687C168.587 6.20838 168.041 6.18365 167.487 6.11026C167.061 6.15376 166.642 6.23785 166.239 6.36278C165.155 6.37812 165.975 6.26594 165.301 6.21308C164.641 6.26562 163.982 6.28587 163.316 6.27361L163.332 6.20148C162.834 6.21857 162.528 6.27381 161.837 6.28502L162.046 6.25104C160.92 6.41847 160.634 6.04654 159.755 6.37488C159.282 6.32008 158.381 6.37334 158.423 6.22125C157.016 6.33169 155.923 6.37906 154.532 6.45772C154.301 6.21661 154.234 6.47286 153.384 6.342L153.447 6.47306C151.47 6.50963 149.191 6.20605 147.013 6.27684L146.95 6.14577L146.515 6.29393C144.169 6.25467 141.132 6.22662 139.26 6.24216C138.431 6.37831 137.595 6.44967 136.751 6.44815L136.856 6.42713C135.167 6.52093 133.375 6.60347 131.527 6.54713C131.64 6.49407 131.456 6.45616 131.657 6.41387C131.166 6.49576 130.668 6.50478 130.179 6.43335L130.644 6.52825C130.129 6.62554 129.599 6.6013 129.094 6.45676L128.265 6.60905C128.209 6.59927 128.12 6.58043 128.113 6.55598L127.967 6.62419L127.519 6.45716C126.964 6.48867 126.417 6.57691 125.877 6.72188C125.798 6.66295 125.018 6.63112 125.621 6.59301L122.584 6.5811L123.058 6.63589C123.121 6.76696 122.212 6.86031 121.739 6.80552C122.35 6.69503 121.781 6.62115 121.516 6.52431C121.106 6.60057 121.877 6.63216 121.667 6.70648C121.048 6.80865 120.413 6.83772 119.778 6.80223L120.084 6.74698C119.384 6.80636 119.049 6.5782 118.358 6.59748C117.738 6.70772 117.273 6.62089 117.408 6.84292C116.507 6.90425 117.055 6.69497 116.766 6.67808C116.155 6.7805 115.528 6.76139 114.919 6.62981C114.433 6.97015 112.485 6.54751 112.314 6.82478L111.568 6.68097C111.551 6.7531 111.405 6.92621 110.81 6.96456C110.24 6.89069 110.37 6.75743 110.202 6.68773L109.83 6.96695C106.562 6.722 102.277 6.98682 98.695 6.79687C97.1034 6.87747 95.1011 7.0424 93.2452 7.03423L93.4464 6.99194L91.5988 6.95173L92.9477 7.04937C92.5457 7.08554 92.2317 7.14861 91.846 7.15299C89.4287 7.03083 87.0182 7.03803 84.6065 7.17434C83.0043 7.52097 83.5242 6.91533 81.9791 7.17492C82.1079 7.14656 82.1566 7.09962 82.2774 7.06295C80.613 7.19783 79.7124 7.26722 78.0472 7.48279C78.227 7.16541 76.9623 7.5062 77.1004 7.34092L76.9626 7.47393C76.5856 7.40593 75.7099 7.39536 75.8313 7.30221L75.0985 7.47357L75.0274 7.34226C74.0471 7.35272 71.9566 7.50689 71.4287 7.24865C69.016 7.49792 65.1912 7.51849 62.154 7.53079C61.4941 7.63981 60.8266 7.70016 60.1517 7.69572L59.4059 7.55191C58.7136 7.68415 58.0139 7.7516 57.3069 7.74618C57.3071 7.73004 57.3394 7.71488 57.3796 7.70804C56.6887 7.69504 55.9973 7.74659 55.3134 7.84681C54.5259 7.85508 53.7632 7.79146 53.9976 7.64525C53.9309 7.9015 52.3343 7.65102 52.3343 7.65102C52.3343 7.65102 42.2739 7.7397 30.9821 8.05717C19.6821 8.38247 7.16665 8.94513 2.28094 9.85349C1.90999 9.99553 0.904254 10.1424 1.32087 10.2681C0.556641 10.3659 0.140636 10.1756 0.0188497 10.3091C1.08739 10.3175 -0.201314 10.6495 0.842369 10.7378L0.21492 10.8156C0.109581 10.9092 1.04394 10.6633 0.929885 10.8293L1.06077 10.5831C1.39844 10.5611 1.7355 10.6036 2.06407 10.6944C2.62917 10.413 3.26511 10.2871 3.90732 10.347L3.60178 10.37C4.49407 10.3246 4.15487 10.5079 4.34742 10.538L4.14653 10.54L4.90893 10.6359C4.33901 10.5781 3.4048 10.8079 3.89523 10.7744C4.96363 10.7989 3.61448 10.7255 4.41046 10.6691C4.90893 10.6359 4.77108 10.7689 4.75425 10.8491L5.63851 10.8034C5.61334 10.9156 5.05183 10.8178 5.42048 10.9178L6.53079 10.758C6.75318 11.0311 7.73773 10.5768 8.26565 10.827C7.46134 10.9155 8.34513 10.9182 8.2157 11.0111L10.1849 10.934C10.3695 10.9638 9.66972 11.0393 9.96723 11.0161C10.2403 11.0325 10.5137 11.0005 10.7716 10.9196C10.9477 10.9895 12.2425 10.8676 12.2005 11.06C13.5415 11.1413 12.7493 10.8023 14.002 10.8728C14.1697 10.9829 13.0132 10.9314 13.5747 11.0293L14.8772 10.9399C14.667 11.0787 14.4093 11.1435 14.1524 11.1195C17.6552 11.1537 19.5703 11.7045 22.7544 11.4626C23.2112 11.5815 22.432 11.5658 22.1177 11.6611C24.426 11.4167 25.3859 11.8657 27.3552 11.7886L27.3884 11.6766C30.1498 11.9464 33.4468 11.6596 36.5637 11.7143L36.1867 11.6463C36.718 11.5414 37.265 11.4774 37.8037 11.4373C37.8836 11.4882 37.4478 11.6847 38.3404 11.6151C38.1479 11.5769 37.7705 11.5493 37.8836 11.4882C40.5652 11.6991 46.1914 11.4994 50.5781 11.5363C56.5019 11.3053 62.945 11.3889 68.764 11.195C67.8799 11.2246 68.2442 10.937 68.9105 10.9896C70.7625 11.4174 72.0776 10.8441 73.9632 11.1195C77.348 10.8918 80.3898 11.251 83.5353 10.8303L83.5984 10.9614C83.9679 10.9727 84.3296 10.9514 84.6917 10.8979L84.6833 10.938C85.8561 10.9657 87.2637 10.8068 87.9381 10.8597L87.9717 10.7073C88.663 10.68 88.3403 10.8154 89.0483 10.716L89.0315 10.7881L89.8525 10.6356C89.7858 10.8918 91.8131 10.6227 92.3746 10.7286C93.275 10.6673 94.9717 10.5253 96.3374 10.5508C97.3326 10.6619 98.3365 10.7087 99.3329 10.6987C101.407 10.6328 104.372 10.5457 107.016 10.5536L106.961 10.3905L107.652 10.3713C107.644 10.4114 107.74 10.4224 107.635 10.4434C108.18 10.6295 109.227 10.3628 109.78 10.4685C109.428 10.3205 109.298 10.4538 108.905 10.4579C108.335 10.384 108.875 10.2148 109.637 10.2865L109.621 10.3264L110.136 10.2291C110.199 10.3602 110.673 10.415 110.744 10.5382C113.01 10.4701 114.555 10.2267 116.893 10.2495C116.659 10.3957 118.573 10.1878 118.113 10.4482C119.52 10.3377 117.873 10.2471 118.51 10.0567C118.904 10.0606 119.314 9.98437 119.386 10.0753C119.2 10.1423 119.714 10.2226 119.392 10.2531L120.332 10.2253C120.42 10.2441 120.219 10.2783 120.115 10.2994C122.029 10.1317 123.512 10.4272 125.225 10.2534C125.347 10.1603 124.542 10.2326 124.664 10.1395C126.385 9.93366 126.197 10.2831 127.805 10.1384L127.475 10.2655C127.99 10.1198 128.537 10.08 129.075 10.1529C129.234 10.3031 128.35 10.2842 127.94 10.3604C128.526 10.3622 130.013 10.3026 129.557 10.1757C130.007 10.149 130.456 10.187 130.906 10.2814C130.914 10.2413 130.248 10.1887 130.658 10.1124C131.622 10.1821 133.1 10.1627 134.273 10.1662C134.265 10.2063 134.345 10.2571 134.248 10.2784C135.198 10.0814 135.106 10.4176 136.409 10.3524Z" fill="#C12A21"/>
<path opacity="0.26" d="M198.92 8.15889L198.446 8.13306C198.446 8.17008 198.429 8.21579 198.204 8.2542L198.92 8.15889Z" fill="#C12A21"/>
<path opacity="0.26" d="M176.465 8.446C176.409 8.45352 176.353 8.47057 176.296 8.49715C176.409 8.48212 176.441 8.46421 176.465 8.446Z" fill="#C12A21"/>
<path opacity="0.26" d="M171.014 8.88406C171.401 8.84053 171.055 8.79929 170.862 8.75398C170.854 8.79201 170.861 8.83063 171.014 8.88406Z" fill="#C12A21"/>
<path opacity="0.26" d="M211.628 7.48267C211.548 7.49915 211.499 7.52654 211.507 7.55598C211.62 7.53096 211.644 7.50269 211.628 7.48267Z" fill="#C12A21"/>
<path opacity="0.26" d="M246.787 7.45495L246.65 7.42218C246.698 7.44252 246.738 7.45325 246.787 7.45495Z" fill="#C12A21"/>
<path opacity="0.26" d="M244.839 7.16943C244.702 7.1649 244.573 7.17818 244.445 7.19147C244.581 7.196 244.71 7.19149 244.839 7.16943Z" fill="#C12A21"/>
<path opacity="0.26" d="M203.112 7.67501C202.991 7.68004 202.862 7.69402 202.741 7.72675C202.87 7.73124 202.991 7.70774 203.112 7.67501Z" fill="#C12A21"/>
<path opacity="0.26" d="M244.042 7.24178L243.553 7.21736C243.544 7.22566 243.544 7.23422 243.544 7.25134L244.042 7.24178Z" fill="#C12A21"/>
<path opacity="0.26" d="M247.405 7.48196C247.212 7.47607 246.955 7.46821 246.786 7.45496C246.995 7.49371 247.204 7.5001 247.405 7.48196Z" fill="#C12A21"/>
<path opacity="0.26" d="M224.532 7.14849L224.476 7.15582C224.107 7.21733 224.34 7.18827 224.532 7.14849Z" fill="#C12A21"/>
<path opacity="0.26" d="M241.893 7.54352L241.829 7.5319L241.684 7.57357L241.893 7.54352Z" fill="#C12A21"/>
<path opacity="0.26" d="M249.524 7.55596C249.444 7.55313 249.363 7.56892 249.283 7.5847L249.564 7.61319C249.532 7.58415 249.532 7.56555 249.524 7.55596Z" fill="#C12A21"/>
<path opacity="0.26" d="M231.896 7.357C232.033 7.29387 232.082 7.24697 232.09 7.21807C231.929 7.22191 231.824 7.24728 231.896 7.357Z" fill="#C12A21"/>
</g>
</g>
</g>
</g>
<path d="M42.2999 10.8171C42.2757 10.836 42.2594 10.865 42.2511 10.9042C42.2915 10.8662 42.3077 10.847 42.2999 10.8171Z" fill="#C12A21"/>
<path d="M63.9483 10.7082L63.6997 10.7461C63.7878 10.7491 63.8679 10.7426 63.9483 10.7082Z" fill="#C12A21"/>
<path d="M29.3329 11.0647C29.341 11.0569 29.357 11.0574 29.3651 11.0496L28.4573 11.0548L29.3329 11.0647Z" fill="#C12A21"/>
<path d="M110.115 10.4151L109.826 10.4146C109.922 10.4173 110.019 10.4201 110.115 10.4151Z" fill="#C12A21"/>
<path d="M82.7564 10.4588C82.8773 10.4257 82.9981 10.4019 83.1267 10.4063C82.9982 10.3832 82.8694 10.4068 82.7564 10.4588Z" fill="#C12A21"/>
<path d="M22.4288 9.56982L22.806 9.67742C22.7983 9.62994 22.662 9.57797 22.4288 9.56982Z" fill="#C12A21"/>
<path d="M9.28922 10.6782C9.2971 10.6881 9.31295 10.6983 9.32092 10.6986C9.34489 10.6898 9.32904 10.6796 9.28922 10.6782Z" fill="#C12A21"/>
<path d="M14.4428 10.9115C14.5555 10.8967 14.6844 10.8731 14.8132 10.8495C14.6604 10.8536 14.4593 10.8653 14.4428 10.9115Z" fill="#C12A21"/>
<path d="M14.9899 10.8108L14.8133 10.8421C14.9095 10.8361 14.9897 10.8295 14.9899 10.8108Z" fill="#C12A21"/>
<path d="M277.799 10.43C278.104 10.4403 278.41 10.4048 278.708 10.3231L277.799 10.43Z" fill="#C12A21"/>
<path d="M151.919 10.1298L151.839 10.1754C151.919 10.1589 151.927 10.1494 151.919 10.1298Z" fill="#C12A21"/>
<path d="M278.271 9.41504L278.526 9.45027C278.439 9.42952 278.359 9.41795 278.271 9.41504Z" fill="#C12A21"/>
<path d="M29.3939 8.93481C29.7727 8.82054 30.5513 8.93738 30.5442 8.8283C30.1422 8.85109 29.564 8.78633 29.3939 8.93481Z" fill="#C12A21"/>
<path d="M160.745 5.63771L160.993 5.63709C160.873 5.63358 160.801 5.63146 160.745 5.63771Z" fill="#C12A21"/>
<path d="M278.271 9.42629L277.974 9.37885C277.998 9.39828 278.03 9.41799 278.062 9.4377C278.134 9.42159 278.198 9.4238 278.271 9.42629Z" fill="#C12A21"/>
<path d="M195.447 10.1711L195.43 10.1705L195.342 10.186L195.447 10.1711Z" fill="#C12A21"/>
<path d="M197.749 10.3735L197.259 10.4018C197.427 10.4163 197.588 10.4127 197.749 10.3735Z" fill="#C12A21"/>
<path d="M278.708 10.3045L279.239 10.2398C279.062 10.243 278.885 10.2738 278.708 10.3045Z" fill="#C12A21"/>
<path d="M222.641 10.3472L222.417 10.3573C222.497 10.3599 222.569 10.3622 222.641 10.3472Z" fill="#C12A21"/>
<path d="M80.9971 10.4278L80.797 10.4026C80.7727 10.4386 80.7886 10.4484 80.9971 10.4278Z" fill="#C12A21"/>
<path d="M97.2443 7.11882C97.5577 7.1296 97.8637 7.08437 98.162 6.98315C97.8484 6.98167 97.5425 7.02689 97.2443 7.11882Z" fill="#C12A21"/>
<path d="M100.138 7.00269L100.025 6.99036C100.065 7.00036 100.097 7.0014 100.138 7.00269Z" fill="#C12A21"/>
<path d="M81.6456 7.11096L81.6455 7.12086C81.6544 7.12118 81.6544 7.11128 81.6544 7.11128L81.6456 7.11096Z" fill="#C12A21"/>
<path d="M85.3094 7.0188C85.3893 7.03977 85.4772 7.061 85.5653 7.06399C85.4775 7.03362 85.3895 7.02151 85.3094 7.0188Z" fill="#C12A21"/>
<path d="M109.244 6.54694C109.236 6.54666 109.244 6.54694 109.244 6.54694L109.26 6.55717L109.244 6.54694Z" fill="#C12A21"/>
<path d="M143.722 6.14989C140.259 6.16688 135.774 6.33366 132.337 6.26561C131.371 6.42483 130.39 6.50565 129.41 6.48516L129.292 6.2323L128.383 6.30742C128.015 6.22662 129.083 6.26524 128.425 6.1683L128.086 6.32222C128.015 6.23441 125.741 6.24673 127.269 6.08037L123.726 6.06386C122.939 6.04893 123.274 6.26908 122.407 6.20508C122.231 6.12984 122.721 6.15957 122.642 6.06373C120.032 5.8637 119.64 6.53837 117.215 6.40601L117.424 6.37308C117.014 6.43918 116.227 6.43205 116.218 6.46299C116.537 6.72164 116.653 6.32744 117.391 6.48125C117.333 6.69783 116.466 6.59487 116.521 6.76014C116.055 6.73111 115.589 6.74884 115.122 6.81333C114.28 6.67988 113.066 6.76957 112.425 6.60295C111.853 6.76573 111.265 6.86571 110.663 6.88728C110.021 6.72067 110.809 6.7278 109.942 6.6638L109.804 6.79234C109.089 6.77171 109.202 6.73599 109.226 6.68213C108.704 6.75279 108.173 6.78425 107.643 6.76895L108.174 6.65177C107.467 6.7015 107.178 6.67757 106.198 6.66488C106.215 6.5952 106.608 6.59877 106.905 6.62293C106.369 6.43595 105.997 6.69805 105.708 6.68191C105.787 6.73878 106.47 6.75848 106.139 6.88146C105.65 6.85953 105.101 7.04638 104.757 6.90393L105.289 6.78675C104.725 6.89521 104.154 6.9333 103.584 6.89347C103.649 6.88753 103.617 6.85543 103.641 6.82495C102.717 6.90739 101.777 6.91144 100.846 6.82221L101.055 6.78927C100.612 6.83107 100.378 6.94124 100.137 6.93429C100.763 7.00692 100.594 7.04102 100.649 7.15954C99.824 6.94863 99.4017 7.39637 98.0532 7.2717C98.07 7.20202 98.3922 7.11778 98.7691 7.19102C99.1574 6.92159 99.617 6.75557 100.092 6.7069C99.5849 6.75464 98.982 6.78401 99.1115 6.6942L98.9569 6.89242C98.6515 6.8992 98.4026 6.88422 98.1696 6.88529C98.0398 7.00627 98.7942 7.0904 98.0864 7.17131C97.2824 7.23385 97.6545 6.97176 97.5332 7.05401C96.4237 7.13112 97.0812 7.26702 96.0133 7.19723C96.1422 7.16976 96.2789 7.15812 96.4153 7.16985C95.6448 7.09305 94.535 7.20133 94.3044 6.96861C94.4258 6.87857 94.5789 6.83621 94.7312 6.864L94.7228 6.90273C95.5601 6.73201 94.0234 6.94491 94.2826 6.73412C94.3456 6.86066 93.2694 6.8296 92.7794 6.81546L92.9387 6.96037C91.3355 7.39741 93.0219 6.67435 91.4225 6.73732C90.4091 6.84059 91.8077 6.77962 91.1881 6.87866C90.5461 6.79777 89.8957 6.7712 89.2447 6.79139C88.964 6.73652 88.3944 6.65771 88.3398 6.50023C87.6089 6.47913 86.8774 6.51259 86.1455 6.5928C87.1886 6.72425 87.1756 6.41986 88.3947 6.62654L88.0557 6.78825C87.2122 6.7795 86.1348 6.86533 85.5569 6.80967C85.6771 6.83653 85.7248 6.88468 85.6522 6.91376C84.7593 7.02831 83.8509 7.08784 82.943 7.09281C82.7837 6.9479 83.4664 6.96761 83.9646 6.9586C83.3145 6.90086 82.6639 6.88208 82.0129 6.91006C81.9498 6.78352 82.8001 6.91719 82.93 6.78842L81.6361 6.82903C81.6442 6.82147 81.6362 6.81344 81.6363 6.80565C81.4574 7.01875 80.6482 6.79272 79.8603 6.85573C78.7756 6.8634 77.7055 7.0196 76.6742 7.31723C76.3935 7.26236 76.3137 7.20549 76.4267 7.15419C76.8918 7.24556 76.8042 7.17287 76.9654 7.11517C76.3305 7.13582 75.5776 6.91141 75.9319 6.82809C74.927 6.89263 76.3003 6.94006 75.681 7.00794L74.2997 6.96027C74.4673 7.06645 74.9491 7.08815 74.2413 7.17685C73.6384 7.20623 73.3493 7.19009 72.5701 7.18319C72.6831 7.13188 72.3146 7.01991 72.9091 7.02148C72.508 6.96313 72.098 6.99027 71.7115 7.08045C72.5702 7.17539 70.3045 7.18016 70.9536 7.34701L70.0948 7.25986C70.2877 7.25763 70.3125 7.18818 70.6015 7.20432C70.3541 7.04127 69.9021 7.25429 69.6046 7.27689C69.219 7.27355 68.8337 7.23905 68.4487 7.17337C68.0947 7.22551 67.7334 7.19949 67.3889 7.11159C66.9868 7.14676 67.3556 7.21977 67.2426 7.27108L65.8607 7.27796C65.7813 7.18992 65.6633 6.93706 65.8725 6.90413C65.3575 6.9906 65.6931 7.17178 64.9138 7.17268C65.3574 6.9906 63.8706 7.04902 64.5154 6.83378C63.7051 6.72464 62.8859 6.70099 62.0736 6.77889C61.6384 6.92223 62.8441 6.85569 62.7945 6.99458C60.8175 7.06224 60.7011 7.45644 59.2475 7.3989L59.6247 7.43317C59.1746 7.45136 58.7321 7.51654 58.2972 7.62871C58.54 7.44864 57.2494 7.16193 55.7626 7.21256C55.6412 7.3026 56.6045 7.37718 56.3621 7.51829L55.3816 7.55236C55.3094 7.54248 55.4141 7.50653 55.5429 7.48686C54.6585 7.55487 53.882 7.26742 53.6309 7.47844L52.7175 7.22601L53.078 7.32996C52.6434 7.41096 52.2009 7.46835 51.7589 7.48677C51.1151 7.58512 50.4486 7.55809 49.8073 7.41485C49.9833 7.49009 50.4316 7.65114 49.6359 7.68274C49.6388 7.3944 47.9577 7.58753 47.9752 7.44772C47.6538 7.45404 47.0761 7.375 47.0427 7.49876L47.0927 7.32091C47.026 7.56844 45.8448 7.58112 44.9445 7.63308C45.1408 7.28796 43.9559 7.67471 43.5411 7.37431C43.3781 7.61126 41.9412 7.49183 41.7946 7.69028C41.0954 7.70908 41.1618 7.50052 40.9858 7.42528L40.6635 7.51732C40.3111 7.4136 39.0094 7.4228 38.2308 7.36135L37.5136 7.57451L37.2413 7.4887C37.1283 7.54 36.5333 7.58519 36.9022 7.65041L36.5167 7.63928C36.4904 7.86459 35.9697 7.70924 35.1893 7.81924C35.0049 7.78273 35.0536 7.72957 35.2226 7.70327C34.8369 7.70773 34.9988 7.58768 34.7826 7.51907C35.0632 7.57394 33.3965 7.93899 34.4481 8.02391C34.5276 8.11195 33.9162 8.18785 33.5309 8.15335L33.2919 7.95936L32.8397 8.18017C32.3899 8.17498 31.9403 8.14641 31.4991 8.07911C31.9973 8.06231 32.5877 7.67399 31.3101 7.69948C31.7603 7.6657 32.2109 7.59296 32.6538 7.4966C32.3886 7.49675 32.2523 7.47722 32.6629 7.38773C31.6659 7.46809 32.3322 7.5185 31.3436 7.56013C31.3936 7.38228 31.1129 7.32741 30.2457 7.27899L30.8953 7.39908C30.8549 7.4213 30.8145 7.44352 30.7743 7.45015C31.0232 7.46513 31.0952 7.4906 31.1507 7.56236C30.9579 7.56459 30.0075 7.8022 29.8399 7.69602C30.8495 7.95902 28.1101 7.94231 28.7513 8.09334C28.4614 8.16293 28.1642 8.15435 27.8757 8.08366C28.6966 7.93586 27.2429 7.8939 27.3727 7.76513C27.0669 7.81866 28.0303 7.88544 27.6118 7.95911C27.2261 7.96357 26.849 7.91371 26.4723 7.82489L26.6736 7.78392L25.911 7.71514C25.7896 7.80518 26.6569 7.8458 25.9572 7.91136C25.7728 7.87485 25.0652 7.94018 25.09 7.87074C25.4207 7.73997 25.1732 7.58471 25.7681 7.53952C25.2698 7.56411 23.6946 7.61999 24.3358 7.77101L23.7412 7.77724C24.1181 7.84269 25.1615 7.95075 23.9718 8.00996L23.9803 7.97123L23.1592 8.12682L22.7985 8.04625C22.8141 8.09347 22.6851 8.13652 22.3798 8.1433C22.2999 8.09423 22.0028 8.07785 22.0276 8.00841C21.1355 8.03723 21.215 8.12527 21.1019 8.18437C20.6036 8.20897 20.4191 8.18025 20.6452 8.06206C19.8657 8.08633 19.0864 8.07943 18.3077 8.02577C17.3988 8.12426 18.5002 8.05471 17.9685 8.19527C17.1681 7.89933 14.9482 8.14707 13.4692 8.22132C13.8844 8.48275 13.0671 8.26428 12.8075 8.51403C13.1217 8.42176 11.3872 8.34052 12.6818 8.22977L11.8859 8.27696C11.3329 8.14407 13.1969 8.1355 12.3633 7.94774C11.5343 8.09531 10.6978 8.1881 9.85392 8.21831C10.1934 8.01763 9.04966 8.30423 9.3009 8.08541C9.56657 8.03072 9.83201 7.99941 10.1052 7.99949L9.92075 7.96299C7.96857 7.95342 9.36399 8.20417 8.35011 8.36199C7.16056 8.41341 7.40338 8.23333 7.33196 8.14552C6.9547 8.11124 6.58493 8.13175 6.22272 8.19925C6.9391 8.06402 7.57158 8.28495 7.24088 8.41572C6.54305 8.30204 5.82768 8.33596 5.15083 8.53469C6.86019 8.72434 6.33204 8.51422 7.93667 8.73203C8.15431 8.66036 8.10807 8.46414 9.06361 8.51511C8.46794 8.63043 9.11071 8.6256 9.27914 8.65385C9.08739 8.54697 9.9386 8.58713 10.2284 8.53313C10.5007 8.61895 9.67121 8.81327 10.6431 8.83353L10.8145 8.56564C11.1999 8.59236 10.6599 8.76386 11.4721 8.68596C11.0448 8.83733 11.6146 8.90055 10.5213 8.97033C11.8369 9.16421 12.5154 8.80182 13.5289 8.67517C13.4243 8.69554 13.416 8.72648 13.3113 8.74684C13.6092 8.68528 13.9149 8.64733 14.2202 8.64055C14.8947 8.68341 13.6967 8.77355 13.8727 8.841L14.9577 8.80995C14.9817 8.81844 14.9816 8.82623 14.9816 8.82623C15.191 8.76992 15.4241 8.76105 15.6405 8.81407C15.3263 8.90634 15.1968 8.99615 14.9871 9.07584L16.114 8.86671C15.9926 8.95675 17.0607 8.99538 16.2565 9.0813L17.9363 9.00506L18.0872 9.18091C18.4894 9.13795 18.4977 9.10701 18.0158 9.0931C18.594 9.11759 20.5503 8.71413 20.2655 9.08008C21.5849 8.89989 22.0584 8.94474 23.6584 8.81943C22.4353 9.01798 25.0787 8.99294 23.7761 9.10345C24.2903 9.10271 24.7971 9.03938 25.2964 8.92127C25.8662 8.98449 25.6233 9.16457 25.0119 9.24826L25.7279 9.15199L25.7195 9.19073L26.3393 9.0761C27.0052 9.16547 26.4821 9.25172 27.1648 9.27142L27.303 9.11171L27.7681 9.19529C27.592 9.12785 27.9942 9.08488 28.4844 9.06785L28.476 9.10659L29.0789 9.06942C28.4833 9.17696 29.633 9.09321 29.3586 9.21781C29.8728 9.21706 29.8809 9.21729 30.8132 9.17405L30.6456 9.06787C31.8518 8.95457 30.7003 9.22535 31.6804 9.22246L31.6174 9.09592C33.0376 9.28502 34.0132 8.939 35.0564 9.05486C34.4615 9.09226 34.6127 9.23694 34.6292 9.19844C35.5296 9.13868 36.9917 9.1497 37.9173 8.98153C38.3409 9.20423 38.8298 9.31189 39.3042 9.27881C40.0033 9.26001 40.1 9.23941 40.326 9.12901C40.9851 9.10126 41.6437 9.12027 42.3017 9.19383C42.4554 9.08913 42.9122 9.20365 43.2747 9.11277L43.3545 9.16185L43.2915 9.03531C44.494 9.29608 45.302 8.84388 46.5128 9.07371L46.3118 9.0913L46.8185 9.03576C46.8982 9.09263 46.6971 9.1258 46.6723 9.19525L49.0263 9.18524L48.5613 9.09386C49.0199 9.02135 49.4861 9.00363 49.9599 9.0251C49.0259 9.2242 50.7392 9.0242 50.8984 9.16912L50.3917 9.22465C51.0828 9.20562 51.0829 9.20562 51.0198 9.07908C51.9121 9.02688 51.6441 9.31536 52.4651 9.16756L51.8786 9.16623C51.7026 9.09099 52.1214 8.98615 52.5151 8.98971C52.6113 9.00808 52.8919 9.06295 52.5865 9.07752C53.2941 9.01999 54.354 9.08176 54.6598 9.02823C55.0451 9.06274 54.9237 9.15278 54.7144 9.18571C56.218 9.06541 55.3971 9.20542 56.9088 9.07755L56.884 9.14699L57.3991 9.06052L58.1448 9.20677L57.8806 9.1134C58.3389 9.07206 58.805 9.06212 59.2628 9.07534L59.0287 9.18551C60.4273 9.11675 60.65 9.34924 61.9772 9.19266C62.0654 9.2108 61.8642 9.24397 61.7595 9.26433C62.9905 9.08939 62.6977 9.44731 63.929 9.2334C63.8564 9.27028 63.9925 9.31319 63.944 9.34297L64.5071 9.27348L64.4736 9.40503L64.9257 9.19201L65.2777 9.3347L65.4954 9.26302C66.1033 9.53002 66.949 9.32057 67.7825 9.51613L67.6397 9.34051C69.7085 8.94029 72.4022 9.50915 74.9106 9.3321L74.869 9.47121L75.9069 9.32188C76.4682 9.43162 75.5763 9.44486 75.7523 9.52009C76.8618 9.43519 76.2124 9.30731 77.4983 9.25867C78.1642 9.35585 77.2722 9.36908 76.9585 9.41459C78.2368 9.31897 79.5226 9.28592 80.8076 9.3308C80.8238 9.31568 80.8804 9.28613 80.8322 9.27695C81.6363 9.21441 82.7043 9.26862 83.5881 9.26295C83.5633 9.33239 83.3463 9.34172 83.1292 9.35104C83.4744 9.38439 83.8199 9.37877 84.1578 9.33396L83.8272 9.45693C84.5427 9.40743 85.2656 9.4205 85.9798 9.50348C85.9 9.44661 85.9252 9.3382 86.5197 9.34756C86.8468 9.56748 88.1194 9.25342 89.0663 9.3665C88.9533 9.4178 88.2622 9.42904 88.455 9.4346C88.8966 9.46294 89.3389 9.42114 89.7657 9.31653L89.6443 9.40657L91.847 9.27526C92.1822 9.49541 93.9202 9.23376 93.7739 9.39324C94.5612 9.40037 93.1161 9.2963 94.1046 9.27026C94.3688 9.36364 95.0048 9.22609 94.9632 9.373L94.8586 9.38557L95.5497 9.37433L95.1145 9.50988C95.7093 9.48028 96.1525 9.34496 96.1777 9.23655C96.7239 9.24453 97.2698 9.29146 97.8152 9.37736L97.606 9.4103C99.1973 9.35489 100.253 9.79853 101.501 9.5617C101.597 9.58007 101.581 9.61857 101.388 9.61301L102.376 9.62593L102.142 9.72831L103.767 9.56473L103.75 9.6344C104.826 9.66547 106.506 9.62819 107.888 9.61351L107.678 9.64645C109.19 9.54197 109.14 9.71982 110.241 9.64247C110.209 9.65713 110.169 9.67156 110.129 9.6704L111.125 9.66797L110.907 9.73964C111.462 9.70888 112.008 9.73244 112.561 9.81078C112.988 9.76851 113.406 9.68705 113.817 9.57418C114.902 9.56651 114.081 9.66756 114.756 9.726C115.543 9.73313 115.673 9.61215 116.74 9.67415L116.724 9.74383C117.222 9.73482 117.528 9.68128 118.219 9.67784L118.01 9.71078C119.136 9.56399 119.421 9.93082 120.3 9.62099C120.774 9.68142 121.674 9.64504 121.632 9.78416C123.039 9.70004 124.132 9.66143 125.53 9.61604C125.761 9.84876 125.828 9.60124 126.678 9.74271L126.615 9.61616C128.591 9.61085 130.862 9.93362 133.039 9.89514L133.102 10.0217L133.538 9.88613C135.883 9.96162 138.919 10.0181 140.791 10.0409C141.619 9.92451 142.464 9.87092 143.307 9.89527L143.202 9.91563C144.898 9.85544 146.682 9.82118 148.529 9.91347C148.416 9.96477 148.6 10.0013 148.391 10.0342C148.882 9.96263 149.38 9.96921 149.869 10.0457L149.404 9.94653C149.919 9.86785 150.449 9.89873 150.954 10.0458L151.783 9.91384C151.839 9.92325 151.919 9.94895 151.935 9.965L152.08 9.89904L152.52 10.0676C153.075 10.0447 153.63 9.97495 154.169 9.85021C154.249 9.90707 155.028 9.95294 154.425 9.98231L157.461 10.0621L156.988 10.0017C156.925 9.87517 157.841 9.80808 158.307 9.86828C157.687 9.96733 158.257 10.0461 158.521 10.1395C158.931 10.0734 158.161 10.0278 158.378 9.95609C159.006 9.87286 159.641 9.85221 160.267 9.90147L159.961 9.94721C160.668 9.90527 160.996 10.133 161.687 10.1217C162.306 10.0227 162.771 10.1297 162.637 9.90751C163.537 9.87113 162.989 10.058 163.278 10.0819C163.889 9.99823 164.515 10.0319 165.125 10.1742C165.618 9.86103 167.55 10.3143 167.737 10.0547L168.474 10.2163C168.499 10.1469 168.645 9.98739 169.24 9.96558C169.802 10.0519 169.672 10.1729 169.848 10.2482L170.228 9.9863C173.487 10.3142 177.778 10.173 181.351 10.4477C182.942 10.4078 184.951 10.3177 186.806 10.3869L186.597 10.4198L188.444 10.5199L187.104 10.3798C187.506 10.3525 187.819 10.307 188.213 10.3183C190.621 10.5203 193.039 10.5901 195.45 10.535C197.067 10.2543 196.523 10.8232 198.076 10.6186C197.947 10.646 197.89 10.6912 197.778 10.7191C199.449 10.6426 200.35 10.6063 202.022 10.4518C201.834 10.7504 203.107 10.4598 202.961 10.6192L203.098 10.4985C203.467 10.5793 204.342 10.6202 204.221 10.7102L204.962 10.5679L205.025 10.6944C206.004 10.7227 208.102 10.6585 208.614 10.9227C211.033 10.7743 214.856 10.9002 217.892 11.0034C218.56 10.9214 219.227 10.8939 219.901 10.9133L220.639 11.0749C221.339 10.9704 222.038 10.9438 222.745 10.9798C222.745 10.9954 222.712 11.0101 222.664 11.0165C223.355 11.052 224.046 11.0407 224.729 10.9669C225.517 10.9896 226.279 11.0896 226.036 11.2229C226.111 10.9756 227.699 11.2943 227.699 11.2943C227.699 11.2943 237.77 11.6785 249.071 11.919C260.373 12.1594 272.904 12.3028 277.818 11.8132C278.1 11.7045 278.912 11.6577 278.625 11.5013C278.858 11.4925 279.098 11.515 279.323 11.576C279.387 11.5935 279.451 11.6031 279.515 11.6128C279.539 11.6135 279.563 11.6142 279.588 11.6071C279.596 11.6073 279.612 11.6 279.62 11.6002L279.636 11.5929L279.644 11.5853C279.727 11.3149 279.802 11.0442 279.885 10.766C279.81 11.0133 279.736 11.2683 279.669 11.5159C279.644 11.6087 279.652 11.57 279.652 11.5778L279.636 11.5773L279.62 11.5768L279.588 11.5759L279.524 11.5662C279.492 11.5575 279.46 11.5566 279.428 11.5401C279.379 11.5231 279.356 11.5068 279.34 11.4908C279.316 11.4511 279.365 11.4135 279.405 11.3757C279.494 11.2926 279.6 11.2021 279.167 11.1116L279.745 11.1049C279.883 11.0231 278.941 11.1675 279.119 11.0245L278.916 11.2447C278.619 11.2283 278.331 11.1654 278.059 11.0484C277.478 11.2811 276.842 11.3485 276.217 11.2525L276.522 11.2458C275.631 11.2278 275.977 11.0819 275.793 11.0376L275.994 11.0434L275.248 10.905C275.818 10.9994 276.759 10.8472 276.269 10.8409C275.21 10.7402 276.542 10.9033 275.746 10.9115C275.248 10.905 275.394 10.7922 275.411 10.7148L274.519 10.6968C274.552 10.5887 275.105 10.7216 274.745 10.602L273.62 10.6787C273.413 10.3999 272.397 10.7681 271.894 10.4963C272.698 10.4572 271.823 10.4007 271.952 10.3187L269.976 10.2773C269.792 10.233 270.499 10.2066 270.194 10.2134C269.921 10.1821 269.647 10.1976 269.382 10.2523C269.214 10.1773 267.912 10.2177 267.962 10.0399C266.622 9.88424 267.397 10.2496 266.145 10.1122C265.986 9.99841 267.134 10.1095 266.581 9.98439L265.287 9.98604C265.505 9.85981 265.771 9.81291 266.028 9.8515C262.527 9.61015 260.645 8.99457 257.439 9.05794C256.991 8.92027 257.761 8.98149 258.083 8.90504C255.76 9.01728 254.825 8.53816 252.849 8.50451L252.816 8.61269C250.064 8.21365 246.753 8.34414 243.646 8.12974L244.015 8.21054C243.476 8.28073 242.929 8.32732 242.382 8.33493C242.303 8.27806 242.754 8.1118 241.854 8.14039C242.039 8.18469 242.424 8.23478 242.311 8.27829C239.639 7.93613 233.999 7.89029 229.615 7.6702C223.678 7.62357 217.238 7.30517 211.406 7.26935C212.297 7.2795 211.917 7.53357 211.243 7.45954C209.408 6.97784 208.07 7.47708 206.193 7.14228C202.794 7.22346 199.761 6.79294 196.601 7.09149L196.538 6.96494C196.168 6.93869 195.807 6.94385 195.445 6.98797L195.453 6.94923C194.281 6.88421 192.866 6.99148 192.192 6.91746L192.15 7.05657C191.451 7.05978 191.79 6.94483 191.074 7.00992L191.091 6.94025L190.262 7.06444C190.345 6.81738 188.302 7.01567 187.741 6.89034C186.841 6.91893 185.137 7.00226 183.772 6.93168C182.777 6.79383 181.782 6.71833 180.778 6.70494C178.697 6.71503 175.732 6.71522 173.09 6.63895L173.136 6.80399L172.445 6.80744C172.454 6.7687 172.365 6.75057 172.462 6.73776C171.926 6.55078 170.871 6.77759 170.31 6.65225C170.662 6.80273 170.791 6.68175 171.185 6.69311C171.755 6.77971 171.215 6.92783 170.444 6.83544L170.461 6.79693L169.938 6.87538C169.883 6.74907 169.402 6.68061 169.347 6.5543C167.073 6.55883 165.528 6.75591 163.183 6.66484C163.426 6.52372 161.496 6.6785 161.964 6.44257C160.558 6.51889 162.195 6.64412 161.559 6.81284C161.165 6.80148 160.755 6.86758 160.684 6.77977C160.869 6.72276 160.364 6.63023 160.685 6.60833L159.745 6.62017C159.657 6.60203 159.866 6.56909 159.963 6.55629C158.049 6.68036 156.558 6.36448 154.846 6.49434C154.716 6.58415 155.528 6.52964 155.407 6.61188C153.678 6.77245 153.874 6.44292 152.266 6.55241L152.597 6.43723C152.073 6.56244 151.527 6.59343 150.989 6.51555C150.838 6.37087 151.713 6.40393 152.124 6.33783C151.537 6.3287 150.043 6.34792 150.499 6.48583C150.049 6.50402 149.6 6.45986 149.151 6.35336C149.143 6.3921 149.809 6.4581 149.398 6.51641C148.435 6.42625 146.957 6.41477 145.784 6.39651C145.793 6.35777 145.713 6.3087 145.818 6.28833C144.876 6.47162 144.975 6.14709 143.674 6.17188" fill="#C12A21"/>
<path d="M81.172 7.08227L81.6461 7.10787C81.6464 7.0707 81.6629 7.0248 81.8803 6.98581L81.172 7.08227Z" fill="#C12A21"/>
<path d="M103.642 6.805C103.699 6.79743 103.755 6.78031 103.811 6.75363C103.691 6.76849 103.659 6.78646 103.642 6.805Z" fill="#C12A21"/>
<path d="M109.093 6.41667C108.707 6.45095 109.052 6.50162 109.245 6.54686C109.254 6.50876 109.246 6.46048 109.093 6.41667Z" fill="#C12A21"/>
<path d="M68.4542 7.85754C68.535 7.84093 68.5836 7.81341 68.5759 7.77411C68.4627 7.80906 68.4384 7.8277 68.4542 7.85754Z" fill="#C12A21"/>
<path d="M33.2834 8.81195L33.4273 8.83488C33.3794 8.82422 33.3314 8.81356 33.2834 8.81195Z" fill="#C12A21"/>
<path d="M35.2403 9.02785C35.377 9.0234 35.5056 9.01868 35.6344 8.99597C35.4978 8.99142 35.3691 9.00513 35.2403 9.02785Z" fill="#C12A21"/>
<path d="M76.9802 7.58579C77.1009 7.58066 77.2296 7.56654 77.3505 7.53361C77.2219 7.5292 77.1012 7.5436 76.9802 7.58579Z" fill="#C12A21"/>
<path d="M36.0368 8.93408L36.5269 8.94126C36.527 8.93245 36.5351 8.92389 36.5353 8.90627L36.0368 8.93408Z" fill="#C12A21"/>
<path d="M32.6569 8.81253C32.8497 8.81013 33.1068 8.80973 33.2754 8.82334C33.0749 8.78359 32.8661 8.77711 32.6569 8.81253Z" fill="#C12A21"/>
<path d="M55.5462 8.44073L55.6024 8.43326C55.9798 8.35214 55.739 8.39088 55.5462 8.44073Z" fill="#C12A21"/>
<path d="M38.1789 8.54344L38.243 8.54568L38.3877 8.49394L38.1789 8.54344Z" fill="#C12A21"/>
<path d="M30.5443 8.82069C30.6248 8.81413 30.7052 8.80758 30.7859 8.78235L30.5046 8.76331C30.5285 8.79214 30.5364 8.80175 30.5443 8.82069Z" fill="#C12A21"/>
<path d="M48.1809 8.36162C48.0437 8.43475 47.9951 8.4818 47.9868 8.51078C48.1476 8.50681 48.2524 8.47154 48.1809 8.36162Z" fill="#C12A21"/>
<g opacity="0.26">
<g opacity="0.26">
<g opacity="0.26">
<g opacity="0.26">
<path opacity="0.26" d="M42.3023 10.819C42.2781 10.838 42.2618 10.8671 42.2534 10.9064C42.2939 10.8682 42.3022 10.8388 42.3023 10.819Z" fill="#C12A21"/>
<path opacity="0.26" d="M63.9427 10.7097L63.694 10.7484C63.7821 10.7513 63.8703 10.7354 63.9427 10.7097Z" fill="#C12A21"/>
<path opacity="0.26" d="M29.3272 11.0663C29.3353 11.0583 29.3513 11.0587 29.3594 11.0508L28.4516 11.0574L29.3272 11.0663Z" fill="#C12A21"/>
<path opacity="0.26" d="M110.118 10.4169L109.829 10.4168C109.925 10.4195 110.021 10.4222 110.118 10.4169Z" fill="#C12A21"/>
<path opacity="0.26" d="M82.7507 10.4612C82.8716 10.4276 82.9924 10.4033 83.121 10.4076C82.9926 10.3846 82.8719 10.3994 82.7507 10.4612Z" fill="#C12A21"/>
<path opacity="0.26" d="M22.4312 9.57184L22.8083 9.67944C22.7927 9.6314 22.6644 9.57961 22.4312 9.57184Z" fill="#C12A21"/>
<path opacity="0.26" d="M9.29169 10.6702C9.29957 10.6802 9.31541 10.6904 9.32338 10.6907C9.34727 10.6915 9.32346 10.681 9.29169 10.6702Z" fill="#C12A21"/>
<path opacity="0.26" d="M14.4452 10.914C14.5579 10.8989 14.6867 10.8749 14.8156 10.851C14.6547 10.8551 14.4617 10.8675 14.4452 10.914Z" fill="#C12A21"/>
<path opacity="0.26" d="M14.9922 10.8125L14.8156 10.8444C14.9119 10.8382 14.992 10.8314 14.9922 10.8125Z" fill="#C12A21"/>
<path opacity="0.26" d="M277.801 10.4334C278.107 10.4433 278.412 10.4069 278.71 10.3239L277.801 10.4334Z" fill="#C12A21"/>
<path opacity="0.26" d="M151.913 10.1314L151.833 10.1774C151.913 10.1606 151.929 10.1417 151.913 10.1314Z" fill="#C12A21"/>
<path opacity="0.26" d="M278.273 9.41705L278.529 9.45229C278.441 9.43143 278.353 9.4196 278.273 9.41705Z" fill="#C12A21"/>
<path opacity="0.26" d="M29.3883 8.93829C29.7671 8.82211 30.5457 8.93886 30.5386 8.8286C30.1365 8.85234 29.5665 8.78815 29.3883 8.93829Z" fill="#C12A21"/>
<path opacity="0.26" d="M160.747 5.6396L160.995 5.63854C160.875 5.62655 160.803 5.63284 160.747 5.6396Z" fill="#C12A21"/>
<path opacity="0.26" d="M278.273 9.41821L277.976 9.37091C278 9.39046 278.032 9.41027 278.064 9.43008C278.129 9.42282 278.201 9.41582 278.273 9.41821Z" fill="#C12A21"/>
<path opacity="0.26" d="M195.449 10.1729L195.433 10.1724L195.344 10.1882L195.449 10.1729Z" fill="#C12A21"/>
<path opacity="0.26" d="M197.751 10.3749L197.261 10.4044C197.422 10.4185 197.59 10.4148 197.751 10.3749Z" fill="#C12A21"/>
<path opacity="0.26" d="M278.711 10.3073L279.242 10.241C279.065 10.2446 278.888 10.2667 278.711 10.3073Z" fill="#C12A21"/>
<path opacity="0.26" d="M222.643 10.3489L222.419 10.3596C222.491 10.3619 222.571 10.3644 222.643 10.3489Z" fill="#C12A21"/>
<path opacity="0.26" d="M80.9995 10.4296L80.7995 10.4046C80.7752 10.4316 80.7911 10.4506 80.9995 10.4296Z" fill="#C12A21"/>
<path opacity="0.26" d="M97.2466 7.12222C97.5601 7.13252 97.866 7.08638 98.1644 6.98379C97.8509 6.97348 97.545 7.01963 97.2466 7.12222Z" fill="#C12A21"/>
<path opacity="0.26" d="M100.132 7.00454L100.028 6.99237C100.06 7.00228 100.1 7.00353 100.132 7.00454Z" fill="#C12A21"/>
<path opacity="0.26" d="M81.6481 7.10303L81.648 7.11293C81.6569 7.11324 81.6569 7.10333 81.6569 7.10333L81.6481 7.10303Z" fill="#C12A21"/>
<path opacity="0.26" d="M85.312 7.01086C85.3919 7.0319 85.4798 7.0532 85.5679 7.05606C85.4799 7.03476 85.3919 7.02268 85.312 7.01086Z" fill="#C12A21"/>
<path opacity="0.26" d="M109.247 6.53902C109.239 6.53875 109.239 6.54841 109.247 6.53902L109.263 6.54922L109.247 6.53902Z" fill="#C12A21"/>
<path opacity="0.26" d="M143.725 6.08635C140.262 6.10872 135.778 6.2864 132.34 6.22142C131.374 6.38631 130.393 6.47071 129.413 6.45106L129.295 6.19155L128.387 6.26999C128.018 6.18753 129.086 6.22567 128.428 6.12705L128.089 6.28561C128.018 6.19553 125.744 6.21143 127.272 6.03839L123.729 6.02649C122.942 6.01228 123.277 6.2379 122.41 6.1734C122.234 6.09639 122.724 6.12622 122.645 6.02791C120.036 5.82619 119.643 6.51964 117.218 6.38716L117.428 6.35304C117.017 6.42152 116.23 6.41531 116.221 6.4471C116.54 6.71228 116.657 6.30727 117.394 6.46418C117.336 6.6867 116.469 6.58218 116.524 6.75185C116.058 6.7227 115.592 6.74157 115.125 6.80846C114.283 6.67261 113.069 6.76645 112.428 6.59625C111.856 6.76424 111.268 6.86775 110.665 6.89077C110.025 6.72057 110.812 6.72677 109.945 6.66228L109.807 6.79449C109.092 6.77432 109.205 6.73747 109.23 6.68213C108.707 6.75544 108.176 6.7885 107.646 6.77354L108.177 6.65244C107.47 6.70453 107.181 6.68036 106.201 6.66872C106.218 6.59714 106.611 6.60024 106.908 6.62463C106.372 6.43337 106 6.70307 105.711 6.68691C105.79 6.7452 106.473 6.76446 106.142 6.89123C105.653 6.86941 105.104 7.06209 104.76 6.91628L105.292 6.79518C104.728 6.90737 104.157 6.94731 103.587 6.90721C103.652 6.90102 103.62 6.86809 103.644 6.83676C102.72 6.92275 101.78 6.92825 100.849 6.83793L101.058 6.8038C100.615 6.84736 100.381 6.96085 100.14 6.95405C100.766 7.02775 100.597 7.06301 100.652 7.18465C99.8269 6.96922 99.4044 7.42965 98.056 7.30353C98.0728 7.23195 98.3951 7.14498 98.7719 7.21966C99.1604 6.9424 99.6201 6.77124 100.095 6.72058C99.5879 6.77033 98.9851 6.80136 99.1146 6.70894L98.9598 6.91273C98.6545 6.92012 98.4056 6.90509 98.1726 6.90652C98.0427 7.03096 98.7971 7.11629 98.0892 7.20039C97.2851 7.26577 97.6575 6.99607 97.5361 7.08071C96.4266 7.16148 97.0839 7.30012 96.0162 7.22996C96.145 7.20157 96.2817 7.18942 96.4181 7.20128C95.6477 7.12349 94.5378 7.23628 94.3073 6.99761C94.4288 6.90496 94.5819 6.86125 94.7342 6.88956L94.694 6.89643C95.5313 6.71991 93.9946 6.94075 94.2539 6.7239C94.3168 6.85377 93.2406 6.8234 92.7506 6.80957L92.9098 6.95817C91.3064 7.4093 92.9932 6.6643 91.3937 6.73125C90.3803 6.83876 91.7789 6.77415 91.1592 6.87675C90.5174 6.79459 89.8669 6.76823 89.2159 6.78989C88.9353 6.73394 88.3657 6.65382 88.3111 6.49216C87.5803 6.47154 86.8488 6.50694 86.1169 6.59036C87.1599 6.72387 87.1471 6.41128 88.3661 6.6218L88.0269 6.78836C87.1834 6.78058 86.106 6.87026 85.5281 6.81393C85.6483 6.84134 85.696 6.89072 85.6234 6.92069C84.7304 7.0396 83.822 7.10203 82.9141 7.10844C82.7549 6.95984 83.4376 6.9791 83.9358 6.96914C83.2856 6.91077 82.6351 6.89241 81.984 6.92208C81.9211 6.7922 82.7713 6.92828 82.9012 6.79584L81.6073 6.83939C81.6154 6.83161 81.6075 6.82338 81.6075 6.81538C81.4285 7.0345 80.6195 6.80351 79.8315 6.86934C78.779 6.87167 77.7008 7.03339 76.6774 7.34076C76.3967 7.2848 76.317 7.22651 76.43 7.17366C76.895 7.26684 76.8074 7.19231 76.9687 7.13282C76.3338 7.15493 75.581 6.92553 75.9353 6.83946C74.9304 6.90718 76.3037 6.95393 75.6844 7.02452L74.3107 7.01778C74.4783 7.12659 74.9601 7.14819 74.2521 7.2403C73.6493 7.27132 73.3602 7.25516 72.581 7.24918C72.694 7.19633 72.3256 7.08186 72.9201 7.08262C72.519 7.02327 72.109 7.05173 71.7224 7.1449C72.5811 7.24118 70.3154 7.2493 70.9644 7.41973L70.0896 7.331C70.2825 7.32843 70.3073 7.25708 70.5964 7.27324C70.349 7.10614 69.8969 7.32556 69.5994 7.34919C69.2138 7.34631 68.8285 7.31142 68.4436 7.24452C68.0895 7.29858 67.7283 7.27237 67.3837 7.18259C66.9817 7.21928 67.3505 7.29373 67.2374 7.34659L65.8636 7.34785C65.7842 7.25754 65.6664 6.99803 65.8756 6.9639C65.3605 7.05345 65.696 7.23904 64.9167 7.24107C65.3605 7.05345 63.8736 7.11557 64.5186 6.89359C63.7083 6.78266 62.8891 6.75954 62.0768 6.8407C61.6415 6.98853 62.8473 6.91848 62.7976 7.06119C60.8125 7.13327 60.6959 7.53828 59.2423 7.48125L59.6195 7.51591C59.1694 7.53524 58.7269 7.60281 58.2919 7.71863C58.5348 7.53334 57.2443 7.24074 55.7575 7.29485C55.636 7.3875 56.5993 7.46271 56.3568 7.60798L55.3763 7.64437C55.3041 7.63432 55.4089 7.59725 55.5377 7.57686C54.6532 7.64798 53.8769 7.35387 53.6257 7.57095L52.7124 7.31301L53.0729 7.41925C52.6382 7.50305 52.1957 7.56262 51.7537 7.58217C51.1099 7.6841 50.4434 7.65728 49.8021 7.51109C49.9781 7.58811 50.4263 7.75287 49.6306 7.78646C49.6336 7.49033 47.9525 7.69107 47.97 7.54746C47.6486 7.5544 47.071 7.47406 47.0375 7.60121L47.0876 7.41848C47.0207 7.67279 45.8396 7.68749 44.9392 7.74215C45.1357 7.38742 43.9506 7.7863 43.536 7.47839C43.3728 7.72197 41.936 7.60136 41.7893 7.80538C41.0901 7.82568 41.1566 7.61139 40.9806 7.53437L40.6583 7.62936C40.3059 7.52334 39.0043 7.53465 38.2256 7.47265L37.5084 7.69259L37.2361 7.60484C37.1231 7.6577 36.5281 7.70495 36.897 7.77141L36.5114 7.76853C36.4849 7.99996 35.9643 7.84116 35.1839 7.95524C34.9995 7.91801 35.0482 7.86335 35.2172 7.83609C34.8316 7.84122 34.9935 7.71769 34.7773 7.64755C35.0579 7.7035 33.391 8.08078 34.4426 8.16649C34.522 8.2568 33.9106 8.33562 33.5254 8.30073L33.2864 8.10184L32.8341 8.32926C32.3843 8.32457 31.9347 8.29587 31.4935 8.22738C31.9918 8.20942 32.5824 7.80978 31.3047 7.83777C31.755 7.80244 32.2056 7.72709 32.6485 7.62751C32.3834 7.62803 32.247 7.60817 32.6577 7.51568C31.6606 7.59963 32.3269 7.65046 31.3383 7.69461C31.3884 7.51189 31.1078 7.45593 30.2406 7.40745L30.8901 7.52985C30.8497 7.55273 30.8093 7.57561 30.769 7.58248C31.0179 7.59751 31.09 7.62356 31.1455 7.69718C30.9526 7.69974 30.0021 7.94512 29.8345 7.83632C30.844 8.10498 28.1046 8.09173 28.7457 8.24592C28.4558 8.3178 28.1586 8.30941 27.8701 8.23722C28.6911 8.08426 27.2374 8.04324 27.3673 7.9108C27.0615 7.96622 28.0248 8.03344 27.6063 8.10969C27.2206 8.11482 26.8435 8.06415 26.4669 7.97346L26.6682 7.93111L25.9057 7.86155C25.7842 7.9542 26.6514 7.99468 25.9518 8.063C25.7674 8.02578 25.0597 8.09387 25.0845 8.02252C25.4153 7.88775 25.1679 7.72865 25.7629 7.68139C25.2645 7.70736 23.6893 7.76699 24.3304 7.92118L23.7358 7.92842C24.1127 7.9951 25.156 8.1046 23.9663 8.1671L23.9748 8.12731L23.1617 8.2885L22.801 8.20627C22.8166 8.25475 22.6876 8.29914 22.3822 8.30654C22.3024 8.25625 22.0053 8.23986 22.0302 8.16851C21.1381 8.19938 21.2175 8.28968 21.1044 8.35054C20.606 8.37651 20.4215 8.34728 20.6477 8.22557C19.8682 8.25161 19.089 8.24563 18.3102 8.19163C17.4013 8.29408 18.5027 8.22108 17.971 8.3662C17.1707 8.06341 14.9507 8.321 13.4717 8.39936C13.8867 8.66726 13.0695 8.44405 12.8018 8.70069C13.1162 8.58948 11.3737 8.50828 12.6764 8.39293L11.8805 8.44252C11.3356 8.30706 13.1915 8.29538 12.358 8.10374C11.5289 8.25647 10.6924 8.35296 9.84851 8.38519C10.188 8.17861 9.0442 8.47457 9.29556 8.24949C9.56126 8.19294 9.82671 8.1604 10.0999 8.16011L9.90743 8.12265C7.95526 8.1156 9.35858 8.37136 8.34463 8.53489C7.15505 8.58939 7.39797 8.4041 7.31855 8.3138C6.95721 8.2956 6.58743 8.31718 6.22519 8.38702C6.94967 8.24735 7.57401 8.47312 7.24324 8.60789C6.54547 8.49213 5.83811 8.52821 5.16116 8.73328C6.87042 8.92562 6.3423 8.71857 7.9469 8.93197C8.16457 8.85806 8.11843 8.65661 9.07395 8.70759C8.47822 8.82688 9.12099 8.821 9.28941 8.84977C9.10575 8.74051 9.95693 8.78054 10.2467 8.72467C10.519 8.81241 9.68943 9.01317 10.6613 9.03259L10.8329 8.75722C11.2022 8.78365 10.6701 8.96078 11.4744 8.87139C11.047 9.02746 11.6168 9.09157 10.5314 9.16502C11.847 9.36226 12.5257 8.98912 13.5393 8.8576C13.4346 8.87867 13.4263 8.91046 13.3216 8.93152C13.6195 8.86787 13.9252 8.82846 14.2306 8.82107C14.905 8.86412 13.707 8.95841 13.883 9.02742L14.9679 8.99399C14.9919 9.00267 14.9918 9.01068 14.9918 9.01068C15.2013 8.95254 15.4344 8.9431 15.6508 8.99724C15.3365 9.09245 15.207 9.18487 14.9973 9.26702L16.1242 9.05063C16.0028 9.14328 17.0709 9.18142 16.2666 9.27081L17.9465 9.19012L18.0973 9.37051C18.4994 9.32581 18.5078 9.29402 18.0259 9.28043C18.6041 9.30475 20.5606 8.8876 20.2756 9.26385C21.5951 9.07691 22.0686 9.1223 23.6687 8.99132C22.4454 9.19698 25.0889 9.16749 23.7862 9.28285C24.3004 9.28135 24.8072 9.21559 25.3066 9.09358C25.8763 9.15769 25.6334 9.34298 25.0219 9.4298L25.738 9.32992L25.7295 9.36971L26.3494 9.2511C27.0152 9.34194 26.4921 9.43126 27.1748 9.45052L27.3131 9.2863L27.7782 9.37147C27.6021 9.30246 28.0043 9.25777 28.4945 9.23957L28.4861 9.27937L29.089 9.24034C28.4934 9.35163 29.6431 9.26398 29.3687 9.39234C29.8829 9.39083 29.8909 9.39106 30.8233 9.34532L30.6557 9.23651C31.862 9.11844 30.7103 9.39817 31.6905 9.3938L31.6275 9.26393C33.0476 9.45612 34.0233 9.09936 35.0665 9.21687C34.4716 9.25612 34.6227 9.40449 34.6392 9.36493C35.5396 9.30227 37.0017 9.3115 37.9274 9.13747C38.3509 9.36558 38.8398 9.47545 39.3142 9.4408C40.0133 9.4205 40.11 9.39921 40.3361 9.2855C40.9952 9.25606 41.6537 9.27465 42.3118 9.34925C42.4655 9.24151 42.9222 9.35848 43.2847 9.26463L43.3646 9.31491L43.3016 9.18504C44.504 9.45114 45.3121 8.98559 46.5229 9.2199L46.3135 9.26203L46.8203 9.20427C46.9 9.26256 46.6988 9.29692 46.674 9.36827L49.0281 9.35464L48.5631 9.26145C49.0218 9.18633 49.4879 9.16746 49.9617 9.18884C49.0277 9.39465 50.741 9.18681 50.9002 9.33541L50.3934 9.39316C51.0846 9.37264 51.0846 9.37264 51.0216 9.24276C51.914 9.18788 51.6458 9.48454 52.4668 9.33158L51.8804 9.33104C51.7044 9.25402 52.1233 9.14575 52.5169 9.14886C52.6131 9.16758 52.8937 9.22354 52.5883 9.23894C53.2959 9.17884 54.3557 9.24077 54.6616 9.18536C55.0469 9.22025 54.9254 9.31289 54.7162 9.34702C56.2198 9.22132 55.3988 9.36628 56.9106 9.23281L56.8858 9.30416L57.4009 9.21462L58.1465 9.36375L57.8823 9.26823C58.3407 9.22512 58.8068 9.21426 59.2646 9.22718L59.0304 9.34066C60.4291 9.26804 60.6516 9.50649 61.9789 9.3438C62.0671 9.3623 61.8658 9.39665 61.7612 9.41771C62.9922 9.23629 62.6993 9.6043 63.9307 9.38286C63.858 9.42084 63.9941 9.46471 63.9456 9.49536L64.5087 9.42319L64.467 9.57412L64.9192 9.35471L65.2712 9.50074L65.4888 9.42683C66.0966 9.70017 66.9424 9.48385 67.7759 9.6835L67.6331 9.50335C69.7021 9.08937 72.3955 9.66975 74.904 9.48435L74.8624 9.62728L75.9003 9.47243C76.4616 9.58434 75.5697 9.5992 75.7456 9.67622C76.8552 9.58744 76.2058 9.45703 77.4917 9.40525C78.1576 9.5041 77.2656 9.51896 76.9518 9.56615C78.2302 9.46612 79.516 9.43035 80.801 9.47461C80.8172 9.45906 80.8738 9.42863 80.8257 9.41927C81.6297 9.35389 82.6977 9.40804 83.5815 9.40096C83.5567 9.47231 83.3397 9.4822 83.1226 9.49209C83.4678 9.52584 83.8133 9.51958 84.1512 9.47308L83.8205 9.59985C84.536 9.54798 85.259 9.56038 85.9731 9.64458C85.8934 9.58628 85.9186 9.47491 86.513 9.48368C86.8401 9.70907 88.1128 9.38471 89.0596 9.4995C88.9466 9.55235 88.2556 9.56487 88.4483 9.57031C88.8899 9.59878 89.3322 9.55522 89.7591 9.44718L89.6377 9.53983L91.8404 9.40183C92.1755 9.62745 93.9136 9.35626 93.7673 9.52025C94.5546 9.52646 93.1095 9.42163 94.098 9.39348C94.3621 9.489 94.9983 9.34683 94.9565 9.49777L94.852 9.51083L95.543 9.49831L95.1078 9.63814C95.7026 9.60689 96.1459 9.46728 96.1711 9.35591C96.7174 9.36332 97.2632 9.41074 97.8086 9.49819L97.5994 9.53231C99.1907 9.47314 100.247 9.92725 101.494 9.68225C101.59 9.70097 101.574 9.74054 101.381 9.7351L102.369 9.74697L102.135 9.85245L103.76 9.68213L103.743 9.75371C104.819 9.78408 106.499 9.7434 107.881 9.72636L107.672 9.76048C109.183 9.65102 109.133 9.83375 110.234 9.75274C110.202 9.76784 110.162 9.78272 110.122 9.78159L111.118 9.77767L110.9 9.85159C111.455 9.81921 112.001 9.84262 112.555 9.92229C112.981 9.87827 113.399 9.79401 113.81 9.67751C114.895 9.66809 114.074 9.77303 114.749 9.83209C115.536 9.83829 115.666 9.71386 116.734 9.77602L116.717 9.8476C117.215 9.83764 117.521 9.78222 118.212 9.7777L118.003 9.81182C119.129 9.65947 119.414 10.0358 120.293 9.71634C120.767 9.77773 121.667 9.73909 121.625 9.88202C123.032 9.79362 124.125 9.75241 125.524 9.70381C125.754 9.94248 125.821 9.68818 126.671 9.83226L126.608 9.70239C128.585 9.69411 130.855 10.0224 133.032 9.97974L133.095 10.1096L133.531 9.96978C135.876 10.044 138.912 10.0976 140.784 10.1184C141.612 9.99768 142.457 9.94144 143.3 9.96523L143.195 9.9863C144.891 9.92207 146.675 9.88434 148.522 9.97648C148.409 10.0293 148.593 10.0666 148.384 10.1007C148.875 10.0265 149.373 10.0325 149.862 10.1104L149.397 10.0092C149.912 9.92765 150.442 9.95862 150.947 10.109L151.776 9.97223C151.832 9.98182 151.912 10.0081 151.928 10.0246L152.073 9.9566L152.513 10.1291C153.068 10.1048 153.623 10.0324 154.162 9.90347C154.242 9.96176 155.021 10.0078 154.418 10.0388L157.454 10.1164L156.981 10.0551C156.918 9.92518 157.834 9.85498 158.3 9.91614C157.68 10.0187 158.25 10.0989 158.514 10.1944C158.924 10.1259 158.153 10.0801 158.371 10.0062C158.999 9.91985 159.634 9.89774 160.26 9.94743L159.954 9.99484C160.661 9.95076 160.988 10.1842 161.679 10.1716C162.299 10.069 162.764 10.1782 162.63 9.95026C163.53 9.91161 162.982 10.1043 163.271 10.1285C163.882 10.0416 164.508 10.0753 165.117 10.2206C165.611 9.89828 167.542 10.3611 167.73 10.0942L168.467 10.2591C168.492 10.1877 168.638 10.0237 169.233 10.0005C169.795 10.0884 169.665 10.2128 169.841 10.2898L170.221 10.0204C173.479 10.3525 177.771 10.2014 181.343 10.4783C182.935 10.4351 184.944 10.3397 186.799 10.4081L186.59 10.4422L188.437 10.5424L187.096 10.4005C187.498 10.3718 187.812 10.3246 188.206 10.3357C190.614 10.5398 193.031 10.608 195.442 10.5479C197.06 10.2573 196.516 10.8424 198.068 10.63C197.94 10.6584 197.883 10.7048 197.77 10.7337C199.442 10.6528 200.342 10.6141 202.015 10.4532C201.827 10.7601 203.099 10.4597 202.953 10.6237L203.091 10.4995C203.46 10.582 204.335 10.6227 204.213 10.7153L204.954 10.5681L205.017 10.698C205.997 10.7256 208.094 10.6567 208.606 10.9274C211.026 10.7715 214.849 10.8954 217.884 10.997C218.552 10.9118 219.219 10.8826 219.894 10.9016L220.631 11.0665C221.331 10.9582 222.031 10.9299 222.737 10.9658C222.737 10.9818 222.705 10.9969 222.656 11.0036C223.347 11.0391 224.038 11.0266 224.722 10.9498C225.509 10.972 226.271 11.0736 226.029 11.2108C226.103 10.9567 227.691 11.2817 227.691 11.2817C227.691 11.2817 237.762 11.622 249.063 11.8528C260.365 12.0836 272.896 12.2131 277.81 11.7033C278.093 11.5911 278.904 11.542 278.617 11.3818C278.85 11.3723 279.091 11.3951 279.315 11.4575C279.379 11.4753 279.443 11.4851 279.507 11.495C279.532 11.4956 279.556 11.4963 279.58 11.489C279.588 11.4892 279.604 11.4817 279.612 11.4819L279.628 11.4743L279.636 11.4666C279.72 11.1887 279.795 10.9106 279.878 10.6248C279.803 10.8788 279.728 11.1409 279.661 11.3952C279.636 11.4906 279.645 11.4508 279.644 11.4588L279.628 11.4583L279.612 11.4579L279.58 11.457L279.516 11.4472C279.484 11.4383 279.452 11.4373 279.42 11.4204C279.372 11.4031 279.348 11.3864 279.332 11.3699C279.308 11.3292 279.357 11.2906 279.398 11.2517C279.487 11.1661 279.592 11.073 279.159 10.9808L279.738 10.9731C279.875 10.8889 278.934 11.0384 279.112 10.8914L278.909 11.1178C278.612 11.1014 278.323 11.0372 278.051 10.9175C277.47 11.1573 276.835 11.2274 276.209 11.1297L276.515 11.1223C275.623 11.1051 275.97 10.9548 275.786 10.9096L275.987 10.9152L275.241 10.7741C275.81 10.8702 276.752 10.7127 276.262 10.7069C275.202 10.6049 276.534 10.7706 275.739 10.7802C275.241 10.7741 275.387 10.6581 275.403 10.5786L274.512 10.5614C274.545 10.4503 275.098 10.586 274.738 10.4637L273.612 10.544C273.406 10.258 272.39 10.6376 271.887 10.3592C272.691 10.3179 271.816 10.2612 271.945 10.1767L269.969 10.137C269.785 10.0918 270.492 10.0637 270.187 10.0711C269.914 10.0394 269.641 10.0557 269.375 10.1122C269.207 10.0354 267.905 10.0788 267.955 9.89603C266.615 9.73813 267.39 10.1123 266.139 9.97287C265.979 9.85629 267.127 9.96873 266.574 9.84104L265.28 9.84457C265.498 9.71463 265.764 9.66608 266.021 9.70535C262.52 9.46247 260.639 8.83295 257.433 8.9026C256.984 8.76185 257.755 8.82362 258.077 8.74465C255.754 8.86324 254.819 8.37251 252.843 8.34077L252.81 8.45191C250.058 8.04603 246.747 8.18476 243.64 7.969L244.009 8.05146C243.47 8.12431 242.923 8.17293 242.377 8.18153C242.297 8.12324 242.748 7.95185 241.848 7.98249C242.033 8.02772 242.418 8.07862 242.305 8.12346C239.633 7.77587 233.994 7.73683 229.609 7.51705C223.673 7.47762 217.233 7.1598 211.4 7.13133C212.292 7.14048 211.912 7.40195 211.238 7.32689C209.403 6.83479 208.064 7.34942 206.188 7.00826C202.788 7.09647 199.756 6.65865 196.604 6.96999L196.541 6.84012C196.171 6.81369 195.81 6.8195 195.448 6.86532L195.456 6.82553C194.284 6.76043 192.869 6.87261 192.195 6.79755L192.153 6.94048C191.454 6.94477 191.793 6.82623 191.077 6.8941L191.094 6.82252L190.265 6.95125C190.348 6.6974 188.305 6.90396 187.744 6.77604C186.844 6.80668 185.14 6.8947 183.775 6.82416C182.78 6.684 181.785 6.60788 180.781 6.59556C178.7 6.60889 175.735 6.6133 173.093 6.53874L173.139 6.70818L172.448 6.7127C172.457 6.67291 172.368 6.65441 172.465 6.64112C171.929 6.44986 170.874 6.68429 170.313 6.55637C170.665 6.71041 170.794 6.58598 171.188 6.59708C171.758 6.68521 171.218 6.8381 170.447 6.74431L170.464 6.70474L169.941 6.78606C169.886 6.65641 169.405 6.58679 169.35 6.45714C167.076 6.46504 165.531 6.66964 163.186 6.57945C163.429 6.43418 161.499 6.59589 161.968 6.35292C160.561 6.43331 162.198 6.55958 161.562 6.73376C161.168 6.72266 160.758 6.79113 160.687 6.70106C160.872 6.64224 160.367 6.54792 160.688 6.52498L159.748 6.53848C159.66 6.51998 159.869 6.48585 159.966 6.47256C158.053 6.60271 156.562 6.28043 154.849 6.41624C154.719 6.50866 155.531 6.45151 155.41 6.53615C153.681 6.70352 153.877 6.36481 152.269 6.47955L152.6 6.36079C152.076 6.49012 151.53 6.52273 150.992 6.44352C150.841 6.29515 151.717 6.32785 152.127 6.25937C151.541 6.25083 150.046 6.27271 150.503 6.41369C150.052 6.43301 149.603 6.3883 149.154 6.27957C149.146 6.31936 149.812 6.38619 149.402 6.44667C148.438 6.35544 146.96 6.34576 145.788 6.32867C145.796 6.28888 145.716 6.2386 145.821 6.21753C144.879 6.40711 144.979 6.07368 143.677 6.10099" fill="#C12A21"/>
<path opacity="0.26" d="M81.1743 7.08528L81.6484 7.11024C81.6488 7.07277 81.6652 7.02646 81.8827 6.98675L81.1743 7.08528Z" fill="#C12A21"/>
<path opacity="0.26" d="M103.637 6.80718C103.693 6.79947 103.749 6.78216 103.806 6.75524C103.693 6.77067 103.653 6.78852 103.637 6.80718Z" fill="#C12A21"/>
<path opacity="0.26" d="M109.096 6.40844C108.709 6.44359 109.055 6.49384 109.248 6.53893C109.256 6.51028 109.248 6.46181 109.096 6.40844Z" fill="#C12A21"/>
<path opacity="0.26" d="M68.4568 7.84982C68.5375 7.83302 68.5861 7.80534 68.5784 7.76595C68.4652 7.81098 68.4408 7.82971 68.4568 7.84982Z" fill="#C12A21"/>
<path opacity="0.26" d="M33.2858 8.81396L33.4297 8.8369C33.3738 8.82595 33.3338 8.81551 33.2858 8.81396Z" fill="#C12A21"/>
<path opacity="0.26" d="M35.2347 9.03021C35.3714 9.02547 35.5 9.02048 35.6288 8.99727C35.5003 8.99316 35.3716 9.00726 35.2347 9.03021Z" fill="#C12A21"/>
<path opacity="0.26" d="M76.9826 7.58836C77.1033 7.58297 77.232 7.5685 77.3529 7.53507C77.2243 7.53086 77.1036 7.54559 76.9826 7.58836Z" fill="#C12A21"/>
<path opacity="0.26" d="M36.0393 8.92677L36.5294 8.93321C36.5295 8.92427 36.5376 8.91559 36.5378 8.89771L36.0393 8.92677Z" fill="#C12A21"/>
<path opacity="0.26" d="M32.6593 8.80567C32.8522 8.80297 33.1093 8.80216 33.2778 8.81545C33.0773 8.78453 32.8685 8.77841 32.6593 8.80567Z" fill="#C12A21"/>
<path opacity="0.26" d="M55.5487 8.43321L55.6049 8.42561C55.9821 8.35298 55.7415 8.38283 55.5487 8.43321Z" fill="#C12A21"/>
<path opacity="0.26" d="M38.1732 8.54561L38.2373 8.54776L38.382 8.49543L38.1732 8.54561Z" fill="#C12A21"/>
<path opacity="0.26" d="M30.5387 8.81288C30.6188 8.80613 30.699 8.79938 30.7794 8.77384L30.4991 8.75519C30.5309 8.78443 30.5388 8.80348 30.5387 8.81288Z" fill="#C12A21"/>
<path opacity="0.26" d="M48.1752 8.3631C48.038 8.43665 47.9894 8.48389 47.9811 8.51295C48.1499 8.50895 48.2546 8.47341 48.1752 8.3631Z" fill="#C12A21"/>
</g>
</g>
</g>
</g>
</g>
<defs>
<clipPath id="clip0_3_261">
<rect width="280" height="20" fill="white"/>
</clipPath>
</defs>
</svg>
