<svg width="100" height="83" viewBox="0 0 100 83" fill="none" xmlns="http://www.w3.org/2000/svg">
<path d="M35.418 36.6119C36.5097 36.6119 37.5566 37.041 38.3285 37.8047C39.1004 38.5684 39.5341 39.6041 39.5341 40.6842V56.372C39.5338 57.4524 39.0997 58.4885 38.3274 59.2524C37.5551 60.0163 36.5077 60.4454 35.4156 60.4454H4.11843C3.02636 60.4454 1.97901 60.0163 1.20668 59.2524C0.434364 58.4885 0.000317093 57.4524 0 56.372V40.6842C-9.12823e-08 40.1492 0.106544 39.6195 0.313544 39.1252C0.520544 38.631 0.823945 38.182 1.20641 37.8038C1.58887 37.4257 2.0429 37.1257 2.54256 36.9212C3.04222 36.7167 3.5777 36.6116 4.11843 36.6119H35.418Z" fill="#60A16D"/>
<path d="M63.4211 32.3307C63.9623 32.3305 64.4982 32.4359 64.9982 32.6407C65.4983 32.8455 65.9526 33.1458 66.3353 33.5245C66.718 33.9031 67.0215 34.3526 67.2285 34.8473C67.4356 35.342 67.542 35.8722 67.5419 36.4076V52.0931C67.5417 52.6282 67.435 53.1581 67.2278 53.6524C67.0206 54.1467 66.717 54.5958 66.3343 54.9739C65.9516 55.3521 65.4973 55.652 64.9975 55.8564C64.4976 56.0608 63.9619 56.1658 63.4211 56.1653H32.1203C31.5797 56.1655 31.0444 56.0603 30.5449 55.8557C30.0455 55.6511 29.5917 55.3511 29.2094 54.973C28.8272 54.5948 28.524 54.1458 28.3172 53.6517C28.1104 53.1575 28.0041 52.6279 28.0042 52.0931V36.4076C28.0037 35.8725 28.1099 35.3425 28.3165 34.848C28.5231 34.3535 28.8262 33.904 29.2084 33.5254C29.5907 33.1468 30.0446 32.8464 30.5442 32.6414C31.0438 32.4364 31.5794 32.3308 32.1203 32.3307H63.4211Z" fill="#C3443E"/>
<path d="M43.6538 48.0189C43.6539 48.5541 43.5475 49.0842 43.3405 49.5787C43.1335 50.0731 42.83 50.5224 42.4475 50.9008C42.0649 51.2792 41.6106 51.5793 41.1108 51.784C40.6109 51.9886 40.0751 52.0938 39.5342 52.0935H23.681C23.1402 52.0935 22.6048 51.9881 22.1051 51.7833C21.6055 51.5785 21.1516 51.2784 20.7693 50.9C20.3869 50.5216 20.0837 50.0724 19.8768 49.5781C19.67 49.0838 19.5636 48.5539 19.5638 48.0189V17.0491C19.5641 15.9687 19.9981 14.9326 20.7705 14.1687C21.5428 13.4048 22.5902 12.9757 23.6822 12.9757H39.5342C40.075 12.9756 40.6106 13.0808 41.1103 13.2854C41.61 13.49 42.0641 13.79 42.4467 14.1683C42.8292 14.5465 43.1327 14.9956 43.3398 15.4899C43.5469 15.9842 43.6536 16.514 43.6538 17.0491V48.0189Z" fill="#436FAE"/>
<path d="M47.976 75.7238C47.9766 76.2589 47.8707 76.7889 47.6642 77.2835C47.4577 77.7781 47.1547 78.2276 46.7726 78.6064C46.3905 78.9851 45.9367 79.2856 45.4371 79.4907C44.9375 79.6959 44.402 79.8016 43.8611 79.8019H28.0045C27.4633 79.8018 26.9275 79.6962 26.4276 79.4911C25.9277 79.2861 25.4735 78.9857 25.0909 78.607C24.7084 78.2283 24.405 77.7788 24.198 77.2841C23.9911 76.7894 23.8847 76.2592 23.8848 75.7238V44.7576C23.8855 43.677 24.3198 42.641 25.0923 41.8771C25.8648 41.1133 26.9123 40.6842 28.0045 40.6842H43.8611C44.4017 40.6844 44.9369 40.7898 45.4362 40.9946C45.9355 41.1994 46.3892 41.4995 46.7713 41.8778C47.1534 42.256 47.4564 42.705 47.6631 43.1991C47.8698 43.6933 47.9761 44.2228 47.976 44.7576V75.7238Z" fill="#EED861"/>
<path d="M97.539 2.09289C97.3752 1.94145 97.2065 1.79594 97.0296 1.6587L96.9829 1.6232C96.8167 1.49661 96.6481 1.37357 96.4723 1.25999L96.379 1.19611C96.2092 1.08963 96.0382 0.986699 95.8612 0.893235L95.8481 0.887321C95.5657 0.741662 95.2746 0.613253 94.9763 0.502815L94.8675 0.463771C94.6403 0.382138 94.4095 0.311153 94.1727 0.250815L93.9874 0.203489C93.7673 0.153799 93.5437 0.113574 93.3189 0.0851793C93.2472 0.0745315 93.1778 0.0615188 93.1061 0.0532371C92.8124 0.0187511 92.5169 0.000977586 92.2211 0C92.0123 0 91.8054 0.00828065 91.6005 0.024844C91.0793 0.0667361 90.5636 0.160678 90.0615 0.305237C89.7854 0.384162 89.5139 0.478166 89.2483 0.586814C88.7677 0.782998 88.3082 1.02635 87.8767 1.31323L71.2296 11.0868C67.6349 13.1383 66.3924 17.9262 68.7434 21.3501C70.1294 23.811 72.6191 25.1798 75.244 25.1798C76.4876 25.1798 77.8748 24.9077 79.1173 24.0866L84.6492 20.936V75.4767C84.6492 79.7181 87.97 83 92.2558 83C96.4053 83 100 79.7181 100 75.4767V7.70313C100.001 6.651 99.7825 5.60999 99.3591 4.64483C98.9358 3.67968 98.3162 2.81103 97.539 2.09289Z" fill="#1A36A8"/>
</svg>
