<svg width="247" height="21" viewBox="0 0 247 21" fill="none" xmlns="http://www.w3.org/2000/svg">
<g clip-path="url(#clip0_3_247)">
<path d="M209.793 5.37726C209.815 5.35807 209.829 5.32817 209.837 5.29783C209.801 5.3264 209.793 5.35674 209.793 5.37726Z" fill="#F2304B"/>
<path d="M190.688 4.94451L190.908 4.91153C190.837 4.90752 190.759 4.92128 190.688 4.94451Z" fill="#F2304B"/>
<path d="M221.241 5.61434C221.234 5.61956 221.22 5.61903 221.212 5.62425L222.02 5.65448L221.241 5.61434Z" fill="#F2304B"/>
<path d="M149.936 5.12585L150.191 5.12316C150.106 5.12656 150.021 5.12245 149.936 5.12585Z" fill="#F2304B"/>
<path d="M174.085 5.01579C173.979 5.04621 173.872 5.0584 173.759 5.06109C173.872 5.08573 173.986 5.06483 174.085 5.01579Z" fill="#F2304B"/>
<path d="M227.285 7.53454L226.959 7.40082C226.959 7.45808 227.079 7.51289 227.285 7.53454Z" fill="#F2304B"/>
<path d="M238.888 7.17701C238.881 7.16653 238.867 7.1556 238.859 7.14512C238.845 7.16434 238.859 7.17527 238.888 7.17701Z" fill="#F2304B"/>
<path d="M234.359 6.62304C234.26 6.62639 234.146 6.63778 234.033 6.658C234.168 6.65661 234.345 6.66639 234.359 6.62304Z" fill="#F2304B"/>
<path d="M233.876 6.69059L234.033 6.67259C233.948 6.66787 233.877 6.67282 233.876 6.69059Z" fill="#F2304B"/>
<path d="M2.01227 12.7649C1.66418 12.7914 1.31595 12.8644 0.981794 12.9755L2.01227 12.7649Z" fill="#F2304B"/>
<path d="M113.049 6.2648L113.12 6.21952C113.049 6.22512 113.035 6.2441 113.049 6.2648Z" fill="#F2304B"/>
<path d="M1.62374 13.8771L1.37573 13.8731C1.45366 13.8763 1.53868 13.8799 1.62374 13.8771Z" fill="#F2304B"/>
<path d="M221.137 7.85742C220.804 7.94669 220.116 7.80444 220.123 7.90318C220.471 7.89661 220.974 7.98831 221.137 7.85742Z" fill="#F2304B"/>
<path d="M105.332 11.2389L105.112 11.2436C105.219 11.2411 105.282 11.2442 105.332 11.2389Z" fill="#F2304B"/>
<path d="M1.62372 13.864L1.91467 13.8713C1.88635 13.8518 1.85803 13.8322 1.82258 13.8213C1.75153 13.8442 1.68761 13.8586 1.62372 13.864Z" fill="#F2304B"/>
<path d="M74.6404 7.84314L74.6546 7.84396L74.7329 7.8202L74.6404 7.84314Z" fill="#F2304B"/>
<path d="M72.6011 7.71954L73.034 7.68242C72.885 7.67433 72.7431 7.68395 72.6011 7.71954Z" fill="#F2304B"/>
<path d="M0.981725 13.0279L0.405985 13.1537C0.597848 13.1274 0.789772 13.0823 0.981725 13.0279Z" fill="#F2304B"/>
<path d="M50.649 9.00689L50.8476 8.99188C50.7838 8.98845 50.7128 8.9932 50.649 9.00689Z" fill="#F2304B"/>
<path d="M175.637 5.04208L175.814 5.0696C175.835 5.0442 175.821 5.0257 175.637 5.04208Z" fill="#F2304B"/>
<path d="M161.298 8.49882C161.022 8.48315 160.752 8.52258 160.489 8.62623C160.765 8.63279 161.042 8.59376 161.298 8.49882Z" fill="#F2304B"/>
<path d="M158.753 8.62915L158.852 8.6421C158.817 8.64031 158.788 8.63094 158.753 8.62915Z" fill="#F2304B"/>
<path d="M175.051 8.53603L175.051 8.52583C175.044 8.52539 175.044 8.53559 175.044 8.53559L175.051 8.53603Z" fill="#F2304B"/>
<path d="M171.827 8.61199C171.756 8.59056 171.678 8.56873 171.6 8.56445C171.678 8.59505 171.748 8.60771 171.827 8.61199Z" fill="#F2304B"/>
<path d="M150.725 9.19153L150.711 9.18079L150.725 9.19153Z" fill="#F2304B"/>
<path d="M120.335 10.7241C123.383 10.682 127.332 10.5492 130.366 10.6169C131.21 10.4753 132.075 10.4107 132.94 10.4221L133.052 10.6482L133.853 10.5807C134.179 10.6507 133.237 10.6151 133.817 10.7035L134.116 10.5649C134.179 10.6438 136.185 10.6306 134.838 10.784L137.964 10.8076C138.658 10.8182 138.362 10.6251 139.127 10.6873C139.282 10.7565 138.857 10.7304 138.921 10.8093C141.224 10.9891 141.56 10.3963 143.7 10.5135L143.515 10.5398C143.877 10.4801 144.572 10.4976 144.579 10.4634C144.297 10.2365 144.196 10.5774 143.544 10.4443C143.595 10.2532 144.353 10.3495 144.304 10.2023C144.715 10.2346 145.126 10.2186 145.538 10.1681C146.288 10.2987 147.352 10.2223 147.918 10.3791C148.422 10.2429 148.94 10.1626 149.465 10.1448C150.031 10.3016 149.337 10.2841 150.102 10.3532L150.223 10.2481C150.847 10.2693 150.754 10.2997 150.733 10.354C151.194 10.2919 151.662 10.2715 152.13 10.2926L151.661 10.3959C152.285 10.3618 152.533 10.3799 153.405 10.4054C153.39 10.4669 153.043 10.4582 152.788 10.4398C153.262 10.6062 153.589 10.3792 153.844 10.3976C153.774 10.3461 153.171 10.3189 153.463 10.2146C153.895 10.241 154.371 10.0759 154.682 10.2074L154.213 10.3106C154.703 10.2152 155.214 10.1899 155.717 10.2333C155.66 10.2377 155.688 10.2666 155.667 10.2933C156.482 10.2264 157.312 10.2362 158.133 10.3216L157.949 10.3478C158.339 10.317 158.545 10.2227 158.758 10.2323C158.205 10.159 158.354 10.1312 158.305 10.0253C159.034 10.2171 159.405 9.82622 160.595 9.94898C160.581 10.0105 160.297 10.0875 159.964 10.0172C159.622 10.2506 159.225 10.3984 158.799 10.4345C159.246 10.3994 159.778 10.375 159.664 10.4528L159.8 10.2793C160.069 10.2776 160.289 10.2944 160.494 10.2899C160.608 10.1845 159.942 10.1061 160.566 10.0375C161.276 9.98657 160.948 10.2205 161.055 10.1424C162.034 10.0829 161.453 9.96003 162.395 10.0302C162.282 10.0527 162.161 10.0611 162.041 10.0556C162.714 10.1343 163.7 10.0406 163.897 10.2568C163.79 10.3349 163.655 10.3703 163.528 10.3438L163.535 10.3096C162.797 10.4559 164.152 10.2752 163.924 10.4653C163.868 10.3522 164.818 10.395 165.243 10.4211L165.102 10.2904C166.514 9.93266 165.03 10.5428 166.433 10.5163C167.327 10.446 166.093 10.4733 166.64 10.3943C167.206 10.4751 167.78 10.5148 168.354 10.5062C168.602 10.5588 169.105 10.6368 169.154 10.784C169.799 10.8131 170.444 10.8008 171.089 10.7401C170.169 10.6018 170.181 10.8787 169.105 10.6713L169.403 10.5397C170.148 10.5594 171.091 10.5052 171.608 10.5631C171.502 10.5307 171.459 10.4942 171.523 10.4695C172.311 10.3875 173.112 10.3476 173.913 10.3561C174.054 10.4869 173.451 10.4528 173.012 10.4606C173.586 10.521 174.16 10.5469 174.734 10.5383C174.79 10.6513 174.039 10.5208 173.926 10.6262L175.067 10.6085C175.06 10.6151 175.067 10.6224 175.067 10.6293C175.231 10.4432 175.938 10.6617 176.633 10.617C177.59 10.6256 178.534 10.5093 179.442 10.2601C179.69 10.3127 179.761 10.3642 179.661 10.4081C179.258 10.3208 179.328 10.3862 179.186 10.4282C179.746 10.4189 180.412 10.6354 180.099 10.7042C180.986 10.6613 179.781 10.6001 180.32 10.5484L181.532 10.5823C181.384 10.4858 180.958 10.4528 181.582 10.3911C182.114 10.3737 182.369 10.399 183.057 10.4162C182.957 10.46 183.276 10.5642 182.758 10.5478C183.113 10.6052 183.474 10.5939 183.815 10.5125C183.057 10.4093 185.056 10.451 184.489 10.2942L185.247 10.3975C185.077 10.3898 185.056 10.4579 184.801 10.4326C185.02 10.5807 185.417 10.4052 185.68 10.3963C186.02 10.4116 186.36 10.4546 186.7 10.5183C187.012 10.484 187.331 10.5122 187.635 10.6019C187.99 10.5834 187.664 10.5065 187.763 10.4626L188.975 10.5035C189.039 10.5892 189.144 10.8081 188.967 10.8347C189.421 10.7722 189.124 10.6 189.818 10.6244C189.428 10.7726 190.732 10.7623 190.164 10.937C190.879 11.0591 191.602 11.0986 192.311 11.0546C192.695 10.9406 191.638 10.969 191.674 10.8463C193.425 10.8423 193.526 10.4945 194.809 10.58L194.476 10.5373C194.873 10.5345 195.27 10.4903 195.653 10.4039C195.433 10.5529 196.573 10.8461 197.884 10.843C197.991 10.7649 197.148 10.6786 197.361 10.5569L198.233 10.5548C198.297 10.5715 198.197 10.5946 198.091 10.6106C198.871 10.5697 199.55 10.8491 199.778 10.6659L200.577 10.9161L200.259 10.812C200.642 10.7463 201.032 10.7156 201.429 10.7058C201.997 10.6416 202.578 10.6816 203.144 10.8246C202.988 10.7554 202.599 10.5997 203.301 10.5899C203.3 10.8455 204.782 10.7189 204.76 10.8491C205.044 10.855 205.554 10.9471 205.582 10.8448L205.539 11.0017C205.604 10.7836 206.639 10.8233 207.433 10.8039C207.254 11.0998 208.305 10.8086 208.665 11.0874C208.815 10.8869 210.076 11.0474 210.211 10.8808C210.821 10.8876 210.763 11.0784 210.919 11.1476L211.203 11.0775C211.514 11.1814 212.662 11.2262 213.349 11.3125L213.981 11.1475L214.214 11.2341C214.314 11.1902 214.846 11.1796 214.513 11.1024L214.853 11.1247C214.882 10.9326 215.335 11.0843 216.023 11.0186C216.186 11.0535 216.143 11.1 215.994 11.1209C216.334 11.1362 216.192 11.2265 216.383 11.2973C216.135 11.2378 217.618 10.9799 216.69 10.8621C216.627 10.7832 217.166 10.7385 217.506 10.7814L217.711 10.9634L218.116 10.7882C218.512 10.8061 218.909 10.8585 219.299 10.9314C218.859 10.9323 218.326 11.2399 219.46 11.2703C219.056 11.2866 218.659 11.3239 218.268 11.3962C218.502 11.4136 218.623 11.4329 218.254 11.4922C219.14 11.4631 218.552 11.3951 219.424 11.393C219.373 11.5496 219.621 11.6092 220.386 11.6851L219.813 11.5556C219.848 11.5365 219.884 11.5243 219.919 11.5121C219.7 11.4884 219.643 11.4582 219.594 11.4007C219.764 11.4083 220.608 11.2323 220.75 11.3353C219.865 11.0605 222.282 11.1903 221.722 11.0269C221.978 10.9762 222.247 10.9953 222.495 11.0755C221.764 11.1738 223.047 11.2731 222.926 11.3782C223.195 11.342 222.352 11.2418 222.714 11.1959C223.054 11.2113 223.387 11.2608 223.713 11.3584L223.528 11.3847L224.201 11.4772C224.308 11.3991 223.55 11.3165 224.167 11.3029C224.329 11.3448 224.953 11.3246 224.932 11.3858C224.634 11.4829 224.852 11.6378 224.321 11.6415C224.76 11.6475 226.157 11.6828 225.59 11.5122L226.115 11.5358C225.789 11.459 224.868 11.3 225.917 11.3197L225.91 11.3608L226.641 11.2694L226.959 11.3667C226.952 11.3249 227.066 11.2955 227.335 11.3076C227.406 11.3592 227.661 11.3845 227.639 11.4457C228.426 11.4674 228.363 11.3816 228.462 11.3446C228.902 11.3506 229.064 11.3856 228.858 11.473C229.546 11.4902 230.233 11.5489 230.92 11.6351C231.729 11.5956 230.758 11.5932 231.226 11.5038C231.919 11.8045 233.883 11.7135 235.194 11.7242C234.834 11.4662 235.556 11.7129 235.791 11.4955C235.507 11.5587 237.037 11.7314 235.889 11.7556L236.591 11.7596C237.072 11.9125 235.428 11.8177 236.157 12.0233C236.895 11.9391 237.639 11.9036 238.383 11.9233C238.071 12.0819 239.099 11.8934 238.865 12.0694C238.63 12.1072 238.396 12.1174 238.156 12.0996L238.318 12.1415C240.04 12.2537 238.816 11.9566 239.723 11.8732C240.772 11.8929 240.552 12.0418 240.615 12.1207C240.941 12.1561 241.26 12.1567 241.586 12.1161C240.948 12.1979 240.403 11.9661 240.694 11.8686C241.303 12.0136 241.934 12.0144 242.537 11.8758C241.036 11.6146 241.496 11.8288 240.094 11.5514C239.902 11.6049 239.929 11.7789 239.086 11.6787C239.618 11.6129 239.051 11.5804 238.903 11.546C239.065 11.6501 238.314 11.5679 238.059 11.5978C237.825 11.5044 238.563 11.3856 237.706 11.3124L237.542 11.5468C237.209 11.4973 237.684 11.3805 236.968 11.4104C237.352 11.3034 236.849 11.2116 237.82 11.2139C236.666 10.9684 236.055 11.2587 235.154 11.3079C235.246 11.2982 235.253 11.264 235.346 11.2543C235.083 11.2978 234.814 11.3133 234.544 11.2942C233.956 11.2193 235.013 11.2048 234.857 11.1356L233.9 11.1063C233.879 11.0984 233.879 11.0915 233.879 11.0915C233.688 11.1312 233.489 11.1223 233.298 11.0653C233.582 11.0021 233.696 10.9243 233.887 10.8708L232.887 10.9984C232.994 10.9272 232.059 10.8298 232.775 10.7999L231.286 10.7742L231.16 10.6096C230.805 10.6281 230.791 10.6551 231.223 10.6884C230.713 10.6309 228.968 10.8838 229.239 10.5782C228.069 10.6636 227.651 10.5964 226.24 10.6226C227.325 10.5196 224.994 10.3868 226.142 10.3626C225.689 10.3352 225.235 10.3562 224.795 10.44C224.299 10.3554 224.52 10.2065 225.059 10.1686L224.427 10.2162L224.442 10.1823L223.896 10.2543C223.315 10.1522 223.776 10.09 223.174 10.0491L223.045 10.1884L222.635 10.0938C222.79 10.163 222.429 10.1813 221.996 10.1825L222.003 10.1483L221.472 10.1589C221.997 10.0858 220.99 10.1164 221.224 10.0164C220.771 9.99597 220.764 9.99565 219.941 10L220.083 10.1031C219.012 10.1585 220.034 9.95583 219.169 9.92374L219.225 10.0368C217.979 9.81479 217.113 10.0797 216.185 9.93423C216.716 9.92367 216.575 9.79295 216.568 9.82026C215.774 9.83972 214.477 9.76741 213.661 9.88262C213.287 9.66537 212.862 9.5564 212.444 9.56517C211.834 9.5584 211.742 9.56806 211.543 9.65582C210.962 9.65724 210.381 9.61031 209.8 9.52193C209.665 9.61256 209.261 9.48383 208.942 9.55924L208.871 9.50769L208.928 9.62077C207.873 9.3383 207.148 9.70632 206.079 9.46465L206.263 9.43843L205.816 9.46664C205.746 9.41509 205.923 9.38855 205.945 9.32734L203.861 9.24719L204.272 9.34171C203.867 9.39256 203.449 9.39443 203.038 9.36207C203.868 9.21297 202.344 9.33766 202.21 9.20726L202.656 9.17213C202.047 9.16537 202.047 9.16537 202.096 9.27812C201.302 9.29758 201.551 9.0532 200.821 9.15843L201.345 9.17517C201.501 9.24437 201.124 9.32413 200.777 9.31538C200.692 9.29773 200.451 9.23851 200.714 9.22961C200.09 9.25674 199.155 9.18002 198.878 9.21591C198.538 9.17294 198.652 9.09516 198.829 9.06862C197.496 9.13977 198.227 9.03454 196.894 9.09878L196.915 9.03758L196.44 9.12668L195.781 8.97953L196.015 9.06606C195.611 9.08929 195.2 9.08456 194.796 9.05944L195.002 8.972C193.768 8.99928 193.571 8.78311 192.401 8.88924C192.323 8.87191 192.5 8.84537 192.592 8.8288C191.507 8.95258 191.764 8.63945 190.678 8.79776C190.742 8.7661 190.622 8.72613 190.665 8.70042L190.168 8.74712L190.204 8.62439L189.799 8.79957L189.488 8.66809L189.297 8.72162C188.766 8.46971 188.014 8.63614 187.285 8.43745L187.412 8.60207C185.581 8.88569 183.209 8.32274 180.99 8.44374L181.026 8.32101L180.111 8.45246C179.615 8.3472 180.402 8.34814 180.247 8.27894C179.268 8.33154 179.842 8.46103 178.707 8.47897C178.127 8.38369 178.906 8.39122 179.183 8.34842C178.056 8.41503 176.921 8.41915 175.787 8.3542C175.773 8.36737 175.723 8.39276 175.766 8.40159C175.057 8.44561 174.114 8.37547 173.328 8.36762C173.342 8.313 173.541 8.30123 173.732 8.29604C173.427 8.26158 173.123 8.26165 172.825 8.28967L173.116 8.18535C172.485 8.21907 171.847 8.1903 171.217 8.09969C171.287 8.15124 171.265 8.24698 170.741 8.23024C170.451 8.03064 169.323 8.29065 168.487 8.17005C168.587 8.12617 169.196 8.12603 169.026 8.11836C168.636 8.08696 168.246 8.11774 167.863 8.19718L167.977 8.11941L166.034 8.19761C165.745 7.99801 164.198 8.19771 164.327 8.05841C163.632 8.04091 164.914 8.15401 164.035 8.16273C163.802 8.07621 163.241 8.19601 163.277 8.06637L163.37 8.0498L162.753 8.04963L163.136 7.92874C162.612 7.94653 162.221 8.0671 162.199 8.16284C161.717 8.14801 161.236 8.10556 160.754 8.02166L160.938 7.99543C159.535 8.02885 158.601 7.62748 157.501 7.82661C157.416 7.80896 157.431 7.77506 157.601 7.78273L156.729 7.77105L156.935 7.67671L155.502 7.80555L155.517 7.74402C154.567 7.7081 153.086 7.72419 151.859 7.73106L152.044 7.70484C150.711 7.7898 150.754 7.63285 149.783 7.68577C149.811 7.67323 149.846 7.66101 149.882 7.66261L149.003 7.65752L149.195 7.59707C148.705 7.61646 148.224 7.58782 147.735 7.51742C147.359 7.54883 146.99 7.6151 146.635 7.71654C145.678 7.71484 146.402 7.63001 145.806 7.57554C145.225 7.61149 144.644 7.61982 144.055 7.6002L144.07 7.53867C143.63 7.54649 143.361 7.5896 142.751 7.58974L142.935 7.56352C141.942 7.69145 141.689 7.36912 140.915 7.6382C140.497 7.58481 139.703 7.61808 139.739 7.48844C138.498 7.56375 137.534 7.58936 136.307 7.63767C136.103 7.42809 136.045 7.64657 135.294 7.52289L135.35 7.63597C133.606 7.64023 131.595 7.34915 129.674 7.37996L129.617 7.26688L129.234 7.38777C127.164 7.32207 124.485 7.25652 122.834 7.24421C122.103 7.34944 121.365 7.39908 120.621 7.38625L120.713 7.36968C119.225 7.42689 117.644 7.47304 116.014 7.39953C116.113 7.35566 115.95 7.32067 116.128 7.28722C115.695 7.35061 115.255 7.35152 114.823 7.28367L115.234 7.37128C114.78 7.44753 114.312 7.41953 113.866 7.28887L113.135 7.40791C113.086 7.39877 113.008 7.38144 113.001 7.3604L112.873 7.41681L112.477 7.26767C111.988 7.28706 111.505 7.35513 111.03 7.47186C110.959 7.42031 110.272 7.3824 110.804 7.35802L108.124 7.30628L108.542 7.35967C108.598 7.47275 107.797 7.54024 107.379 7.48684C107.918 7.40062 107.415 7.32958 107.182 7.24305C106.82 7.30273 107.5 7.34032 107.316 7.40108C106.769 7.48008 106.209 7.49627 105.65 7.45721L105.919 7.4141C105.302 7.45536 105.006 7.25544 104.396 7.26249C103.85 7.3484 103.439 7.2677 103.558 7.45963C102.764 7.49981 103.247 7.32814 102.992 7.30973C102.453 7.38904 101.9 7.36412 101.362 7.24312C100.935 7.52787 99.2147 7.13937 99.0646 7.37441L98.406 7.24108C98.3915 7.30261 98.2632 7.44881 97.7385 7.47351C97.2356 7.40247 97.3496 7.29016 97.201 7.22819L96.8737 7.46215C93.99 7.20774 90.2108 7.37584 87.0504 7.16422C85.6466 7.21145 83.8809 7.32527 82.2436 7.29289L82.421 7.25943L80.7909 7.19974L81.9812 7.30178C81.6267 7.32725 81.35 7.37695 81.0097 7.37542C78.8767 7.23777 76.7503 7.21096 74.6232 7.29467C73.2111 7.56952 73.6675 7.05811 72.3054 7.25923C72.4189 7.23671 72.4617 7.19718 72.5682 7.16744C71.1003 7.26015 70.3061 7.30724 68.8379 7.46902C68.9953 7.19976 67.8809 7.47422 68.0022 7.3346L67.8811 7.44659C67.5483 7.38322 66.7757 7.3622 66.8824 7.2841L66.2367 7.42079L66.1734 7.3074C65.3086 7.30295 63.465 7.40634 62.9984 7.17803C60.8708 7.35844 57.4968 7.32372 54.8174 7.2927C54.2357 7.37701 53.6471 7.41956 53.0518 7.40652L52.3932 7.27319C51.783 7.37694 51.1661 7.42512 50.5423 7.41081C50.5424 7.39699 50.5708 7.38445 50.6063 7.37915C49.9968 7.35857 49.387 7.39325 48.7841 7.46969C48.0894 7.46599 47.4163 7.40109 47.6225 7.27913C47.5647 7.4976 46.1552 7.26132 46.1552 7.26132C46.1552 7.26132 37.2805 7.19962 27.3203 7.31696C17.353 7.44089 6.31427 7.7514 2.00775 8.46225C1.68107 8.57878 0.794399 8.69079 1.16242 8.80411C0.488617 8.87736 0.12088 8.70878 0.0139652 8.82141C0.956647 8.84319 -0.178926 9.10979 0.742136 9.19969L0.188918 9.25765C0.0963565 9.33638 0.919671 9.13861 0.819699 9.27919L0.934203 9.07018C1.232 9.05597 1.52951 9.09702 1.81972 9.1792C2.31714 8.946 2.87766 8.84692 3.44444 8.90703L3.17499 8.92251C3.96198 8.89582 3.66346 9.04817 3.83344 9.07657L3.65623 9.07548L4.32918 9.16801C3.82618 9.11078 3.00293 9.29474 3.43546 9.27279C4.37807 9.3084 3.18759 9.22707 3.88956 9.18964C4.32918 9.16801 4.20809 9.28 4.19355 9.34844L4.97345 9.32143C4.95169 9.41717 4.45595 9.32573 4.78156 9.41641L5.76043 9.29474C5.95769 9.53163 6.82445 9.15619 7.29116 9.37759C6.58195 9.44233 7.36163 9.45677 7.24781 9.53454L8.98474 9.49542C9.14764 9.52349 8.53064 9.57858 8.793 9.56277C9.03392 9.58055 9.27506 9.55688 9.50224 9.49113C9.65787 9.55341 10.7996 9.46673 10.7633 9.6309C11.9467 9.71881 11.2464 9.41779 12.3519 9.49528C12.5002 9.59178 11.4798 9.53195 11.9755 9.62339L13.1242 9.56465C12.9393 9.68067 12.7122 9.73261 12.4854 9.70857C15.5757 9.78575 17.2673 10.2835 20.0753 10.1199C20.4788 10.228 19.7913 10.2039 19.5145 10.2812C21.5498 10.1035 22.3984 10.5011 24.1353 10.462L24.1642 10.3665C26.6013 10.6353 29.5087 10.4348 32.2586 10.5243L31.9258 10.4609C32.3941 10.3784 32.8764 10.3311 33.3514 10.3041C33.4221 10.3488 33.0385 10.5111 33.8256 10.4637C33.6556 10.4284 33.3226 10.3996 33.4221 10.3488C35.7886 10.5661 40.7512 10.472 44.6211 10.5637C49.8461 10.447 55.5304 10.6066 60.663 10.5202C59.8832 10.5334 60.2034 10.2923 60.7915 10.3464C62.427 10.738 63.5849 10.2651 65.2494 10.5267C68.2345 10.3781 70.9193 10.7272 73.6926 10.4101L73.7487 10.5231C74.0747 10.5378 74.3938 10.5246 74.713 10.4837L74.7057 10.5179C75.7405 10.5577 76.9816 10.4409 77.5768 10.4954L77.6058 10.3655C78.2155 10.3515 77.9314 10.463 78.5556 10.3876L78.5411 10.4491L79.2647 10.3297C79.2069 10.5482 80.9943 10.3455 81.49 10.4439C82.2841 10.4037 83.7803 10.3054 84.9852 10.3459C85.8636 10.4546 86.7495 10.5084 87.6284 10.5135C89.4575 10.4854 92.0734 10.4514 94.4053 10.4944L94.3564 10.354L94.9661 10.3469C94.9588 10.3812 95.0438 10.3919 94.9516 10.4085C95.4327 10.5753 96.3554 10.3612 96.844 10.4593C96.5328 10.3278 96.4188 10.4401 96.0714 10.4382C95.5685 10.3672 96.0442 10.2297 96.7172 10.3016L96.7029 10.3355L97.1569 10.2592C97.2131 10.3723 97.631 10.4257 97.6943 10.5322C99.6934 10.5049 101.055 10.3176 103.118 10.3691C102.912 10.4911 104.6 10.3392 104.194 10.5559C105.435 10.4806 103.983 10.3805 104.544 10.2262C104.891 10.2349 105.253 10.1752 105.316 10.2541C105.153 10.3089 105.606 10.3846 105.322 10.4064L106.152 10.3954C106.23 10.4127 106.052 10.4393 105.96 10.4559C107.648 10.3385 108.958 10.6118 110.468 10.4864C110.575 10.4084 109.866 10.4593 109.973 10.3812C111.49 10.2286 111.326 10.5251 112.744 10.4233L112.453 10.5276C112.907 10.4099 113.389 10.3833 113.864 10.453C114.005 10.5838 113.225 10.5555 112.864 10.6152C113.381 10.6247 114.693 10.594 114.289 10.4791C114.686 10.4625 115.083 10.5011 115.479 10.5881C115.487 10.5539 114.899 10.4997 115.261 10.44C116.111 10.5129 117.415 10.5165 118.45 10.5355C118.443 10.5697 118.513 10.6144 118.428 10.6312C119.265 10.4756 119.186 10.7621 120.335 10.7241Z" fill="#F2304B"/>
<path d="M175.476 8.5755L175.057 8.54287C175.057 8.57908 175.043 8.62354 174.844 8.65762L175.476 8.5755Z" fill="#F2304B"/>
<path d="M155.668 8.87076C155.618 8.87743 155.568 8.89372 155.518 8.91962C155.618 8.90628 155.646 8.88873 155.668 8.87076Z" fill="#F2304B"/>
<path d="M150.859 9.32563C151.2 9.2878 150.895 9.24055 150.724 9.19164C150.717 9.22997 150.724 9.26915 150.859 9.32563Z" fill="#F2304B"/>
<path d="M186.687 7.85866C186.615 7.87425 186.572 7.90153 186.579 7.93185C186.679 7.90803 186.701 7.87945 186.687 7.85866Z" fill="#F2304B"/>
<path d="M217.701 7.82768L217.581 7.79327C217.623 7.81406 217.659 7.82526 217.701 7.82768Z" fill="#F2304B"/>
<path d="M215.983 7.53211C215.862 7.52588 215.749 7.53633 215.635 7.54677C215.756 7.553 215.869 7.55071 215.983 7.53211Z" fill="#F2304B"/>
<path d="M179.173 8.06354C179.067 8.06658 178.953 8.07824 178.847 8.10833C178.96 8.1147 179.067 8.09363 179.173 8.06354Z" fill="#F2304B"/>
<path d="M215.28 7.60752L214.848 7.57829C214.841 7.58571 214.841 7.59347 214.841 7.609L215.28 7.60752Z" fill="#F2304B"/>
<path d="M218.246 7.85937C218.076 7.85166 217.85 7.84139 217.701 7.8277C217.885 7.86384 218.069 7.87219 218.246 7.85937Z" fill="#F2304B"/>
<path d="M198.07 7.50932L198.02 7.51567C197.694 7.57052 197.9 7.54552 198.07 7.50932Z" fill="#F2304B"/>
<path d="M213.385 7.92294L213.328 7.91041L213.2 7.94941L213.385 7.92294Z" fill="#F2304B"/>
<path d="M220.116 7.93696C220.045 7.93293 219.974 7.94719 219.903 7.96146L220.151 7.99386C220.123 7.9648 220.123 7.94651 220.116 7.93696Z" fill="#F2304B"/>
<path d="M204.565 7.7219C204.687 7.65928 204.73 7.61188 204.737 7.58231C204.594 7.58362 204.501 7.60797 204.565 7.7219Z" fill="#F2304B"/>
<g opacity="0.26">
<g opacity="0.26">
<g opacity="0.26">
<g opacity="0.26">
<path opacity="0.26" d="M209.793 5.37726C209.815 5.35812 209.829 5.32826 209.837 5.29795C209.801 5.32644 209.793 5.35675 209.793 5.37726Z" fill="#F2304B"/>
<path opacity="0.26" d="M190.688 4.94435L190.908 4.91181C190.837 4.90773 190.759 4.92132 190.688 4.94435Z" fill="#F2304B"/>
<path opacity="0.26" d="M221.241 5.61441C221.234 5.61954 221.22 5.619 221.212 5.62413L222.02 5.65454L221.241 5.61441Z" fill="#F2304B"/>
<path opacity="0.26" d="M149.936 5.12576L150.191 5.12337C150.106 5.12664 150.021 5.12249 149.936 5.12576Z" fill="#F2304B"/>
<path opacity="0.26" d="M174.085 5.01619C173.979 5.04632 173.872 5.05832 173.759 5.06084C173.872 5.08552 173.986 5.06486 174.085 5.01619Z" fill="#F2304B"/>
<path opacity="0.26" d="M227.285 7.5346L226.959 7.40088C226.959 7.45795 227.079 7.51275 227.285 7.5346Z" fill="#F2304B"/>
<path opacity="0.26" d="M238.888 7.17707C238.881 7.16659 238.867 7.15567 238.859 7.14519C238.845 7.16436 238.859 7.17529 238.888 7.17707Z" fill="#F2304B"/>
<path opacity="0.26" d="M234.359 6.6234C234.26 6.62661 234.146 6.63779 234.033 6.65775C234.168 6.65654 234.345 6.66648 234.359 6.6234Z" fill="#F2304B"/>
<path opacity="0.26" d="M233.876 6.6905L234.033 6.6728C233.947 6.668 233.876 6.67283 233.876 6.6905Z" fill="#F2304B"/>
<path opacity="0.26" d="M2.01223 12.7661C1.66415 12.792 1.31592 12.8643 0.981759 12.9745L2.01223 12.7661Z" fill="#F2304B"/>
<path opacity="0.26" d="M113.049 6.26477L113.12 6.21968C113.049 6.22517 113.035 6.24409 113.049 6.26477Z" fill="#F2304B"/>
<path opacity="0.26" d="M1.62368 13.8773L1.37566 13.873C1.4536 13.8763 1.53862 13.8799 1.62368 13.8773Z" fill="#F2304B"/>
<path opacity="0.26" d="M221.137 7.85827C220.804 7.94643 220.116 7.8045 220.123 7.90245C220.471 7.89635 220.974 7.98792 221.137 7.85827Z" fill="#F2304B"/>
<path opacity="0.26" d="M105.332 11.2391L105.112 11.2435C105.219 11.2411 105.282 11.2443 105.332 11.2391Z" fill="#F2304B"/>
<path opacity="0.26" d="M1.62371 13.8638L1.91466 13.8714C1.88634 13.8519 1.85802 13.8325 1.82258 13.8215C1.75153 13.8443 1.6876 13.8585 1.62371 13.8638Z" fill="#F2304B"/>
<path opacity="0.26" d="M74.6404 7.8431L74.6546 7.84394L74.7328 7.82036L74.6404 7.8431Z" fill="#F2304B"/>
<path opacity="0.26" d="M72.601 7.71921L73.0339 7.68287C72.885 7.67465 72.743 7.68403 72.601 7.71921Z" fill="#F2304B"/>
<path opacity="0.26" d="M0.981704 13.0286L0.405964 13.1531C0.597825 13.1272 0.789749 13.0826 0.981704 13.0286Z" fill="#F2304B"/>
<path opacity="0.26" d="M50.649 9.00678L50.8477 8.99211C50.7838 8.98863 50.7129 8.99325 50.649 9.00678Z" fill="#F2304B"/>
<path opacity="0.26" d="M175.637 5.04206L175.814 5.06965C175.835 5.04443 175.821 5.02602 175.637 5.04206Z" fill="#F2304B"/>
<path opacity="0.26" d="M161.298 8.49971C161.022 8.48375 160.752 8.52265 160.489 8.62547C160.765 8.63235 161.042 8.59387 161.298 8.49971Z" fill="#F2304B"/>
<path opacity="0.26" d="M158.753 8.62921L158.852 8.64216C158.817 8.64035 158.788 8.63103 158.753 8.62921Z" fill="#F2304B"/>
<path opacity="0.26" d="M175.051 8.53609L175.051 8.5259C175.044 8.52545 175.044 8.53564 175.044 8.53564L175.051 8.53609Z" fill="#F2304B"/>
<path opacity="0.26" d="M171.827 8.61205C171.756 8.59066 171.678 8.56887 171.6 8.56451C171.678 8.59502 171.749 8.6077 171.827 8.61205Z" fill="#F2304B"/>
<path opacity="0.26" d="M150.725 9.19159L150.711 9.18085L150.725 9.19159Z" fill="#F2304B"/>
<path opacity="0.26" d="M120.334 10.7163C123.383 10.6778 127.332 10.5507 130.365 10.6207C131.21 10.4817 132.075 10.4188 132.94 10.4309L133.052 10.6544L133.853 10.5886C134.179 10.658 133.236 10.6219 133.817 10.7098L134.116 10.5732C134.179 10.6512 136.185 10.6402 134.838 10.7904L137.964 10.8168C138.658 10.828 138.361 10.6371 139.127 10.6992C139.282 10.7677 138.857 10.7415 138.92 10.8195C141.223 10.9995 141.56 10.4143 143.7 10.5323L143.515 10.558C143.877 10.4994 144.572 10.5174 144.579 10.4837C144.297 10.2592 144.196 10.5958 143.544 10.4638C143.595 10.275 144.353 10.371 144.304 10.2254C144.715 10.2578 145.126 10.2424 145.538 10.1929C146.288 10.3227 147.352 10.2483 147.918 10.4038C148.422 10.2698 148.94 10.1911 149.465 10.174C150.031 10.3295 149.337 10.3115 150.102 10.3805L150.223 10.2768C150.847 10.2984 150.754 10.3283 150.733 10.3819C151.194 10.3211 151.662 10.3014 152.129 10.3228L151.661 10.4242C152.285 10.3913 152.533 10.4094 153.405 10.4355C153.39 10.4962 153.043 10.4872 152.788 10.4688C153.262 10.6337 153.589 10.4098 153.844 10.4282C153.774 10.3772 153.171 10.3498 153.463 10.247C153.895 10.2735 154.371 10.111 154.682 10.2412L154.213 10.3427C154.703 10.249 155.214 10.2245 155.717 10.2679C155.66 10.2721 155.688 10.3007 155.667 10.327C156.482 10.2618 157.312 10.2723 158.133 10.3575L157.949 10.3832C158.339 10.3532 158.545 10.2603 158.758 10.27C158.205 10.197 158.354 10.1697 158.305 10.0651C159.034 10.2553 159.405 9.86951 160.595 9.992C160.581 10.0528 160.297 10.1285 159.964 10.0588C159.622 10.2889 159.225 10.4345 158.799 10.4698C159.246 10.4355 159.778 10.412 159.664 10.4887L159.8 10.3174C160.069 10.3161 160.289 10.3329 160.494 10.3286C160.608 10.2246 159.942 10.1465 160.566 10.0794C161.276 10.0298 160.948 10.2606 161.055 10.1836C162.034 10.1258 161.453 10.0038 162.395 10.074C162.282 10.0962 162.161 10.1043 162.041 10.0988C162.714 10.1773 163.7 10.0857 163.897 10.2994C163.79 10.3765 163.655 10.4113 163.528 10.385L163.535 10.3512C162.797 10.495 164.152 10.3179 163.924 10.5054C163.868 10.3937 164.818 10.4369 165.243 10.4631L165.102 10.3339C166.514 9.98196 165.03 10.5831 166.433 10.5583C167.327 10.4899 166.093 10.5155 166.64 10.4381C167.206 10.5185 167.78 10.5583 168.354 10.5504C168.602 10.6026 169.105 10.6801 169.154 10.8256C169.799 10.855 170.444 10.8435 171.089 10.7842C170.169 10.6467 170.181 10.9202 169.105 10.7142L169.403 10.5845C170.148 10.6048 171.091 10.5522 171.608 10.6099C171.502 10.5778 171.459 10.5417 171.523 10.5173C172.31 10.4372 173.112 10.3986 173.913 10.4078C174.054 10.5371 173.451 10.5028 173.012 10.5101C173.586 10.5704 174.16 10.5965 174.734 10.5886C174.79 10.7003 174.039 10.5706 173.925 10.6746L175.067 10.6584C175.06 10.6649 175.067 10.672 175.067 10.6788C175.231 10.4952 175.938 10.7117 176.633 10.6683C177.59 10.6778 178.534 10.5639 179.442 10.3186C179.69 10.3709 179.761 10.4219 179.661 10.4651C179.258 10.3785 179.328 10.4431 179.186 10.4844C179.746 10.4758 180.412 10.6904 180.099 10.758C180.986 10.7165 179.781 10.6548 180.32 10.6043L181.532 10.6391C181.383 10.5436 180.958 10.5106 181.582 10.4503C182.114 10.4336 182.369 10.4589 183.057 10.4765C182.957 10.5198 183.276 10.623 182.758 10.6062C183.112 10.6633 183.474 10.6525 183.815 10.5725C183.057 10.4697 185.056 10.513 184.489 10.3576L185.247 10.4603C185.077 10.4526 185.056 10.5199 184.801 10.4946C185.019 10.6411 185.417 10.4681 185.68 10.4596C186.02 10.4751 186.36 10.5179 186.7 10.5811C187.012 10.5476 187.331 10.5758 187.635 10.6647C187.99 10.6467 187.664 10.5705 187.763 10.5272L188.975 10.5688C189.039 10.6536 189.144 10.87 188.967 10.896C189.421 10.8348 189.124 10.6643 189.818 10.6891C189.428 10.8351 190.732 10.8263 190.164 10.9983C190.879 11.1197 191.602 11.1594 192.311 11.1167C192.695 11.0045 191.638 11.0314 191.674 10.9102C193.425 10.9081 193.526 10.5647 194.809 10.6504L194.476 10.608C194.873 10.6056 195.27 10.5623 195.653 10.4774C195.433 10.6243 196.573 10.9151 197.884 10.9134C197.991 10.8364 197.148 10.7502 197.361 10.6303L198.233 10.629C198.297 10.6456 198.197 10.6684 198.091 10.684C198.871 10.6445 199.55 10.9211 199.778 10.7404L200.577 10.9884L200.259 10.8852C200.642 10.8207 201.032 10.7907 201.429 10.7815C201.997 10.7187 202.578 10.7588 203.144 10.9006C202.988 10.8321 202.599 10.6779 203.301 10.6689C203.3 10.9214 204.782 10.7978 204.76 10.9265C205.044 10.9326 205.553 11.0241 205.582 10.923L205.539 11.078C205.604 10.8626 206.639 10.9029 207.433 10.8845C207.254 11.1767 208.305 10.8901 208.665 11.1659C208.815 10.968 210.076 11.1278 210.211 10.9634C210.821 10.9707 210.763 11.1591 210.919 11.2276L211.202 11.1587C211.514 11.2616 212.662 11.3071 213.349 11.393L213.981 11.2307L214.214 11.3164C214.314 11.2732 214.846 11.2633 214.513 11.1867L214.853 11.209C214.882 11.0193 215.335 11.1696 216.023 11.1054C216.186 11.1401 216.143 11.186 215.994 11.2065C216.334 11.222 216.192 11.311 216.383 11.3811C216.135 11.3221 217.618 11.0689 216.69 10.9516C216.627 10.8736 217.166 10.8299 217.506 10.8727L217.71 11.0526L218.115 10.88C218.512 10.8981 218.909 10.9503 219.299 11.0227C218.859 11.0231 218.326 11.3264 219.46 11.3576C219.056 11.3733 218.658 11.4098 218.268 11.4807C218.502 11.4982 218.622 11.5173 218.254 11.5756C219.14 11.5477 218.552 11.48 219.424 11.4788C219.373 11.6334 219.621 11.6925 220.386 11.7683L219.813 11.6398C219.848 11.621 219.884 11.6089 219.919 11.5969C219.7 11.5732 219.643 11.5434 219.594 11.4865C219.764 11.4943 220.608 11.3212 220.75 11.4232C219.865 11.1508 222.281 11.2814 221.722 11.1195C221.978 11.0697 222.247 11.0888 222.495 11.1683C221.764 11.2647 223.047 11.3641 222.926 11.4678C223.195 11.4323 222.352 11.3324 222.714 11.2875C223.054 11.303 223.387 11.3523 223.713 11.449L223.528 11.4747L224.201 11.5668C224.308 11.4898 223.55 11.4075 224.166 11.3946C224.329 11.4362 224.953 11.4168 224.932 11.4773C224.633 11.5729 224.852 11.7262 224.321 11.7292C224.76 11.7356 226.156 11.772 225.59 11.6028L226.115 11.6267C225.789 11.5505 224.868 11.3925 225.917 11.413L225.91 11.4536L226.641 11.3641L226.959 11.4605C226.952 11.4192 227.066 11.3903 227.335 11.4026C227.406 11.4536 227.661 11.4788 227.639 11.5393C228.426 11.5615 228.363 11.4767 228.462 11.4403C228.901 11.4467 229.064 11.4814 228.858 11.5675C229.546 11.5852 230.233 11.6438 230.92 11.7297C231.729 11.6915 230.757 11.6882 231.226 11.6003C231.919 11.8981 233.883 11.8102 235.194 11.8222C234.834 11.5669 235.556 11.8113 235.791 11.5968C235.507 11.659 237.037 11.8311 235.889 11.8538L236.591 11.8585C237.072 12.0101 235.428 11.9147 236.157 12.1185C236.894 12.0361 237.639 12.0018 238.383 12.0221C238.07 12.1784 239.099 11.9933 238.864 12.1668C238.63 12.204 238.396 12.2138 238.155 12.196L238.318 12.2375C240.04 12.3501 238.815 12.0554 239.723 11.974C240.772 11.9945 240.552 12.1414 240.615 12.2193C240.941 12.2547 241.26 12.2555 241.586 12.2158C240.948 12.2959 240.403 12.0664 240.694 11.9704C241.303 12.1142 241.934 12.1157 242.537 11.9794C241.036 11.7199 241.496 11.9319 240.093 11.6564C239.902 11.7091 239.929 11.881 239.086 11.7811C239.618 11.7167 239.051 11.684 238.903 11.6499C239.065 11.7529 238.314 11.6709 238.059 11.7002C237.825 11.6077 238.563 11.4912 237.706 11.418L237.542 11.6493C237.209 11.6 237.684 11.4852 236.968 11.514C237.351 11.4086 236.849 11.3175 237.82 11.3208C236.666 11.0771 236.054 11.3632 235.154 11.4109C235.246 11.4014 235.253 11.3676 235.346 11.3582C235.083 11.4008 234.814 11.4158 234.544 11.3967C233.956 11.3222 235.013 11.3089 234.857 11.2404L233.9 11.2104C233.879 11.2026 233.879 11.1958 233.879 11.1958C233.688 11.2348 233.489 11.2258 233.298 11.1693C233.582 11.1072 233.696 11.0305 233.887 10.9778L232.887 11.1028C232.994 11.0326 232.059 10.9354 232.775 10.9066L231.286 10.8797L231.16 10.717C230.805 10.7349 230.791 10.7616 231.223 10.7949C230.713 10.7376 228.968 10.9856 229.239 10.684C228.069 10.7672 227.651 10.7004 226.24 10.7248C227.325 10.6241 224.994 10.4906 226.142 10.4678C225.689 10.4404 225.235 10.4606 224.795 10.5429C224.299 10.4589 224.52 10.312 225.059 10.2751L224.427 10.3215L224.442 10.288L223.896 10.3586C223.315 10.2571 223.776 10.1962 223.174 10.1551L223.045 10.2926L222.635 10.1988C222.79 10.2673 222.429 10.285 221.996 10.2857L222.004 10.2519L221.472 10.2618C221.997 10.1902 220.99 10.2194 221.224 10.1209C220.771 10.1002 220.764 10.0999 219.941 10.1034L220.083 10.2053C219.012 10.2589 220.034 10.0598 219.169 10.0272L219.225 10.139C217.979 9.91838 217.113 10.1792 216.185 10.0345C216.717 10.0246 216.575 9.89536 216.568 9.92233C215.774 9.94074 214.477 9.86799 213.662 9.98094C213.287 9.76597 212.862 9.65789 212.444 9.66613C211.834 9.65882 211.742 9.66827 211.543 9.75474C210.962 9.75555 210.381 9.70859 209.8 9.62071C209.665 9.71009 209.262 9.58251 208.942 9.65667L208.872 9.60569L208.928 9.71743C207.873 9.43734 207.148 9.80011 206.079 9.5603L206.263 9.53459L205.817 9.562C205.746 9.51101 205.923 9.48497 205.945 9.42454L203.861 9.34322L204.272 9.43701C203.868 9.48682 203.449 9.48824 203.038 9.45586C203.869 9.30943 202.344 9.43103 202.21 9.30208L202.657 9.26785C202.047 9.26054 202.047 9.26054 202.096 9.37196C201.302 9.39037 201.551 9.14924 200.821 9.25242L201.345 9.2695C201.501 9.33801 201.125 9.41641 200.777 9.40741C200.692 9.38989 200.452 9.33115 200.714 9.32263C200.09 9.34879 199.155 9.27204 198.878 9.3072C198.538 9.26441 198.652 9.18771 198.829 9.16167C197.496 9.23058 198.227 9.12739 196.894 9.18948L196.915 9.12904L196.44 9.21657L195.782 9.07054L196.015 9.15625C195.611 9.17878 195.2 9.17369 194.796 9.14846L195.002 9.06231C193.768 9.08798 193.571 8.87425 192.401 8.97788C192.323 8.96069 192.5 8.93465 192.592 8.91838C191.507 9.03953 191.764 8.73049 190.679 8.88576C190.743 8.85455 190.622 8.81494 190.665 8.78959L190.169 8.83521L190.205 8.71401L189.8 8.88664L189.488 8.75644L189.297 8.80913C188.766 8.55975 188.014 8.72338 187.285 8.52636L187.412 8.6891C185.581 8.96738 183.21 8.40888 180.99 8.52611L181.026 8.40492L180.111 8.53382C179.616 8.42934 180.402 8.43108 180.247 8.36257C179.268 8.41351 179.842 8.54202 178.708 8.55857C178.127 8.46386 178.907 8.47209 179.183 8.43011C178.056 8.49474 176.922 8.49764 175.788 8.43232C175.773 8.44532 175.724 8.47035 175.766 8.47911C175.057 8.52186 174.115 8.45162 173.328 8.44306C173.342 8.38912 173.541 8.3777 173.732 8.37277C173.428 8.33841 173.123 8.33817 172.825 8.36554L173.116 8.2628C172.485 8.29546 171.847 8.26639 171.217 8.17624C171.287 8.22723 171.266 8.32178 170.741 8.3047C170.452 8.10724 169.323 8.36291 168.487 8.24293C168.587 8.19969 169.196 8.20018 169.026 8.19242C168.637 8.16101 168.247 8.19101 167.863 8.26909L167.977 8.19238L166.034 8.26763C165.745 8.07017 164.199 8.26585 164.327 8.12839C163.632 8.11038 164.915 8.22342 164.036 8.23113C163.802 8.14542 163.242 8.26319 163.278 8.13517L163.37 8.1189L162.753 8.11809L163.137 7.99908C162.612 8.01611 162.221 8.1348 162.2 8.22935C161.718 8.21421 161.236 8.17178 160.754 8.08841L160.939 8.0627C159.535 8.09427 158.602 7.69685 157.502 7.89241C157.417 7.87488 157.431 7.84142 157.601 7.84917L156.729 7.83673L156.935 7.74376L155.503 7.86955L155.517 7.80879C154.568 7.77234 153.086 7.78671 151.86 7.79224L152.044 7.76652C150.711 7.84908 150.754 7.69409 149.783 7.74536C149.811 7.73301 149.847 7.72098 149.882 7.72259L149.003 7.71666L149.195 7.65715C148.706 7.6758 148.224 7.64701 147.735 7.57697C147.359 7.60761 146.99 7.67269 146.635 7.77253C145.678 7.76986 146.402 7.68682 145.807 7.6324C145.225 7.66732 144.644 7.67495 144.056 7.65496L144.07 7.5942C143.631 7.60147 143.361 7.64378 142.751 7.64329L142.936 7.61758C141.943 7.74293 141.689 7.42428 140.915 7.68927C140.497 7.6361 139.703 7.66816 139.739 7.54014C138.498 7.61325 137.534 7.63755 136.308 7.68402C136.103 7.47679 136.045 7.69253 135.294 7.5696L135.351 7.68135C133.607 7.68377 131.595 7.39418 129.674 7.42264L129.618 7.31089L129.234 7.42991C127.165 7.36289 124.486 7.29538 122.834 7.28153C122.103 7.38472 121.366 7.433 120.622 7.41956L120.714 7.40329C119.225 7.45827 117.644 7.50223 116.014 7.42795C116.113 7.38471 115.95 7.34999 116.128 7.31713C115.695 7.3793 115.256 7.37974 114.824 7.31228L115.234 7.39924C114.78 7.47409 114.312 7.44595 113.867 7.31644L113.136 7.43327C113.086 7.42419 113.008 7.40699 113.001 7.3862L112.873 7.44179L112.477 7.29407C111.988 7.31272 111.506 7.37946 111.03 7.49427C110.96 7.44328 110.272 7.40513 110.804 7.38159L108.125 7.32773L108.543 7.3809C108.599 7.49265 107.797 7.5585 107.379 7.50533C107.919 7.42071 107.416 7.35002 107.182 7.26431C106.82 7.32289 107.501 7.36072 107.316 7.42055C106.77 7.49802 106.21 7.51344 105.65 7.47428L105.919 7.43197C105.303 7.4721 105.006 7.27432 104.396 7.28065C103.85 7.36495 103.439 7.28481 103.559 7.47452C102.765 7.51339 103.248 7.34432 102.992 7.32587C102.453 7.40366 101.9 7.37847 101.362 7.25841C100.936 7.53923 99.215 7.15372 99.0649 7.38573L98.4064 7.25335C98.3919 7.31411 98.2635 7.4584 97.7388 7.48226C97.2359 7.41157 97.3499 7.30075 97.2014 7.23938L96.8741 7.47015C93.9903 7.21588 90.2111 7.37805 87.0507 7.16577C85.6469 7.21098 83.8812 7.3216 82.2439 7.28793L82.4213 7.25506L80.7912 7.19442L81.9816 7.29644C81.627 7.32123 81.3503 7.37004 81.01 7.36818C78.8771 7.23003 76.7506 7.20136 74.6235 7.28186C73.2114 7.5519 73.6678 7.04722 72.3057 7.24447C72.4193 7.22235 72.462 7.18335 72.5685 7.15408C71.1006 7.24415 70.3065 7.28984 68.8382 7.44814C68.9956 7.18233 67.8812 7.4523 68.0025 7.31451L67.8814 7.425C67.5486 7.36206 66.776 7.34051 66.8827 7.26348L66.2369 7.39783L66.1737 7.28576C65.309 7.28047 63.4653 7.38071 62.9987 7.15471C60.8711 7.33073 57.4971 7.29297 54.8177 7.25958C54.236 7.34226 53.6474 7.38368 53.0521 7.3702L52.3935 7.23782C51.7833 7.33967 51.1664 7.38662 50.5426 7.37185C50.5427 7.3582 50.5711 7.34585 50.6066 7.34064C49.9971 7.31969 49.3873 7.35331 48.7843 7.4282C48.0897 7.42384 47.4166 7.35904 47.6228 7.23878C47.5649 7.45452 46.1555 7.21968 46.1555 7.21968C46.1555 7.21968 37.2808 7.14962 27.3206 7.2553C17.3532 7.36747 6.31446 7.66285 2.00783 8.36058C1.68113 8.47536 0.794445 8.58509 1.16245 8.6974C0.488636 8.76906 0.120923 8.60216 0.0139918 8.7133C0.956672 8.73579 -0.178942 8.99796 0.742109 9.08771L0.188881 9.14439C0.0963083 9.22206 0.919652 9.02756 0.81966 9.16631L0.934194 8.95998C1.232 8.94625 1.5295 8.98711 1.8197 9.06858C2.31715 8.83874 2.87769 8.74145 3.44446 8.8014L3.17501 8.81642C3.962 8.79086 3.66346 8.94105 3.83344 8.96927L3.65622 8.96801L4.32916 9.0601C3.82616 9.00306 3.00289 9.18392 3.43542 9.16268C4.37803 9.19882 3.18756 9.11727 3.88954 9.08101C4.32916 9.0601 4.20805 9.1706 4.19351 9.23818L4.97341 9.2123C4.95163 9.30685 4.45591 9.21602 4.78151 9.30592L5.7604 9.18675C5.95762 9.42094 6.82444 9.05098 7.29111 9.27016C6.5819 9.33338 7.36158 9.34844 7.24774 9.42514L8.98468 9.38829C9.14757 9.41618 8.53056 9.46996 8.79293 9.45462C9.03385 9.47242 9.27499 9.44929 9.50218 9.38457C9.6578 9.44626 10.7995 9.36181 10.7632 9.52394C11.9466 9.61199 11.2464 9.31393 12.3518 9.3916C12.5002 9.48708 11.4797 9.42693 11.9754 9.51776L13.1241 9.46092C12.9392 9.57533 12.7121 9.6264 12.4854 9.60242C15.5756 9.68184 17.2672 10.1752 20.0752 10.0166C20.4786 10.1237 19.7912 10.0992 19.5143 10.1753C21.5497 10.0019 22.3982 10.3954 24.1351 10.3586L24.164 10.2643C26.6011 10.5324 29.5085 10.3373 32.2585 10.4285L31.9256 10.3656C32.3939 10.2845 32.8762 10.2383 33.3513 10.2121C33.4219 10.2563 33.0383 10.4163 33.8254 10.3702C33.6554 10.3352 33.3224 10.3064 33.4219 10.2563C35.7884 10.4734 40.751 10.3856 44.6209 10.4801C49.8459 10.3701 55.5302 10.5337 60.6629 10.4536C59.883 10.4659 60.2033 10.228 60.7914 10.2821C62.4268 10.6705 63.5848 10.2046 65.2492 10.4648C68.2344 10.321 70.9191 10.6686 73.6925 10.3582L73.7486 10.4699C74.0746 10.4848 74.3936 10.472 74.7129 10.432L74.7056 10.4658C75.7403 10.5061 76.9815 10.3921 77.5766 10.4465L77.6057 10.3181C78.2154 10.305 77.9312 10.4149 78.5554 10.341L78.5409 10.4017L79.2646 10.2846C79.2067 10.5003 80.9942 10.302 81.4899 10.3996C82.284 10.3607 83.7802 10.2652 84.9851 10.3064C85.8635 10.4147 86.7493 10.4687 87.6283 10.4746C89.4573 10.4488 92.0732 10.4179 94.4052 10.4627L94.3563 10.324L94.966 10.3177C94.9587 10.3515 95.0437 10.3622 94.9515 10.3785C95.4326 10.5437 96.3553 10.3332 96.8439 10.4306C96.5327 10.3004 96.4187 10.4112 96.0713 10.409C95.5684 10.3383 96.0441 10.203 96.7171 10.2747L96.7028 10.3081L97.1569 10.2333C97.213 10.345 97.6309 10.3982 97.6941 10.5034C99.6933 10.4785 101.055 10.2949 103.118 10.348C102.912 10.4683 104.6 10.32 104.194 10.5335C105.435 10.4604 103.983 10.3601 104.543 10.2082C104.891 10.2172 105.253 10.1586 105.316 10.2366C105.153 10.2906 105.606 10.3658 105.322 10.387L106.152 10.3771C106.23 10.3943 106.052 10.4203 105.96 10.4366C107.648 10.3224 108.958 10.5937 110.468 10.4714C110.575 10.3944 109.866 10.444 109.973 10.3669C111.49 10.2177 111.326 10.5105 112.744 10.4113L112.453 10.5141C112.907 10.3983 113.389 10.3725 113.864 10.4419C114.005 10.5712 113.225 10.5425 112.864 10.601C113.381 10.611 114.692 10.582 114.289 10.4681C114.686 10.4521 115.083 10.4906 115.479 10.5769C115.487 10.5432 114.899 10.4891 115.26 10.4305C116.111 10.5034 117.415 10.5082 118.45 10.5281C118.443 10.5619 118.513 10.606 118.428 10.6226C119.265 10.4697 119.186 10.7527 120.334 10.7163Z" fill="#F2304B"/>
<path opacity="0.26" d="M175.476 8.57608L175.057 8.54308C175.057 8.57911 175.043 8.62334 174.844 8.65699L175.476 8.57608Z" fill="#F2304B"/>
<path opacity="0.26" d="M155.668 8.871C155.618 8.87758 155.568 8.89375 155.518 8.91951C155.618 8.90634 155.646 8.88888 155.668 8.871Z" fill="#F2304B"/>
<path opacity="0.26" d="M150.859 9.32551C151.2 9.28824 150.895 9.24071 150.724 9.1917C150.717 9.22992 150.724 9.269 150.859 9.32551Z" fill="#F2304B"/>
<path opacity="0.26" d="M186.686 7.85885C186.615 7.87432 186.572 7.9015 186.579 7.93177C186.679 7.90813 186.701 7.87963 186.686 7.85885Z" fill="#F2304B"/>
<path opacity="0.26" d="M217.701 7.82774L217.581 7.79333C217.623 7.81408 217.659 7.82527 217.701 7.82774Z" fill="#F2304B"/>
<path opacity="0.26" d="M215.983 7.53243C215.862 7.52611 215.749 7.53634 215.635 7.54657C215.756 7.55289 215.869 7.55075 215.983 7.53243Z" fill="#F2304B"/>
<path opacity="0.26" d="M179.173 8.06393C179.067 8.06682 178.953 8.07827 178.847 8.10806C178.96 8.11455 179.067 8.09372 179.173 8.06393Z" fill="#F2304B"/>
<path opacity="0.26" d="M215.28 7.6078L214.848 7.57836C214.841 7.5857 214.841 7.59339 214.841 7.60877L215.28 7.6078Z" fill="#F2304B"/>
<path opacity="0.26" d="M218.246 7.85961C218.076 7.85182 217.849 7.84144 217.701 7.82776C217.885 7.86365 218.069 7.87209 218.246 7.85961Z" fill="#F2304B"/>
<path opacity="0.26" d="M198.07 7.50961L198.021 7.51587C197.694 7.57005 197.9 7.54543 198.07 7.50961Z" fill="#F2304B"/>
<path opacity="0.26" d="M213.385 7.92316L213.328 7.91061L213.2 7.94928L213.385 7.92316Z" fill="#F2304B"/>
<path opacity="0.26" d="M220.116 7.93724C220.045 7.93313 219.974 7.94724 219.903 7.96135L220.151 7.99392C220.123 7.96496 220.123 7.94675 220.116 7.93724Z" fill="#F2304B"/>
<path opacity="0.26" d="M204.565 7.72174C204.687 7.65939 204.73 7.61213 204.737 7.58262C204.594 7.58373 204.501 7.60791 204.565 7.72174Z" fill="#F2304B"/>
</g>
</g>
</g>
</g>
<path d="M37.315 11.3588C37.2933 11.378 37.2788 11.4079 37.2714 11.4486C37.3076 11.4097 37.3221 11.39 37.315 11.3588Z" fill="#F2304B"/>
<path d="M56.4123 11.247L56.1922 11.28C56.2702 11.2844 56.3412 11.2794 56.4123 11.247Z" fill="#F2304B"/>
<path d="M25.8758 11.6212C25.8829 11.6148 25.8971 11.6154 25.9042 11.609L25.1034 11.6006L25.8758 11.6212Z" fill="#F2304B"/>
<path d="M97.1374 10.9377L96.8823 10.9334C96.9673 10.9369 97.0523 10.9405 97.1374 10.9377Z" fill="#F2304B"/>
<path d="M73.0029 10.9766C73.1095 10.9461 73.216 10.9248 73.3296 10.9313C73.2161 10.9066 73.1024 10.9275 73.0029 10.9766Z" fill="#F2304B"/>
<path d="M19.785 10.0483L20.1185 10.1613C20.1115 10.114 19.991 10.0602 19.785 10.0483Z" fill="#F2304B"/>
<path d="M8.19427 11.212C8.20136 11.2223 8.21557 11.2329 8.22268 11.2333C8.24406 11.2248 8.22986 11.2142 8.19427 11.212Z" fill="#F2304B"/>
<path d="M12.7406 11.4518C12.84 11.4392 12.9537 11.4181 13.0674 11.3971C12.9325 11.3986 12.755 11.4068 12.7406 11.4518Z" fill="#F2304B"/>
<path d="M13.2237 11.3538L13.0674 11.3817C13.1527 11.3773 13.2237 11.3722 13.2237 11.3538Z" fill="#F2304B"/>
<path d="M245.058 10.9396C245.328 10.9544 245.598 10.9251 245.86 10.8511L245.058 10.9396Z" fill="#F2304B"/>
<path d="M134.015 10.6376L133.943 10.6829C134.015 10.6674 134.022 10.6579 134.015 10.6376Z" fill="#F2304B"/>
<path d="M245.474 9.88574L245.701 9.92282C245.623 9.90197 245.552 9.88986 245.474 9.88574Z" fill="#F2304B"/>
<path d="M25.9296 9.36714C26.2634 9.26446 26.9511 9.3879 26.9444 9.28405C26.5896 9.29936 26.0791 9.22862 25.9296 9.36714Z" fill="#F2304B"/>
<path d="M141.8 5.91778L142.019 5.92071C141.913 5.91613 141.849 5.91339 141.8 5.91778Z" fill="#F2304B"/>
<path d="M245.475 9.89896L245.212 9.84778C245.234 9.86715 245.262 9.88693 245.29 9.90671C245.354 9.89214 245.411 9.89535 245.475 9.89896Z" fill="#F2304B"/>
<path d="M172.412 10.681L172.398 10.6802L172.319 10.6939L172.412 10.681Z" fill="#F2304B"/>
<path d="M174.443 10.8979L174.01 10.9166C174.159 10.9327 174.301 10.9318 174.443 10.8979Z" fill="#F2304B"/>
<path d="M245.86 10.8127L246.329 10.7587C246.173 10.759 246.017 10.7859 245.86 10.8127Z" fill="#F2304B"/>
<path d="M196.402 10.867L196.203 10.8728C196.274 10.8764 196.338 10.8796 196.402 10.867Z" fill="#F2304B"/>
<path d="M71.4517 10.9506L71.2744 10.9228C71.253 10.9574 71.2672 10.9671 71.4517 10.9506Z" fill="#F2304B"/>
<path d="M85.7833 7.46228C86.06 7.47787 86.3299 7.43871 86.5928 7.34482C86.316 7.33829 86.0462 7.37744 85.7833 7.46228Z" fill="#F2304B"/>
<path d="M88.3358 7.35279L88.2365 7.33984C88.272 7.34957 88.3003 7.351 88.3358 7.35279Z" fill="#F2304B"/>
<path d="M72.023 7.46649L72.023 7.47669C72.0301 7.47713 72.0302 7.46693 72.0302 7.46693L72.023 7.46649Z" fill="#F2304B"/>
<path d="M75.2549 7.36975C75.3258 7.39119 75.4038 7.41301 75.4818 7.41729C75.4039 7.3867 75.3259 7.37364 75.2549 7.36975Z" fill="#F2304B"/>
<path d="M96.3691 6.87433C96.3622 6.87392 96.3691 6.87433 96.3691 6.87433L96.3828 6.88495L96.3691 6.87433Z" fill="#F2304B"/>
<path d="M126.772 7.1535C123.717 7.12016 119.762 7.19432 116.729 7.09242C115.878 7.2083 115.013 7.26045 114.148 7.23052L114.043 7.02401L113.242 7.07252C112.916 7.00203 113.859 7.04786 113.278 6.96035L112.98 7.08047C112.916 7.00834 110.91 6.9874 112.258 6.87337L109.132 6.8118C108.438 6.789 108.735 6.97196 107.969 6.90831C107.814 6.84494 108.246 6.87569 108.176 6.79695C105.873 6.59937 105.53 7.14075 103.39 7.00051L103.575 6.97667C103.213 7.02466 102.518 7.00817 102.511 7.03313C102.793 7.24707 102.894 6.9292 103.546 7.06388C103.495 7.2386 102.73 7.14337 102.779 7.27804C102.368 7.24818 101.957 7.25621 101.546 7.30212C100.802 7.18252 99.7315 7.23869 99.1653 7.09495C98.6613 7.21908 98.1435 7.29211 97.6119 7.30139C97.0457 7.15766 97.7402 7.17414 96.9751 7.11049L96.854 7.21278C96.2233 7.18633 96.3227 7.15892 96.3442 7.11561C95.8832 7.16576 95.4153 7.18403 94.9477 7.16443L95.416 7.07669C94.7921 7.10738 94.537 7.08405 93.6725 7.06043C93.687 7.0042 94.0342 7.01244 94.2963 7.03606C93.8224 6.87725 93.4951 7.08458 93.2401 7.06757C93.3107 7.11474 93.913 7.13999 93.6218 7.23515C93.1896 7.21071 92.7068 7.35468 92.4027 7.23456L92.871 7.14683C92.3744 7.22706 91.871 7.25016 91.368 7.21013C91.4248 7.20619 91.3966 7.17974 91.418 7.15538C90.6026 7.20961 89.7734 7.20011 88.9517 7.11513L89.1361 7.09128C88.7461 7.11914 88.54 7.20524 88.3275 7.19632C88.8799 7.2637 88.7309 7.28903 88.78 7.38582C88.051 7.20368 87.6803 7.56077 86.4903 7.4414C86.5048 7.38516 86.7887 7.32128 87.1214 7.38576C87.4629 7.17271 87.8677 7.04442 88.286 7.01143C87.8393 7.04323 87.3076 7.05883 87.4215 6.98781L87.2858 7.14634C87.0165 7.14767 86.7969 7.13215 86.5913 7.12985C86.4774 7.22612 87.1432 7.30456 86.5191 7.3605C85.8101 7.40025 86.1373 7.19292 86.0306 7.25792C85.0522 7.30532 85.6327 7.42439 84.6905 7.35331C84.804 7.3328 84.9245 7.32522 85.045 7.33659C84.365 7.26387 83.3864 7.33652 83.182 7.1448C83.2888 7.07348 83.4236 7.04124 83.5581 7.06583L83.5509 7.0971C84.2888 6.97015 82.9341 7.12177 83.1619 6.95448C83.218 7.05788 82.2684 7.01807 81.8362 6.99995L81.9772 7.11954C80.5648 7.4519 82.0495 6.88889 80.6388 6.91817C79.7454 6.98807 80.9788 6.95768 80.4326 7.02952C79.866 6.95524 79.2921 6.92486 78.718 6.93236C78.4702 6.88408 77.9674 6.81247 77.9185 6.68411C77.2737 6.65707 76.6286 6.67423 75.9833 6.72928C76.904 6.84999 76.8913 6.60314 77.9675 6.78722L77.6691 6.91365C76.925 6.89508 75.9749 6.94998 75.4649 6.89702C75.5711 6.92042 75.6133 6.96009 75.5494 6.98267C74.7622 7.06335 73.9611 7.09923 73.1602 7.09091C73.0191 6.97132 73.6214 6.99657 74.0609 6.99605C73.4871 6.94041 72.9131 6.91635 72.339 6.93017C72.2829 6.82676 73.0335 6.94665 73.1475 6.84407L72.0062 6.85937C72.0134 6.85336 72.0063 6.84675 72.0064 6.84043C71.8494 7.01069 71.1347 6.81652 70.4399 6.85686C69.4831 6.84832 68.5397 6.96034 67.6311 7.18751C67.3833 7.13923 67.3127 7.09205 67.4122 7.05202C67.8228 7.13239 67.7452 7.07229 67.8872 7.02772C67.3272 7.03582 66.6621 6.84372 66.9744 6.78103C66.0882 6.81966 67.2998 6.87678 66.7538 6.92336L65.535 6.86594C65.6834 6.95426 66.1085 6.97841 65.4844 7.04066C64.9527 7.05626 64.6976 7.03925 64.0102 7.02306C64.1097 6.98302 63.7842 6.88727 64.3087 6.89663C63.9546 6.84389 63.593 6.8603 63.2524 6.92813C64.0103 7.01675 62.0117 6.98979 62.5849 7.13383L61.827 7.05152C61.9971 7.05234 62.0187 6.9964 62.2738 7.01341C62.0549 6.87792 61.657 7.04439 61.3946 7.05865C61.0545 7.05071 60.7144 7.0175 60.3746 6.95904C60.0625 6.99649 59.7437 6.97049 59.4394 6.89457C59.0848 6.9176 59.4105 6.98178 59.311 7.02182L58.092 7.0086C58.0216 6.93618 57.9165 6.72967 58.1009 6.70582C57.6469 6.76889 57.9437 6.92028 57.2562 6.9104C57.6469 6.76889 56.3355 6.79601 56.9035 6.63035C56.1882 6.53089 55.4654 6.50058 54.7493 6.55266C54.3659 6.6629 55.4293 6.62538 55.3861 6.73725C53.6423 6.76519 53.5412 7.08306 52.2587 7.01665L52.5916 7.04956C52.1947 7.05818 51.8045 7.10498 51.4213 7.18996C51.6348 7.04734 50.4951 6.79745 49.1838 6.81825C49.077 6.88957 49.9271 6.9631 49.7138 7.07416L48.849 7.08843C48.7853 7.07944 48.8776 7.05173 48.9911 7.03754C48.2112 7.08063 47.5251 6.83713 47.3044 7.00472L46.4977 6.78774L46.8161 6.87688C46.433 6.9366 46.0429 6.97709 45.653 6.98601C45.0856 7.05695 44.4975 7.02598 43.9312 6.90118C44.0868 6.96454 44.4829 7.10115 43.7811 7.11594C43.7825 6.88231 42.3003 7.01596 42.3152 6.9029C42.0317 6.90364 41.5218 6.83174 41.4928 6.93157L41.5362 6.78813C41.4783 6.98781 40.4364 6.98202 39.6424 7.01188C39.8142 6.73488 38.7705 7.03217 38.4034 6.78309C38.2605 6.97289 36.9925 6.85657 36.864 7.01539C36.2473 7.02111 36.305 6.85301 36.1495 6.78964L35.8655 6.85984C35.5542 6.771 34.406 6.76075 33.7189 6.70036L33.0871 6.86335L32.8465 6.7901C32.7471 6.83014 32.2224 6.85867 32.5481 6.91654L32.208 6.90228C32.1856 7.0845 31.7257 6.95153 31.0377 7.03005C30.8749 6.99796 30.9177 6.95554 31.0666 6.93653C30.7264 6.93489 30.8687 6.83981 30.6777 6.78127C30.9255 6.82956 29.4567 7.10271 30.3847 7.18583C30.4552 7.25826 29.9162 7.31145 29.5762 7.27824L29.3645 7.11779L28.9665 7.29058C28.5697 7.28025 28.1729 7.25099 27.7835 7.19045C28.223 7.18361 28.7422 6.87696 27.6152 6.88024C28.0122 6.85899 28.4095 6.80617 28.7997 6.73411C28.5659 6.73062 28.4455 6.71294 28.8073 6.64601C27.9282 6.69757 28.5161 6.74748 27.6442 6.76777C27.6876 6.62432 27.4398 6.57604 26.6746 6.52501L27.2481 6.63116C27.2126 6.64862 27.177 6.66607 27.1416 6.6709C27.3612 6.68643 27.4249 6.70804 27.4741 6.76695C27.304 6.76614 26.4666 6.94576 26.3183 6.85744C27.21 7.0843 24.7933 7.0335 25.3596 7.16461C25.1041 7.21705 24.8419 7.20606 24.5871 7.14485C25.3107 7.03624 24.0282 6.98247 24.1422 6.87988C23.8726 6.9191 24.7227 6.98633 24.3539 7.04033C24.0137 7.0387 23.6808 6.99317 23.3481 6.91606L23.5255 6.8856L22.8526 6.81949C22.7458 6.89081 23.511 6.93552 22.8941 6.97913C22.7313 6.94704 22.1073 6.99035 22.1289 6.93441C22.4201 6.83294 22.2012 6.70376 22.7258 6.67523C22.2863 6.68838 20.897 6.71224 21.4632 6.84334L20.9387 6.8403C21.2715 6.89846 22.1923 7.00023 21.1431 7.03203L21.1504 7.00075L20.4268 7.11568L20.1082 7.04548C20.1222 7.08396 20.0086 7.11709 19.7392 7.11843C19.6686 7.07757 19.4065 7.06027 19.4281 7.00433C18.6412 7.01555 18.7117 7.08798 18.6122 7.13433C18.1727 7.14748 18.0098 7.1217 18.2088 7.029C17.5212 7.03806 16.8338 7.02187 16.1466 6.9678C15.3453 7.03525 16.3166 6.99387 15.8481 7.10054C15.1408 6.84984 13.1836 7.0204 11.8792 7.06045C12.2465 7.27795 11.5246 7.08979 11.2967 7.28865C11.5735 7.21816 10.0431 7.12873 11.1846 7.05659L10.4828 7.084C9.9944 6.96879 11.6387 6.98721 10.9025 6.82371C10.1718 6.93202 9.4343 6.99583 8.69 7.00884C8.98863 6.85083 7.98088 7.06752 8.20163 6.89362C8.43577 6.85291 8.66979 6.83115 8.91076 6.83494L8.74793 6.80285C7.0258 6.76853 8.25776 6.99071 7.36401 7.10482C6.31487 7.1303 6.52835 6.98768 6.46499 6.91555C6.13206 6.88264 5.80595 6.89423 5.4867 6.944C6.11811 6.84416 6.67693 7.0318 6.38573 7.13327C5.76969 7.03166 5.13877 7.04941 4.5425 7.20125C6.05115 7.37819 5.58441 7.20073 7.00079 7.39906C7.19249 7.34394 7.15091 7.1843 7.99404 7.2386C7.46903 7.32396 8.03603 7.32878 8.18472 7.35396C8.01514 7.26475 8.76619 7.30887 9.02159 7.26905C9.26214 7.3423 8.53123 7.48849 9.38867 7.51813L9.53879 7.30337C9.87885 7.33026 9.40318 7.46189 10.1194 7.40982C9.74301 7.52667 10.2459 7.58565 9.28171 7.62733C10.4431 7.80233 11.0401 7.5179 11.9337 7.42905C11.8415 7.44413 11.8343 7.46909 11.742 7.48417C12.0045 7.43833 12.274 7.41174 12.5434 7.4104C13.1385 7.4543 12.0821 7.51106 12.2377 7.56811L13.1946 7.5577C13.2158 7.56491 13.2158 7.57122 13.2158 7.57122C13.4003 7.52843 13.6059 7.52442 13.797 7.57033C13.5201 7.64083 13.4063 7.71184 13.2217 7.77357L14.2149 7.61943C14.1081 7.69074 15.0505 7.73657 14.3414 7.79526L15.823 7.75633L15.9568 7.90088C16.3114 7.87154 16.3186 7.84658 15.8934 7.82875C16.4036 7.85646 18.1277 7.55612 17.8779 7.8488C19.0411 7.72073 19.459 7.76352 20.8699 7.68373C19.7917 7.82799 22.1235 7.84366 20.9749 7.91549C21.4285 7.92188 21.8753 7.87746 22.3152 7.78854C22.8181 7.84752 22.6046 7.99014 22.0656 8.04965L22.6968 7.98138L22.6895 8.01265L23.2358 7.92819C23.8236 8.00967 23.3625 8.07245 23.9648 8.0977L24.0861 7.97015L24.4968 8.04421C24.3412 7.98716 24.6957 7.95782 25.1281 7.95069L25.1208 7.98196L25.6526 7.96004C25.1276 8.03908 26.1415 7.98686 25.8999 8.0841C26.3535 8.09048 26.3606 8.09078 27.1829 8.06842L27.0346 7.98009C28.0982 7.90469 27.0834 8.10846 27.9481 8.11945L27.892 8.01604C29.1455 8.1886 30.0047 7.92147 30.9255 8.02955C30.4008 8.05176 30.5348 8.17106 30.5492 8.14009C31.3432 8.10391 32.633 8.13272 33.4489 8.00903C33.8234 8.19526 34.2552 8.28916 34.6735 8.2688C35.2902 8.26308 35.3753 8.2477 35.5743 8.16131C36.1556 8.14778 36.7366 8.17215 37.3174 8.24071C37.4526 8.15796 37.856 8.25697 38.1754 8.18826L38.246 8.22912L38.1899 8.12571C39.2517 8.35339 39.9626 7.99793 41.0317 8.20065L40.8544 8.21217L41.3012 8.17406C41.3718 8.22123 41.1944 8.24537 41.1728 8.30131L43.2494 8.32522L42.8388 8.24484C43.2431 8.19232 43.6543 8.1843 44.0723 8.20814C43.2492 8.35679 44.7598 8.21802 44.9008 8.33761L44.454 8.37572C45.0636 8.3697 45.0636 8.3697 45.0075 8.2663C45.7945 8.23614 45.5592 8.46627 46.2828 8.35766L45.7654 8.3486C45.6099 8.28524 45.9789 8.20598 46.3262 8.21422C46.4111 8.23041 46.6589 8.2787 46.3895 8.28635C47.0135 8.24935 47.9487 8.31383 48.2183 8.27461C48.5583 8.30781 48.4515 8.37912 48.2671 8.40297C49.593 8.32593 48.8694 8.42822 50.2024 8.34517L50.1808 8.4011L50.6348 8.33803L51.2932 8.46669L51.0598 8.38743C51.464 8.36017 51.8751 8.35846 52.279 8.37539L52.0729 8.46149C53.3064 8.42478 53.5037 8.61621 54.6739 8.50738C54.7517 8.52328 54.5744 8.54742 54.4822 8.5625C55.5674 8.43748 55.3105 8.72355 56.3959 8.56695C56.3319 8.59585 56.4522 8.63247 56.4095 8.65594L56.9059 8.60728L56.877 8.71344L57.2749 8.54696L57.586 8.66738L57.7777 8.61226C58.315 8.83689 59.0602 8.67866 59.7963 8.84847L59.6696 8.70421C61.4929 8.40803 63.8715 8.90565 66.0835 8.79629L66.0474 8.90846L66.9624 8.80156C67.458 8.89813 66.6712 8.89672 66.8268 8.96009C67.8052 8.90638 67.2318 8.79391 68.3659 8.77199C68.9537 8.85979 68.167 8.85839 67.8903 8.891C69.0177 8.8309 70.1518 8.82161 71.2855 8.87546C71.2997 8.86342 71.3495 8.84025 71.307 8.83215C72.016 8.7924 72.9584 8.85086 73.738 8.85829C73.7164 8.91422 73.525 8.91883 73.3336 8.92344C73.6382 8.95515 73.943 8.9553 74.2408 8.92358L73.9497 9.01874C74.5807 8.98835 75.2184 9.00878 75.8488 9.08574C75.7782 9.03856 75.8 8.95106 76.3244 8.96673C76.6139 9.14939 77.7352 8.9122 78.5709 9.01671C78.4715 9.05675 77.8619 9.05646 78.032 9.06359C78.4216 9.09256 78.8116 9.0647 79.1877 8.98573L79.081 9.05705L81.0235 8.9806C81.3201 9.16356 82.8522 8.97517 82.7239 9.10242C83.4184 9.1189 82.1432 9.01491 83.015 9.00726C83.2485 9.08652 83.809 8.9837 83.7729 9.10219L83.6807 9.11095L84.2902 9.11125L83.9069 9.21517C84.4315 9.19928 84.8219 9.09565 84.8437 9.00814C85.3256 9.02203 85.8073 9.06749 86.2888 9.14452L86.1044 9.16837C87.5079 9.14511 88.4413 9.51898 89.5409 9.34403C89.6259 9.36023 89.6115 9.3912 89.4414 9.38407L90.3131 9.40799L90.1071 9.48777L91.5395 9.3773L91.525 9.43354C92.4745 9.47335 93.9559 9.46599 95.175 9.47289L94.9905 9.49673C96.3234 9.43262 96.28 9.57606 97.2513 9.52837C97.2229 9.53981 97.1874 9.55095 97.152 9.54947L98.0308 9.56105L97.8391 9.61617C98.3283 9.59879 98.8101 9.6253 99.2987 9.69632C99.6745 9.66786 100.043 9.60754 100.405 9.52167C101.362 9.53021 100.639 9.60093 101.234 9.65746C101.928 9.67394 102.042 9.57767 102.985 9.64244L102.97 9.69868C103.41 9.69815 103.679 9.65893 104.289 9.66554L104.104 9.68939C105.097 9.58575 105.351 9.8869 106.125 9.64778C106.542 9.70319 107.336 9.68595 107.3 9.79812C108.541 9.74909 109.505 9.73267 110.738 9.71491C110.943 9.90663 111.001 9.70696 111.751 9.83316L111.695 9.72976C113.439 9.75233 115.443 10.0448 117.363 10.0432L117.42 10.1466L117.803 10.0427C119.872 10.1358 122.551 10.2228 124.202 10.2668C124.932 10.1837 125.677 10.1518 126.421 10.183L126.329 10.1981C127.824 10.1723 129.398 10.1688 131.027 10.2688C130.928 10.3088 131.091 10.3409 130.906 10.3647C131.339 10.3134 131.778 10.3255 132.21 10.3941L131.8 10.3074C132.254 10.2507 132.721 10.2829 133.167 10.409L133.898 10.3133C133.947 10.3217 134.018 10.3436 134.032 10.3568L134.16 10.3054L134.549 10.448C135.038 10.4369 135.527 10.388 136.003 10.2942C136.074 10.3414 136.761 10.3891 136.229 10.4047L138.908 10.5107L138.49 10.4553C138.434 10.3519 139.242 10.31 139.653 10.3651C139.107 10.437 139.609 10.5086 139.843 10.5878C140.205 10.5398 139.524 10.4924 139.716 10.4373C140.269 10.3784 140.829 10.3703 141.382 10.4187L141.112 10.4516C141.736 10.4272 142.026 10.6162 142.635 10.6165C143.181 10.5447 143.592 10.6377 143.472 10.4558C144.266 10.4386 143.784 10.5825 144.039 10.6059C144.578 10.5464 145.13 10.5822 145.668 10.7058C146.102 10.4587 147.808 10.8523 147.972 10.6445L148.623 10.7855C148.645 10.7295 148.773 10.6023 149.298 10.5927C149.794 10.6703 149.68 10.7666 149.835 10.83L150.169 10.6229C153.045 10.933 156.831 10.8769 159.983 11.1481C161.386 11.1374 163.159 11.0917 164.795 11.173L164.611 11.1969L166.241 11.3031L165.058 11.1714C165.412 11.1547 165.689 11.122 166.036 11.1366C168.161 11.3331 170.294 11.4225 172.421 11.4106C173.846 11.2051 173.369 11.6588 174.738 11.5141C174.624 11.5346 174.574 11.5704 174.475 11.5915C175.949 11.5522 176.743 11.535 178.218 11.4326C178.054 11.6721 179.175 11.4538 179.047 11.5811L179.168 11.4851C179.493 11.5556 180.266 11.6006 180.159 11.6719L180.812 11.5666L180.868 11.67C181.732 11.7063 183.582 11.6828 184.034 11.9039C186.168 11.8165 189.541 11.9706 192.22 12.0955C192.808 12.0381 193.397 12.0248 193.992 12.0498L194.643 12.1908C195.26 12.1156 195.877 12.1036 196.501 12.1423C196.5 12.155 196.472 12.1664 196.429 12.1709C197.039 12.2091 197.648 12.2094 198.251 12.1589C198.946 12.188 199.618 12.2794 199.405 12.3841C199.47 12.1847 200.872 12.4646 200.872 12.4646C200.872 12.4646 209.757 12.9129 219.728 13.2615C229.698 13.61 240.753 13.8967 245.086 13.5668C245.335 13.4825 246.051 13.4557 245.796 13.325C246.002 13.321 246.214 13.3425 246.412 13.3951C246.469 13.4101 246.526 13.4188 246.582 13.4274C246.604 13.4283 246.625 13.4292 246.646 13.4238C246.653 13.4241 246.668 13.4184 246.675 13.4187L246.689 13.413L246.696 13.4069C246.768 13.1889 246.833 12.9706 246.905 12.7463C246.84 12.9456 246.775 13.1513 246.718 13.351C246.696 13.4259 246.703 13.3946 246.703 13.4009L246.689 13.4003L246.675 13.3997L246.646 13.3986L246.59 13.3899C246.561 13.3824 246.533 13.3812 246.505 13.3674C246.462 13.3529 246.441 13.3394 246.427 13.3262C246.406 13.2937 246.449 13.2639 246.484 13.2339C246.563 13.1677 246.655 13.0958 246.273 13.0166L246.783 13.019C246.904 12.9546 246.074 13.0588 246.231 12.9453L246.053 13.121C245.791 13.1037 245.536 13.0488 245.295 12.9503C244.784 13.131 244.224 13.177 243.671 13.0907L243.941 13.0893C243.154 13.0627 243.46 12.9491 243.297 12.9107L243.474 12.9182L242.815 12.7958C243.318 12.8801 244.148 12.7696 243.716 12.7578C242.781 12.6617 243.956 12.8121 243.255 12.8079C242.815 12.7958 242.944 12.7065 242.958 12.6439L242.172 12.6172C242.2 12.53 242.689 12.6453 242.37 12.5435L241.378 12.5903C241.195 12.3616 240.3 12.6462 239.855 12.4191C240.564 12.3983 239.792 12.3406 239.905 12.2759L238.162 12.2155C237.999 12.1771 238.623 12.1653 238.354 12.1667C238.113 12.1376 237.872 12.1465 237.638 12.1872C237.489 12.1241 236.341 12.1391 236.384 11.9957C235.202 11.8513 235.887 12.158 234.782 12.0295C234.641 11.9352 235.654 12.0408 235.166 11.9319L234.025 11.9157C234.217 11.8164 234.451 11.782 234.677 11.8167C231.589 11.5735 229.926 11.0491 227.098 11.0568C226.702 10.9392 227.382 10.9993 227.666 10.9417C225.617 11.001 224.79 10.6001 223.047 10.5459L223.018 10.6331C220.589 10.2723 217.668 10.333 214.927 10.117L215.252 10.1875C214.777 10.2371 214.295 10.2674 213.813 10.2661C213.742 10.219 214.14 10.0904 213.346 10.1013C213.509 10.1397 213.849 10.1855 213.749 10.2193C211.391 9.90564 206.416 9.79178 202.548 9.5538C197.31 9.43526 191.628 9.08964 186.483 8.98129C187.27 9.00164 186.935 9.20236 186.34 9.1332C184.72 8.71788 183.541 9.10424 181.884 8.80741C178.886 8.82696 176.209 8.43683 173.422 8.63578L173.366 8.53237C173.04 8.50608 172.721 8.50534 172.402 8.53617L172.409 8.50489C171.375 8.43626 170.127 8.50394 169.532 8.43478L169.496 8.54695C168.879 8.54005 169.178 8.4515 168.547 8.49451L168.561 8.43828L167.831 8.52765C167.903 8.32856 166.102 8.46147 165.606 8.35227C164.812 8.36319 163.309 8.40755 162.105 8.33178C161.227 8.20655 160.348 8.13182 159.462 8.10731C157.627 8.08719 155.012 8.04701 152.68 7.94926L152.722 8.08365L152.112 8.07704C152.12 8.04576 152.042 8.02987 152.127 8.0208C151.653 7.86199 150.724 8.03143 150.228 7.92224C150.539 8.04896 150.653 7.95269 151 7.96725C151.503 8.04517 151.028 8.15786 150.348 8.07251L150.362 8.04154L149.901 8.098C149.852 7.99489 149.427 7.93286 149.378 7.82976C147.372 7.8025 146.011 7.9412 143.942 7.8355C144.155 7.72445 142.453 7.82362 142.865 7.6388C141.625 7.68152 143.07 7.80527 142.509 7.93334C142.162 7.91878 141.8 7.96677 141.737 7.89464C141.9 7.85096 141.454 7.7691 141.738 7.75573L140.909 7.75254C140.831 7.73664 141.015 7.7128 141.1 7.70374C139.413 7.77825 138.096 7.50199 136.586 7.58394C136.472 7.65495 137.188 7.62182 137.082 7.68682C135.557 7.79342 135.729 7.52904 134.311 7.59591L134.602 7.50706C134.141 7.6014 133.659 7.61909 133.184 7.54867C133.05 7.42937 133.822 7.46806 134.184 7.42008C133.667 7.4047 132.349 7.39995 132.752 7.51791C132.355 7.52653 131.958 7.48464 131.562 7.39223C131.555 7.4235 132.143 7.48605 131.781 7.52772C130.931 7.44156 129.627 7.41215 128.592 7.3814C128.599 7.35013 128.529 7.30927 128.621 7.29419C127.791 7.42991 127.878 7.16828 126.729 7.17066" fill="#F2304B"/>
<path d="M71.6052 7.42736L72.0239 7.46003C72.024 7.42376 72.0383 7.37924 72.2301 7.34471L71.6052 7.42736Z" fill="#F2304B"/>
<path d="M91.4274 7.14276C91.4772 7.13609 91.527 7.11981 91.5769 7.09391C91.4702 7.10683 91.4417 7.12438 91.4274 7.14276Z" fill="#F2304B"/>
<path d="M96.2357 6.74015C95.8942 6.76829 96.1999 6.82524 96.3704 6.87414C96.3776 6.83581 96.3707 6.78695 96.2357 6.74015Z" fill="#F2304B"/>
<path d="M60.3864 8.24845C60.4578 8.23277 60.5007 8.20534 60.4937 8.16485C60.3937 8.19882 60.3722 8.21754 60.3864 8.24845Z" fill="#F2304B"/>
<path d="M29.3606 9.25256L29.4882 9.27669C29.4457 9.26578 29.4032 9.25486 29.3606 9.25256Z" fill="#F2304B"/>
<path d="M31.087 9.47441C31.2076 9.47235 31.3211 9.46992 31.4347 9.45051C31.3141 9.44407 31.2006 9.45499 31.087 9.47441Z" fill="#F2304B"/>
<path d="M67.9076 7.96007C68.0141 7.95703 68.1277 7.94537 68.2343 7.91529C68.1207 7.90892 68.0142 7.92097 67.9076 7.96007Z" fill="#F2304B"/>
<path d="M31.7896 9.37514L32.2221 9.38931C32.2222 9.38117 32.2293 9.37341 32.2294 9.35714L31.7896 9.37514Z" fill="#F2304B"/>
<path d="M28.808 9.24743C28.9781 9.24815 29.2049 9.25156 29.3537 9.26594C29.1767 9.22821 28.9924 9.21949 28.808 9.24743Z" fill="#F2304B"/>
<path d="M48.9997 8.85909L49.0494 8.8526C49.3835 8.77834 49.1703 8.8128 48.9997 8.85909Z" fill="#F2304B"/>
<path d="M33.6792 8.96759L33.736 8.9709L33.864 8.92171L33.6792 8.96759Z" fill="#F2304B"/>
<path d="M26.9445 9.25838C27.0155 9.25326 27.0865 9.24815 27.1575 9.22473L26.9091 9.20148C26.9304 9.23013 26.9374 9.23968 26.9445 9.25838Z" fill="#F2304B"/>
<path d="M42.503 8.78286C42.3814 8.85568 42.3384 8.9032 42.3312 8.93285C42.474 8.93154 42.5669 8.89709 42.503 8.78286Z" fill="#F2304B"/>
<g opacity="0.26">
<g opacity="0.26">
<g opacity="0.26">
<g opacity="0.26">
<path opacity="0.26" d="M37.3172 11.3607C37.2955 11.3802 37.281 11.4103 37.2736 11.4512C37.3098 11.4119 37.3171 11.3813 37.3172 11.3607Z" fill="#F2304B"/>
<path opacity="0.26" d="M56.4074 11.2478L56.1872 11.2833C56.2653 11.2872 56.3434 11.2726 56.4074 11.2478Z" fill="#F2304B"/>
<path opacity="0.26" d="M25.8708 11.6221C25.878 11.6152 25.8921 11.6158 25.8993 11.6088L25.0984 11.6049L25.8708 11.6221Z" fill="#F2304B"/>
<path opacity="0.26" d="M97.1395 10.9394L96.8844 10.9362C96.9695 10.9396 97.0545 10.9429 97.1395 10.9394Z" fill="#F2304B"/>
<path opacity="0.26" d="M72.998 10.9805C73.1046 10.9484 73.2111 10.9258 73.3247 10.9316C73.2112 10.907 73.1047 10.9203 72.998 10.9805Z" fill="#F2304B"/>
<path opacity="0.26" d="M19.7873 10.0505L20.1205 10.1635C20.1065 10.1149 19.9931 10.0612 19.7873 10.0505Z" fill="#F2304B"/>
<path opacity="0.26" d="M8.19659 11.2038C8.20367 11.2141 8.21785 11.2248 8.22496 11.2252C8.2463 11.2263 8.22501 11.2153 8.19659 11.2038Z" fill="#F2304B"/>
<path opacity="0.26" d="M12.7428 11.4559C12.8422 11.4422 12.9559 11.4198 13.0695 11.3974C12.9276 11.3996 12.7572 11.4097 12.7428 11.4559Z" fill="#F2304B"/>
<path opacity="0.26" d="M13.2259 11.3551L13.0696 11.3848C13.1548 11.3798 13.2258 11.374 13.2259 11.3551Z" fill="#F2304B"/>
<path opacity="0.26" d="M245.06 10.9461C245.33 10.9595 245.6 10.9273 245.863 10.8491L245.06 10.9461Z" fill="#F2304B"/>
<path opacity="0.26" d="M134.01 10.6391L133.939 10.6854C134.01 10.6692 134.024 10.6499 134.01 10.6391Z" fill="#F2304B"/>
<path opacity="0.26" d="M245.476 9.888L245.703 9.92508C245.625 9.90388 245.547 9.89141 245.476 9.888Z" fill="#F2304B"/>
<path opacity="0.26" d="M25.9247 9.37431C26.2586 9.2655 26.946 9.38867 26.9394 9.28103C26.5847 9.29939 26.0814 9.22998 25.9247 9.37431Z" fill="#F2304B"/>
<path opacity="0.26" d="M141.802 5.92002L142.021 5.92182C141.915 5.90958 141.851 5.91449 141.802 5.92002Z" fill="#F2304B"/>
<path opacity="0.26" d="M245.477 9.89023L245.215 9.83954C245.236 9.85929 245.264 9.8794 245.292 9.8995C245.349 9.89306 245.413 9.88698 245.477 9.89023Z" fill="#F2304B"/>
<path opacity="0.26" d="M172.414 10.6827L172.4 10.682L172.322 10.6966L172.414 10.6827Z" fill="#F2304B"/>
<path opacity="0.26" d="M174.445 10.8981L174.012 10.9207C174.154 10.9361 174.303 10.9345 174.445 10.8981Z" fill="#F2304B"/>
<path opacity="0.26" d="M245.863 10.8174L246.331 10.7584C246.175 10.7598 246.019 10.7794 245.863 10.8174Z" fill="#F2304B"/>
<path opacity="0.26" d="M196.404 10.8683L196.205 10.8758C196.269 10.8788 196.34 10.8821 196.404 10.8683Z" fill="#F2304B"/>
<path opacity="0.26" d="M71.4538 10.9521L71.2766 10.925C71.2552 10.9513 71.2693 10.9703 71.4538 10.9521Z" fill="#F2304B"/>
<path opacity="0.26" d="M85.7854 7.46898C86.0621 7.48303 86.332 7.44087 86.595 7.34252C86.3183 7.32847 86.0484 7.37062 85.7854 7.46898Z" fill="#F2304B"/>
<path opacity="0.26" d="M88.3308 7.35488L88.2387 7.3421C88.267 7.35189 88.3024 7.35355 88.3308 7.35488Z" fill="#F2304B"/>
<path opacity="0.26" d="M72.0252 7.45825L72.0252 7.4685C72.0324 7.46889 72.0324 7.45864 72.0324 7.45864L72.0252 7.45825Z" fill="#F2304B"/>
<path opacity="0.26" d="M75.2572 7.36151C75.3281 7.38317 75.406 7.40517 75.484 7.40905C75.4061 7.38704 75.3281 7.3741 75.2572 7.36151Z" fill="#F2304B"/>
<path opacity="0.26" d="M96.3715 6.86613C96.3643 6.86575 96.3643 6.87566 96.3715 6.86613L96.3856 6.8768L96.3715 6.86613Z" fill="#F2304B"/>
<path opacity="0.26" d="M126.778 6.9292C123.723 6.91225 119.767 7.01874 116.734 6.92659C115.883 7.05891 115.018 7.12154 114.153 7.0943L114.049 6.86889L113.247 6.92713C112.922 6.85204 113.864 6.89618 113.284 6.8041L112.985 6.93751C112.922 6.85895 110.916 6.84887 112.264 6.7154L109.138 6.668C108.444 6.64749 108.74 6.84589 107.975 6.78109C107.82 6.71272 108.252 6.74362 108.181 6.65787C105.879 6.45629 105.535 7.05118 103.396 6.91134L103.58 6.88406C103.218 6.93891 102.524 6.9253 102.516 6.95267C102.798 7.18508 102.9 6.83645 103.551 6.97971C103.5 7.17131 102.735 7.07195 102.784 7.21908C102.373 7.18902 101.962 7.20044 101.55 7.25333C100.807 7.12716 99.7364 7.1955 99.1704 7.04176C98.6663 7.18088 98.1483 7.26414 97.6166 7.27771C97.0506 7.12398 97.7451 7.13758 96.9801 7.07279L96.8589 7.18554C96.2282 7.16063 96.3277 7.12999 96.3492 7.08244C95.8882 7.14028 95.4202 7.16329 94.9526 7.14481L95.421 7.04577C94.797 7.08335 94.542 7.05945 93.6775 7.03913C93.6921 6.97747 94.0393 6.98428 94.3014 7.00846C93.8277 6.83762 93.5001 7.06669 93.2451 7.0497C93.3156 7.10089 93.9179 7.12468 93.6266 7.23072C93.1944 7.20674 92.7113 7.36743 92.4074 7.23788L92.8759 7.13884C92.3791 7.22985 91.8757 7.25836 91.3728 7.21775C91.4295 7.21308 91.4014 7.18431 91.4228 7.1575C90.6073 7.22209 89.7781 7.21699 88.9565 7.12922L89.141 7.10193C88.7509 7.13492 88.5447 7.2305 88.3321 7.2221C88.8845 7.29232 88.7355 7.32101 88.7843 7.42666C88.0557 7.23192 87.6844 7.62522 86.4945 7.50215C86.5091 7.4405 86.7931 7.36874 87.1258 7.4372C87.4676 7.20178 87.8726 7.05874 88.291 7.01995C87.8442 7.05762 87.3125 7.0781 87.4264 6.99963L87.2906 7.17404C87.0212 7.17723 86.8016 7.16164 86.5961 7.16044C86.482 7.26656 87.1476 7.34817 86.5235 7.41341C85.8144 7.46146 86.142 7.23239 86.0352 7.30423C85.0567 7.36238 85.637 7.48902 84.6948 7.41723C84.8084 7.39406 84.9289 7.38499 85.0494 7.39666C84.3694 7.3214 83.3908 7.4072 83.1867 7.19862C83.2935 7.11986 83.4284 7.0837 83.5629 7.10976L83.5274 7.11527C84.2655 6.97157 82.9106 7.14622 83.1387 6.96162C83.1946 7.07447 82.2451 7.03696 81.8129 7.01988L81.9537 7.14991C80.5407 7.5228 82.0263 6.89694 80.6156 6.93802C79.722 7.02026 80.9555 6.9791 80.4092 7.06124C79.8427 6.98355 79.2688 6.95396 78.6947 6.96585C78.4469 6.91458 77.9442 6.8394 77.8956 6.69919C77.2508 6.67372 76.6056 6.69663 75.9602 6.76103C76.8807 6.88728 76.8684 6.61712 77.9444 6.81175L77.6458 6.95208C76.9017 6.93651 75.9515 7.00269 75.4415 6.94798C75.5477 6.97291 75.5899 7.01607 75.526 7.0412C74.7386 7.13456 73.9374 7.17897 73.1365 7.17499C72.9956 7.04496 73.5979 7.06876 74.0374 7.06537C73.4637 7.00813 72.8897 6.98546 72.3155 7.00427C72.2596 6.89142 73.01 7.01787 73.1242 6.90483L71.9829 6.9289C71.99 6.92226 71.983 6.91507 71.983 6.90816C71.8258 7.09556 71.1114 6.88755 70.4165 6.93616C69.488 6.92715 68.5374 7.05554 67.6355 7.31033C67.3878 7.25906 67.3173 7.20787 67.4168 7.1634C67.8273 7.24876 67.7498 7.18347 67.8919 7.13376C67.3319 7.14621 66.667 6.94017 66.9794 6.86953C66.0931 6.9175 67.3047 6.97227 66.7586 7.02676L65.5467 7.00655C65.6949 7.10229 66.12 7.126 65.4958 7.19815C64.9641 7.21863 64.7091 7.20164 64.0217 7.18831C64.1212 7.14384 63.7959 7.0411 64.3203 7.04799C63.9663 6.99252 63.6047 7.01281 63.264 7.08924C64.0217 7.1814 62.0231 7.16468 62.5961 7.31869L61.8242 7.23288C61.9943 7.23269 62.016 7.17131 62.271 7.1883C62.0523 7.04137 61.6541 7.22616 61.3918 7.24346C61.0516 7.23694 60.7116 7.20276 60.3718 7.14094C60.0597 7.18392 59.7409 7.1575 59.4367 7.07634C59.0821 7.10382 59.4077 7.172 59.3082 7.21647L58.0963 7.20317C58.0259 7.12433 57.9211 6.89892 58.1056 6.87163C57.6515 6.94359 57.9481 7.10742 57.2606 7.10101C57.6515 6.94359 56.34 6.98167 56.9083 6.79668C56.1932 6.69237 55.4704 6.66382 54.7541 6.72541C54.3706 6.84855 55.434 6.80067 55.3907 6.92342C53.6397 6.96489 53.5381 7.31352 52.2557 7.24903L52.5886 7.28292C52.1916 7.2949 51.8014 7.34863 51.418 7.44412C51.6317 7.28661 50.4924 7.02034 49.181 7.05151C49.0742 7.13026 49.9242 7.20533 49.7107 7.32827L48.8459 7.34942C48.7821 7.33999 48.8745 7.30907 48.988 7.29281C48.208 7.34497 47.5223 7.08279 47.3013 7.26767L46.4949 7.03529L46.8132 7.13084C46.43 7.19867 46.0398 7.24549 45.6499 7.25775C45.0824 7.33905 44.4943 7.3089 43.9282 7.17591C44.0837 7.24428 44.4796 7.39129 43.7777 7.41197C43.7795 7.1562 42.2971 7.312 42.3121 7.18813C42.0286 7.19075 41.5188 7.1153 41.4897 7.22478L41.5333 7.06747C41.4751 7.28644 40.4332 7.28677 39.6391 7.32454C39.8113 7.02019 38.7672 7.35233 38.4004 7.082C38.2573 7.2907 36.9894 7.17147 36.8606 7.34616C36.2439 7.35637 36.3019 7.17197 36.1464 7.1036L35.8624 7.18227C35.5512 7.087 34.403 7.08313 33.7159 7.02141L33.0839 7.20388L32.8434 7.12524C32.7439 7.16971 32.2192 7.2043 32.5448 7.26556L32.2046 7.25904C32.182 7.45867 31.7223 7.31604 31.0341 7.40641C30.8714 7.37232 30.9142 7.32561 31.0632 7.30384C30.723 7.30423 30.8655 7.19922 30.6745 7.13636C30.9222 7.18764 29.453 7.49607 30.3809 7.58113C30.4512 7.65997 29.9121 7.72165 29.5722 7.68747L29.3607 7.51317L28.9625 7.70488C28.5657 7.69611 28.1689 7.66661 27.7796 7.60283C28.2191 7.59253 28.7388 7.2535 27.6118 7.2643C28.0089 7.2385 28.4062 7.17813 28.7966 7.09675C28.5627 7.09443 28.4423 7.07584 28.8043 7.00025C27.925 7.06232 28.5129 7.1132 27.641 7.14099C27.6846 6.98368 27.4368 6.9324 26.6717 6.88144L27.2451 6.99397C27.2095 7.01331 27.1739 7.03265 27.1384 7.03816C27.358 7.05375 27.4217 7.07701 27.4709 7.14119C27.3007 7.14138 26.463 7.34338 26.3148 7.24764C27.2062 7.49029 24.7896 7.45014 25.3557 7.59005C25.1001 7.6491 24.8379 7.63875 24.5832 7.57337C25.307 7.44984 24.0245 7.39917 24.1387 7.28614C23.869 7.3308 24.7191 7.39896 24.3501 7.46044C24.0099 7.46083 23.6771 7.41311 23.3445 7.33083L23.522 7.29635L22.8491 7.22828C22.7422 7.30703 23.5074 7.35109 22.8904 7.40278C22.7276 7.36869 22.1036 7.4201 22.1253 7.35872C22.4166 7.24577 22.1979 7.10575 22.7226 7.07116C22.283 7.08837 20.8936 7.12337 21.4597 7.26328L20.9352 7.26331C21.2679 7.32485 22.1886 7.43037 21.1393 7.47189L21.1466 7.43761L20.4299 7.56833L20.1114 7.49352C20.1253 7.53556 20.0117 7.57256 19.7423 7.57575C19.6717 7.53147 19.4096 7.5142 19.4313 7.45283C18.6445 7.47014 18.7148 7.54898 18.6152 7.60037C18.1757 7.61758 18.0128 7.5904 18.212 7.48763C17.5244 7.50196 16.837 7.48863 16.1498 7.43383C15.3484 7.5128 16.3198 7.46129 15.8512 7.58107C15.1442 7.31113 13.1867 7.51038 11.8822 7.56257C12.2491 7.79833 11.5276 7.59697 11.2922 7.81585C11.5692 7.72307 10.0318 7.63468 11.1806 7.54869L10.4787 7.58319C9.99756 7.46047 11.6348 7.46982 10.8988 7.29554C10.168 7.41879 9.43032 7.49337 8.68599 7.51237C8.98486 7.33749 7.97675 7.58116 8.19778 7.38937C8.43199 7.3433 8.66605 7.31798 8.90702 7.32058L8.73715 7.28621C7.01502 7.25967 8.25376 7.4953 7.35982 7.62593C6.31061 7.66055 6.52431 7.50304 6.45397 7.4242C6.13516 7.40469 5.80903 7.41947 5.4897 7.476C6.12836 7.36293 6.67982 7.5645 6.38845 7.67745C5.77256 7.57015 5.14868 7.5939 4.55216 7.76395C6.06057 7.948 5.59405 7.76362 7.01021 7.96477C7.202 7.9032 7.16066 7.7287 8.00372 7.78275C7.47858 7.87955 8.04558 7.88121 8.19424 7.90782C8.03188 7.81152 8.78288 7.85502 9.03834 7.80979C9.27878 7.88843 8.54763 8.05316 9.40505 8.08012L9.55551 7.84405C9.88136 7.87075 9.41256 8.01818 10.1218 7.94939C9.74526 8.07973 10.2481 8.14108 9.29088 8.19315C10.452 8.37731 11.0495 8.0621 11.9433 7.95912C11.851 7.97622 11.8437 8.00359 11.7515 8.02069C12.0141 7.96883 12.2836 7.93799 12.553 7.9348C13.148 7.97905 12.0915 8.04795 12.247 8.10941L13.204 8.09189C13.2252 8.09965 13.2251 8.10656 13.2251 8.10656C13.4097 8.05853 13.6153 8.05283 13.8063 8.10186C13.5294 8.18081 13.4155 8.25928 13.2307 8.32805L14.2242 8.15294C14.1173 8.23169 15.0597 8.27583 14.3504 8.34462L15.8321 8.29252L15.9657 8.44992C16.3203 8.41552 16.3276 8.38815 15.9025 8.37136C16.4126 8.39842 18.1372 8.05859 17.8869 8.38061C19.0503 8.23295 19.4682 8.27712 20.8793 8.18074C19.8009 8.34558 22.1327 8.3478 20.9839 8.4338C21.4375 8.43789 21.8844 8.3864 22.3245 8.28623C22.8273 8.34758 22.6136 8.50509 22.0744 8.57368L22.7058 8.49491L22.6985 8.52919L23.2449 8.43323C23.8326 8.51867 23.3714 8.59034 23.9737 8.61414L24.0951 8.47373L24.5057 8.55218C24.3501 8.49072 24.7048 8.45632 25.1372 8.44575L25.1299 8.48003L25.6616 8.45263C25.1365 8.54253 26.1505 8.47886 25.9088 8.58686C26.3624 8.59095 26.3694 8.59123 27.1918 8.56149L27.0436 8.46574C28.1074 8.37639 27.0923 8.60596 27.9569 8.61245L27.901 8.49961C29.1543 8.6805 30.0139 8.38255 30.9346 8.49498C30.4099 8.52266 30.5437 8.65241 30.5581 8.6184C31.3522 8.57371 32.642 8.59701 33.458 8.45638C33.8323 8.65786 34.264 8.75788 34.6823 8.73292C35.299 8.72271 35.3842 8.70533 35.5833 8.60948C36.1646 8.59095 36.7456 8.61391 37.3263 8.68525C37.4616 8.59379 37.8649 8.69961 38.1844 8.62234L38.255 8.66661L38.199 8.55377C39.2605 8.79623 39.972 8.40254 41.0408 8.61763L40.8562 8.65183L41.3031 8.60724C41.3736 8.65843 41.1962 8.686 41.1745 8.74737L43.2511 8.76026L42.8406 8.6749C43.245 8.61481 43.6562 8.6034 44.0742 8.62682C43.2509 8.79482 44.7617 8.63324 44.9025 8.76327L44.4557 8.80785C45.0653 8.79735 45.0653 8.79735 45.0094 8.68451C45.7964 8.64645 45.5608 8.8999 46.2845 8.77637L45.7672 8.76976C45.6117 8.70139 45.9809 8.61225 46.3281 8.61906C46.4131 8.63624 46.6608 8.68752 46.3914 8.69762C47.0154 8.65312 47.9505 8.71772 48.2202 8.67306C48.5602 8.70723 48.4533 8.78598 48.2688 8.81327C49.5949 8.72045 48.8711 8.83706 50.2043 8.73761L50.1826 8.79898L50.6367 8.72703L51.2949 8.86366L51.0616 8.77839C51.4658 8.74595 51.877 8.74145 52.2808 8.7574L52.0746 8.85298C53.3082 8.8049 53.5053 9.01321 54.6756 8.88658C54.7534 8.90348 54.5761 8.93105 54.4838 8.94815C55.5692 8.80433 55.3119 9.11915 56.3975 8.94077C56.3335 8.97282 56.4537 9.01214 56.411 9.03811L56.9076 8.98166L56.8712 9.1116L57.2694 8.92681L57.5804 9.05664L57.7722 8.99507C58.3092 9.23755 59.0546 9.05956 59.7905 9.24075L59.664 9.08364C61.4878 8.74772 63.8656 9.27727 66.0779 9.1434L66.0416 9.26643L66.9568 9.14354C67.4522 9.24609 66.6655 9.24958 66.8209 9.31796C67.7995 9.25289 67.2262 9.13344 68.3604 9.10219C68.9481 9.19455 68.1613 9.19804 67.8846 9.23551C69.0121 9.1625 70.1462 9.14507 71.2799 9.19677C71.2942 9.18351 71.3439 9.15782 71.3015 9.14922C72.0106 9.10117 72.9528 9.15914 73.7325 9.16228C73.7108 9.22365 73.5194 9.22992 73.328 9.23619C73.6325 9.26896 73.9373 9.26718 74.2352 9.23054L73.9439 9.33658C74.575 9.29928 75.2127 9.31756 75.843 9.39777C75.7724 9.34658 75.7944 9.25065 76.3188 9.26445C76.608 9.46257 77.7297 9.19572 78.5653 9.30479C78.4657 9.34926 77.8562 9.35284 78.0262 9.35956C78.4159 9.38878 78.8059 9.35578 79.1822 9.26693L79.0753 9.34568L81.018 9.24956C81.3143 9.44796 82.8467 9.23191 82.7182 9.37204C83.4127 9.38564 82.1376 9.27996 83.0095 9.266C83.2428 9.35128 83.8035 9.23513 83.7672 9.36508L83.675 9.37526L84.2846 9.37168L83.901 9.48791C84.4257 9.46715 84.8163 9.3512 84.8382 9.25526C85.3201 9.26738 85.8017 9.31407 86.2831 9.39532L86.0987 9.4226C87.5023 9.38816 88.4351 9.79148 89.535 9.59292C89.62 9.61011 89.6056 9.64411 89.4355 9.63739L90.3071 9.658L90.101 9.74666L91.5336 9.61656L91.519 9.67821C92.4685 9.71572 93.9499 9.69818 95.169 9.69794L94.9845 9.72522C96.3176 9.6465 96.274 9.80382 97.2454 9.74539C97.2169 9.75809 97.1814 9.77052 97.146 9.76912L98.0248 9.77618L97.833 9.83775C98.3222 9.81558 98.804 9.84153 99.2925 9.91615C99.6684 9.88259 100.037 9.8142 100.4 9.71787C101.356 9.72109 100.633 9.80314 101.228 9.86122C101.922 9.87483 102.036 9.7687 102.979 9.83358L102.964 9.89523C103.404 9.89185 103.673 9.84719 104.283 9.85052L104.098 9.87781C105.091 9.758 105.344 10.0861 106.119 9.81933C106.536 9.87732 107.33 9.85336 107.294 9.97639C108.535 9.91478 109.499 9.89063 110.732 9.86329C110.937 10.0719 110.995 9.85291 111.745 9.98627L111.689 9.87343C113.433 9.88699 115.436 10.1943 117.357 10.1803L117.413 10.2932L117.797 10.1769C119.866 10.2656 122.544 10.3437 124.195 10.3813C124.926 10.2857 125.671 10.246 126.415 10.2754L126.322 10.2925C127.818 10.2547 129.392 10.2408 131.021 10.3398C130.922 10.3842 131.084 10.4183 130.9 10.4456C131.333 10.3867 131.772 10.3971 132.204 10.4695L131.793 10.3772C132.248 10.3122 132.715 10.3445 133.161 10.4796L133.891 10.3702C133.941 10.3791 134.012 10.4026 134.026 10.417L134.154 10.3598L134.543 10.5135C135.032 10.4982 135.521 10.4415 135.997 10.3358C136.067 10.387 136.754 10.4349 136.223 10.4554L138.901 10.5543L138.483 10.4963C138.427 10.3834 139.236 10.3324 139.647 10.3901C139.1 10.4722 139.603 10.5474 139.836 10.6327C140.198 10.5778 139.518 10.5302 139.71 10.4687C140.263 10.4006 140.823 10.3882 141.376 10.4377L141.106 10.4754C141.73 10.4447 142.019 10.6498 142.629 10.6462C143.175 10.5641 143.585 10.6632 143.466 10.4649C144.26 10.441 143.777 10.6017 144.032 10.6256C144.571 10.557 145.124 10.5926 145.662 10.7245C146.096 10.4513 147.801 10.8713 147.966 10.6427L148.617 10.7929C148.638 10.7315 148.767 10.5913 149.292 10.5775C149.787 10.6593 149.673 10.7654 149.828 10.8338L150.163 10.605C153.039 10.926 156.824 10.8405 159.976 11.1171C161.38 11.0965 163.152 11.0351 164.789 11.1136L164.604 11.1409L166.234 11.2468L165.051 11.1102C165.405 11.0896 165.682 11.0521 166.029 11.0658C168.154 11.2673 170.287 11.3516 172.414 11.3249C173.84 11.0909 173.361 11.5906 174.731 11.4234C174.617 11.4466 174.567 11.4861 174.468 11.5098C175.942 11.4574 176.736 11.4335 178.211 11.312C178.047 11.5751 179.168 11.329 179.04 11.4691L179.161 11.3633C179.486 11.4384 180.258 11.4827 180.152 11.5615L180.805 11.4421L180.86 11.5549C181.725 11.5891 183.575 11.5515 184.027 11.7906C186.161 11.6813 189.534 11.8284 192.212 11.948C192.801 11.8814 193.389 11.8631 193.985 11.8867L194.636 12.0368C195.253 11.9506 195.87 11.9335 196.493 11.9719C196.493 11.9857 196.464 11.9984 196.422 12.0037C197.031 12.0416 197.641 12.038 198.244 11.9788C198.938 12.0063 199.611 12.102 199.397 12.218C199.463 11.9993 200.864 12.2967 200.864 12.2967C200.864 12.2967 209.749 12.6961 219.719 13.0139C229.689 13.3317 240.745 13.5748 245.078 13.1859C245.327 13.092 246.043 13.058 245.788 12.9166C245.994 12.9109 246.206 12.9331 246.405 12.9894C246.461 13.0054 246.518 13.0146 246.574 13.0237C246.596 13.0246 246.617 13.0254 246.638 13.0193C246.645 13.0196 246.66 13.0133 246.667 13.0136L246.681 13.0072L246.688 13.0006C246.76 12.7614 246.826 12.522 246.898 12.2759C246.833 12.4946 246.768 12.7202 246.71 12.9392C246.688 13.0213 246.695 12.987 246.695 12.9939L246.681 12.9934L246.667 12.9928L246.638 12.9917L246.582 12.9825C246.553 12.9745 246.525 12.9734 246.497 12.9584C246.454 12.9429 246.433 12.9283 246.419 12.9139C246.398 12.8785 246.441 12.8456 246.477 12.8124C246.555 12.7395 246.648 12.6602 246.266 12.5759L246.776 12.5753C246.897 12.5041 246.067 12.6234 246.224 12.4982L246.045 12.6917C245.783 12.6744 245.528 12.6159 245.288 12.5096C244.776 12.7107 244.216 12.7646 243.664 12.6737L243.933 12.6705C243.147 12.6463 243.452 12.5201 243.289 12.4791L243.467 12.4861L242.808 12.3564C243.311 12.4454 244.141 12.3191 243.709 12.309C242.774 12.2098 243.949 12.3669 243.248 12.3668C242.808 12.3564 242.937 12.2577 242.951 12.1892L242.165 12.165C242.194 12.0693 242.682 12.1923 242.364 12.083L241.371 12.1406C241.188 11.8913 240.293 12.2086 239.848 11.9629C240.557 11.9355 239.785 11.8774 239.899 11.8058L238.156 11.7508C237.993 11.7098 238.617 11.6929 238.348 11.6961C238.107 11.6659 237.866 11.6771 237.632 11.7232C237.483 11.6551 236.335 11.6789 236.378 11.5215C235.196 11.3711 235.881 11.7024 234.776 11.5689C234.635 11.4665 235.648 11.5757 235.16 11.4596L234.019 11.4491C234.211 11.3391 234.445 11.3 234.672 11.3366C231.583 11.0901 229.921 10.5266 227.093 10.5532C226.697 10.4269 227.377 10.4883 227.661 10.4235C225.612 10.5016 224.786 10.0679 223.043 10.0198L223.014 10.1154C220.585 9.736 217.664 9.82115 214.923 9.60222L215.248 9.67731C214.773 9.7346 214.291 9.77086 213.809 9.77257C213.739 9.72138 214.136 9.57806 213.342 9.5951C213.505 9.6361 213.845 9.6841 213.746 9.72166C211.388 9.39342 206.413 9.30061 202.544 9.06483C197.307 8.96858 191.625 8.62657 186.48 8.54087C187.267 8.55812 186.932 8.77999 186.337 8.70809C184.717 8.26379 183.538 8.69431 181.881 8.37995C178.883 8.42054 176.207 8.01057 173.427 8.24648L173.371 8.13364C173.045 8.10694 172.726 8.10817 172.407 8.14396L172.414 8.10968C171.38 8.04116 170.132 8.12324 169.537 8.05134L169.501 8.17437C168.884 8.17075 169.182 8.0719 168.551 8.12303L168.566 8.06138L167.835 8.16389C167.908 7.94548 166.106 8.1025 165.611 7.98613C164.817 8.00317 163.314 8.06135 162.11 7.98611C161.232 7.85462 160.353 7.77844 159.467 7.75727C157.632 7.74699 155.017 7.71975 152.685 7.62765L152.727 7.7745L152.117 7.77117C152.125 7.73688 152.047 7.71998 152.132 7.70951C151.658 7.53868 150.729 7.73013 150.233 7.61376C150.544 7.7505 150.658 7.64438 151.005 7.65809C151.508 7.74018 151.032 7.8666 150.353 7.77751L150.367 7.74351L149.906 7.80826C149.857 7.6957 149.432 7.63052 149.383 7.51795C147.378 7.50095 146.016 7.66151 143.947 7.55903C144.16 7.43609 142.458 7.55555 142.871 7.35058C141.63 7.40529 143.075 7.53152 142.514 7.67531C142.167 7.66159 141.805 7.71645 141.742 7.63789C141.905 7.58902 141.459 7.50226 141.743 7.48581L140.914 7.48762C140.836 7.47072 141.02 7.44343 141.106 7.43296C139.418 7.52534 138.102 7.23133 136.591 7.3307C136.477 7.40918 137.194 7.36832 137.087 7.44016C135.562 7.56662 135.734 7.27609 134.316 7.35837L134.607 7.25924C134.146 7.36547 133.664 7.38792 133.189 7.31386C133.056 7.18411 133.828 7.22154 134.19 7.16668C133.672 7.15316 132.354 7.1564 132.757 7.28296C132.36 7.29494 131.964 7.25161 131.567 7.15298C131.56 7.18727 132.148 7.25198 131.786 7.29991C130.936 7.21102 129.632 7.18717 128.598 7.16013C128.605 7.12585 128.534 7.08157 128.627 7.06447C127.796 7.21837 127.883 6.93139 126.735 6.94135" fill="#F2304B"/>
<path opacity="0.26" d="M71.6073 7.43285L72.0259 7.46343C72.0261 7.42617 72.0405 7.38033 72.2322 7.34349L71.6073 7.43285Z" fill="#F2304B"/>
<path opacity="0.26" d="M91.4225 7.14572C91.4723 7.13858 91.5221 7.12167 91.5719 7.09498C91.4724 7.10927 91.4368 7.12693 91.4225 7.14572Z" fill="#F2304B"/>
<path opacity="0.26" d="M96.238 6.73093C95.8967 6.76196 96.2021 6.81753 96.3725 6.86592C96.3798 6.8368 96.3729 6.78726 96.238 6.73093Z" fill="#F2304B"/>
<path opacity="0.26" d="M60.3887 8.24094C60.46 8.22461 60.5029 8.19664 60.496 8.15586C60.396 8.20094 60.3745 8.21997 60.3887 8.24094Z" fill="#F2304B"/>
<path opacity="0.26" d="M29.3628 9.25476L29.4903 9.27888C29.4407 9.26752 29.4053 9.25685 29.3628 9.25476Z" fill="#F2304B"/>
<path opacity="0.26" d="M31.082 9.47817C31.2026 9.4752 31.3161 9.47187 31.4297 9.45089C31.3162 9.44538 31.2027 9.45754 31.082 9.47817Z" fill="#F2304B"/>
<path opacity="0.26" d="M67.9097 7.96407C68.0161 7.96018 68.1297 7.94738 68.2363 7.91569C68.1228 7.90994 68.0163 7.9231 67.9097 7.96407Z" fill="#F2304B"/>
<path opacity="0.26" d="M31.7919 9.36885L32.2244 9.38071C32.2244 9.37219 32.2315 9.364 32.2316 9.34695L31.7919 9.36885Z" fill="#F2304B"/>
<path opacity="0.26" d="M28.8103 9.24199C28.9804 9.24169 29.2071 9.24378 29.3559 9.25755C29.1789 9.22762 28.9947 9.21984 28.8103 9.24199Z" fill="#F2304B"/>
<path opacity="0.26" d="M49.002 8.85225L49.0517 8.84531C49.3857 8.77701 49.1726 8.80402 49.002 8.85225Z" fill="#F2304B"/>
<path opacity="0.26" d="M33.6742 8.97072L33.731 8.97368L33.8591 8.9226L33.6742 8.97072Z" fill="#F2304B"/>
<path opacity="0.26" d="M26.9396 9.25117C27.0106 9.24541 27.0816 9.23966 27.1527 9.21513L26.9044 9.19305C26.9326 9.22266 26.9397 9.24178 26.9396 9.25117Z" fill="#F2304B"/>
<path opacity="0.26" d="M42.498 8.7837C42.3765 8.85795 42.3335 8.90615 42.3263 8.93607C42.476 8.93409 42.5689 8.8987 42.498 8.7837Z" fill="#F2304B"/>
</g>
</g>
</g>
</g>
</g>
<defs>
<clipPath id="clip0_3_247">
<rect width="247" height="21" fill="white"/>
</clipPath>
</defs>
</svg>
