<svg width="24" height="24" viewBox="0 0 24 24" fill="none" xmlns="http://www.w3.org/2000/svg">
<g clip-path="url(#clip0_3_255)">
<path d="M20.9107 19.1441C20.605 17.6789 19.4634 16.4943 18.0014 16.1262C17.0014 15.8752 15.9965 16.0017 15.1156 16.4826L13.9872 13.9314L18.3052 3.5692C18.435 3.25721 18.5005 2.92857 18.5005 2.59215C18.5005 1.74111 18.0776 0.951088 17.3696 0.478924L16.7778 0.084384C16.6547 0.00188538 16.5014 -0.0215517 16.3608 0.0204007C16.2192 0.0614156 16.103 0.162992 16.0434 0.298224L12.0004 9.43931L7.95725 0.298271C7.89768 0.163039 7.78148 0.0614625 7.63987 0.0204476C7.49826 -0.0215517 7.34494 0.00188538 7.22288 0.0844309L6.63109 0.478971C5.92306 0.951088 5.5002 1.74111 5.5002 2.59215C5.5002 2.92857 5.56564 3.25716 5.69553 3.5692L10.0133 13.9323L8.88405 16.4831C8.303 16.1657 7.66138 16.0002 7.00022 16.0002C4.79414 16.0002 3.00012 17.7945 3.00012 20.0001C3.00012 22.2056 4.79409 24 7.00022 24C9.20631 24 11.0003 22.2056 11.0003 20.0001C11.0003 18.521 11.4843 17.4398 11.9997 16.7005C12.5007 17.4176 12.9686 18.4444 12.9984 19.8575C13.0453 22.0694 14.7104 23.8862 16.7876 23.9946C16.8598 23.998 16.9311 24 17.0014 24C18.1743 24 19.272 23.4971 20.0396 22.6011C20.854 21.6505 21.1714 20.3902 20.9107 19.1441ZM7.00008 22.0001C5.89756 22.0001 5.0001 21.1031 5.0001 20.0001C5.0001 18.897 5.89756 18.0001 7.00008 18.0001C8.10261 18.0001 9.00006 18.897 9.00006 20.0001C9.00006 21.1031 8.10261 22.0001 7.00008 22.0001ZM12 15.0002C11.4482 15.0002 11 14.5515 11 14.0002C11 13.449 11.4483 13.0002 12 13.0002C12.5517 13.0002 12.9999 13.449 12.9999 14.0002C12.9999 14.5515 12.5517 15.0002 12 15.0002ZM16.9999 22.0001C15.8974 22.0001 14.9999 21.1031 14.9999 20.0001C14.9999 18.897 15.8974 18.0001 16.9999 18.0001C18.1024 18.0001 18.9999 18.897 18.9999 20.0001C18.9999 21.1031 18.1024 22.0001 16.9999 22.0001Z" fill="#003383"/>
</g>
<defs>
<clipPath id="clip0_3_255">
<rect width="24" height="24" fill="white"/>
</clipPath>
</defs>
</svg>
