<svg width="132" height="132" viewBox="0 0 132 132" fill="none" xmlns="http://www.w3.org/2000/svg">
<path d="M124.856 80.6891L116.781 72.6144C116.392 72.2387 115.871 72.0309 115.33 72.0356C114.789 72.0403 114.272 72.2572 113.89 72.6396C113.507 73.022 113.29 73.5393 113.286 74.08C113.281 74.6208 113.489 75.1418 113.864 75.5308L121.939 83.6055C123.099 84.7658 123.751 86.3394 123.751 87.9801C123.751 89.6208 123.099 91.1943 121.939 92.3546L92.2804 122.011C91.1271 123.157 89.5706 123.804 87.9451 123.815C86.3195 123.825 84.7548 123.198 83.587 122.067L24.1581 64.1438C23.7664 63.7608 23.2387 63.5492 22.691 63.5554C22.1433 63.5616 21.6205 63.7851 21.2376 64.1768C20.8547 64.5684 20.6431 65.0961 20.6492 65.6438C20.6554 66.1915 20.8789 66.7143 21.2706 67.0973L80.7077 125.023C82.655 126.906 85.2628 127.95 87.9716 127.933C90.6804 127.915 93.2743 126.836 95.1968 124.928L124.856 95.271C126.789 93.3371 127.875 90.7146 127.875 87.9801C127.875 85.2456 126.789 82.623 124.856 80.6891Z" fill="white"/>
<path d="M8.25 48.6296V8.25H46.5836L68.9391 30.6054C63.2972 32.2586 57.4412 33.0655 51.5625 33C44.3853 33.1706 37.2471 31.8962 30.5724 29.2524C32.1298 27.4184 32.9895 25.0935 33 22.6875C33 20.6479 32.3952 18.6541 31.262 16.9582C30.1289 15.2623 28.5183 13.9405 26.6339 13.16C24.7496 12.3795 22.6761 12.1752 20.6756 12.5732C18.6752 12.9711 16.8377 13.9532 15.3955 15.3955C13.9532 16.8377 12.9711 18.6752 12.5732 20.6756C12.1752 22.6761 12.3795 24.7496 13.16 26.6339C13.9405 28.5183 15.2623 30.1289 16.9582 31.262C18.6541 32.3952 20.6479 33 22.6875 33C24.1628 32.9945 25.6193 32.6694 26.9569 32.0471C32.9753 35.3739 42.4339 37.125 51.5625 37.125C58.5732 37.2085 65.5472 36.1018 72.1875 33.8518L96.0836 57.75L62.4793 91.3543C62.2823 91.5446 62.1252 91.7722 62.0171 92.0238C61.909 92.2754 61.8521 92.5461 61.8497 92.8199C61.8474 93.0938 61.8995 93.3654 62.0032 93.6188C62.1069 93.8723 62.2601 94.1026 62.4537 94.2962C62.6474 94.4899 62.8777 94.6431 63.1312 94.7468C63.3846 94.8505 63.6562 94.9026 63.9301 94.9003C64.2039 94.8979 64.4746 94.841 64.7262 94.7329C64.9778 94.6248 65.2054 94.4677 65.3957 94.2707L99 60.6664L108.032 69.6981C108.421 70.0738 108.942 70.2816 109.482 70.277C110.023 70.2723 110.541 70.0553 110.923 69.6729C111.305 69.2905 111.522 68.7732 111.527 68.2325C111.532 67.6917 111.324 67.1707 110.948 66.7817L76.1991 32.0327C80.0518 29.9062 82.5 27.1178 82.5 23.7188C82.5 15.6276 68.5822 10.9416 54.549 10.3826L48.8957 4.72931C48.509 4.34249 47.9845 4.12512 47.4375 4.125H6.1875C5.64049 4.125 5.11589 4.3423 4.7291 4.72909C4.3423 5.11589 4.125 5.64049 4.125 6.1875V49.5C4.12449 49.775 4.17897 50.0473 4.28523 50.3009C4.39149 50.5545 4.54739 50.7843 4.74375 50.9767L15.3677 61.3326C15.5616 61.5222 15.791 61.6717 16.0427 61.7727C16.2944 61.8736 16.5636 61.924 16.8348 61.9209C17.106 61.9179 17.3739 61.8614 17.6233 61.7548C17.8727 61.6482 18.0986 61.4935 18.2882 61.2996C18.4778 61.1056 18.6273 60.8763 18.7283 60.6245C18.8292 60.3728 18.8796 60.1037 18.8765 59.8325C18.8735 59.5613 18.817 59.2934 18.7104 59.044C18.6038 58.7946 18.4491 58.5687 18.2552 58.3791L8.25 48.6296ZM24.75 23.7188C24.75 22.3905 25.9256 20.9158 28.0026 19.5711C28.7202 20.7627 29.0081 22.1641 28.8182 23.5421C28.6283 24.9201 27.9721 26.1915 26.9589 27.1446C26.3593 26.7736 25.8499 26.2736 25.4677 25.681C25.0856 25.0884 24.8404 24.4181 24.75 23.7188ZM16.5 22.6875C16.5 21.0465 17.1519 19.4727 18.3123 18.3123C19.4727 17.1519 21.0465 16.5 22.6875 16.5C23.3749 16.5074 24.0562 16.6309 24.7026 16.8651C23.5245 17.5983 22.5394 18.6033 21.83 19.7958C21.1205 20.9883 20.7073 22.3336 20.625 23.7188C20.6695 25.6502 21.4449 27.4929 22.7948 28.875C22.7597 28.875 22.7246 28.875 22.6875 28.875C21.0465 28.875 19.4727 28.2231 18.3123 27.0627C17.1519 25.9023 16.5 24.3285 16.5 22.6875ZM78.375 23.7188C78.375 25.5069 76.4404 27.3756 73.1362 28.9699L58.9999 14.8335C70.6468 16.1019 78.375 20.1919 78.375 23.7188Z" fill="white"/>
<path d="M82.2422 62.0008C82.6292 62.3876 83.154 62.6047 83.7011 62.6045C84.2482 62.6043 84.7729 62.3868 85.1596 61.9998C85.5464 61.6128 85.7635 61.088 85.7633 60.5409C85.7631 59.9937 85.5456 59.4691 85.1586 59.0824L80.782 54.7078C80.465 54.3908 80.0533 54.1857 79.6094 54.1235C79.1654 54.0614 78.7132 54.1456 78.3214 54.3634L68.4317 59.8579L48.6977 40.1239C48.4762 39.902 48.207 39.7336 47.9106 39.6314C47.6142 39.5292 47.2984 39.496 46.9872 39.5341C46.676 39.5723 46.3776 39.6809 46.1147 39.8518C45.8518 40.0226 45.6313 40.2511 45.4699 40.5199L36.7125 55.1059C36.4761 55.5001 36.3781 55.962 36.4342 56.4182C36.4902 56.8745 36.6971 57.2989 37.0219 57.6242L37.3086 57.9109C36.6605 58.192 36.0692 58.589 35.5637 59.0824C34.403 60.244 33.7512 61.8191 33.7518 63.4612C33.7524 65.1033 34.4052 66.678 35.5668 67.8387C36.7284 68.9995 38.3035 69.6513 39.9456 69.6507C41.5878 69.6501 43.1624 68.9972 44.3232 67.8356C44.8161 67.3328 45.2187 66.7489 45.5132 66.1093L47.2375 67.8336L47.5035 68.0996C46.864 68.3942 46.28 68.7968 45.7772 69.2897C44.6323 70.4531 43.9935 72.0218 44 73.6541C44.0064 75.2864 44.6576 76.85 45.8117 78.0044C46.9657 79.1587 48.5292 79.8103 50.1615 79.8171C51.7938 79.824 53.3626 79.1855 54.5263 78.0409C55.3605 77.2017 55.9366 76.1409 56.1863 74.9843C56.436 73.8277 56.3488 72.6237 55.935 71.5151L78.9587 58.7276L82.2422 62.0008ZM41.4047 64.9172C41.2145 65.1142 40.9869 65.2713 40.7352 65.3794C40.4836 65.4875 40.213 65.5444 39.9391 65.5468C39.6653 65.5492 39.3937 65.497 39.1402 65.3933C38.8867 65.2896 38.6564 65.1364 38.4628 64.9428C38.2691 64.7491 38.116 64.5188 38.0123 64.2653C37.9086 64.0119 37.8564 63.7403 37.8588 63.4664C37.8611 63.1926 37.918 62.9219 38.0261 62.6703C38.1342 62.4187 38.2914 62.1911 38.4883 62.0008C38.875 61.6148 39.3991 61.398 39.9455 61.398C40.4919 61.398 41.016 61.6148 41.4027 62.0008C41.7899 62.387 42.0078 62.9112 42.0086 63.4582C42.0094 64.0051 41.7929 64.5299 41.4068 64.9172H41.4047ZM51.612 66.3754L54.5284 63.459L57.1787 66.1093L53.4291 68.1924L51.612 66.3754ZM48.6957 63.459L45.7875 60.5426L48.7039 57.6242L51.6203 60.5426L48.6957 63.459ZM43.2713 52.1998L45.7875 54.7078L42.8712 57.6242L41.0912 55.8463L43.2713 52.1998ZM51.612 54.7078L54.5284 51.7914L57.4468 54.7078L54.5284 57.6242L51.612 54.7078ZM47.6438 44.9089L51.6141 48.8813L48.6977 51.7976L45.4617 48.5616L47.6438 44.9089ZM51.6079 75.1266C51.3194 75.4148 50.9519 75.611 50.5518 75.6904C50.1518 75.7698 49.7372 75.7288 49.3605 75.5726C48.9838 75.4165 48.6618 75.1521 48.4352 74.813C48.2087 74.4738 48.0878 74.0752 48.0878 73.6673C48.0878 73.2595 48.2087 72.8608 48.4352 72.5217C48.6618 72.1826 48.9838 71.9182 49.3605 71.7621C49.7372 71.6059 50.1518 71.5649 50.5518 71.6443C50.9519 71.7237 51.3194 71.9199 51.6079 72.2081C51.8001 72.3993 51.9527 72.6264 52.057 72.8766C52.1613 73.1267 52.2153 73.395 52.2159 73.6661C52.2165 73.9371 52.1636 74.2056 52.0604 74.4562C51.9571 74.7068 51.8055 74.9346 51.6141 75.1266H51.6079ZM60.9242 64.0262L57.4407 60.5426L60.3591 57.6242L64.6759 61.941L60.9242 64.0262Z" fill="white"/>
<path d="M111.375 92.8125C111.375 92.2655 111.158 91.7409 110.771 91.3541C110.384 90.9673 109.86 90.75 109.312 90.75H80.4375C79.8905 90.75 79.3659 90.9673 78.9791 91.3541C78.5923 91.7409 78.375 92.2655 78.375 92.8125C78.375 93.3595 78.5923 93.8841 78.9791 94.2709C79.3659 94.6577 79.8905 94.875 80.4375 94.875H109.312C109.86 94.875 110.384 94.6577 110.771 94.2709C111.158 93.8841 111.375 93.3595 111.375 92.8125Z" fill="white"/>
<path d="M88.6875 105.187C88.6875 106.411 89.0504 107.608 89.7303 108.625C90.4102 109.643 91.3765 110.436 92.5072 110.904C93.6378 111.372 94.8819 111.495 96.0821 111.256C97.2824 111.017 98.3849 110.428 99.2502 109.563C100.116 108.697 100.705 107.595 100.944 106.395C101.182 105.194 101.06 103.95 100.592 102.82C100.123 101.689 99.3301 100.723 98.3126 100.043C97.2951 99.3629 96.0988 99 94.875 99C93.234 99 91.6602 99.6519 90.4998 100.812C89.3394 101.973 88.6875 103.546 88.6875 105.187ZM96.9375 105.187C96.9375 105.595 96.8165 105.994 96.5899 106.333C96.3633 106.673 96.0412 106.937 95.6643 107.093C95.2874 107.249 94.8727 107.29 94.4726 107.21C94.0725 107.131 93.705 106.934 93.4166 106.646C93.1281 106.357 92.9317 105.99 92.8521 105.59C92.7726 105.19 92.8134 104.775 92.9695 104.398C93.1256 104.021 93.39 103.699 93.7291 103.473C94.0683 103.246 94.4671 103.125 94.875 103.125C95.422 103.125 95.9466 103.342 96.3334 103.729C96.7202 104.116 96.9375 104.64 96.9375 105.187Z" fill="white"/>
<path d="M101.063 80.4375C101.063 79.2137 100.7 78.0174 100.02 76.9999C99.3398 75.9824 98.3735 75.1893 97.2429 74.721C96.1122 74.2527 94.8681 74.1301 93.6679 74.3689C92.4676 74.6076 91.3651 75.1969 90.4998 76.0623C89.6344 76.9276 89.0451 78.0301 88.8064 79.2304C88.5676 80.4306 88.6902 81.6747 89.1585 82.8054C89.6268 83.936 90.4199 84.9023 91.4374 85.5822C92.4549 86.2621 93.6512 86.625 94.875 86.625C96.516 86.625 98.0898 85.9731 99.2502 84.8127C100.411 83.6523 101.063 82.0785 101.063 80.4375ZM92.8125 80.4375C92.8125 80.0296 92.9335 79.6308 93.1601 79.2916C93.3867 78.9525 93.7088 78.6881 94.0857 78.532C94.4626 78.3759 94.8773 78.3351 95.2774 78.4146C95.6775 78.4942 96.045 78.6906 96.3334 78.9791C96.6219 79.2675 96.8183 79.635 96.8979 80.0351C96.9775 80.4352 96.9366 80.8499 96.7805 81.2268C96.6244 81.6037 96.36 81.9258 96.0209 82.1524C95.6817 82.379 95.2829 82.5 94.875 82.5C94.328 82.5 93.8034 82.2827 93.4166 81.8959C93.0298 81.5091 92.8125 80.9845 92.8125 80.4375Z" fill="white"/>
</svg>
