<svg width="132" height="132" viewBox="0 0 132 132" fill="none" xmlns="http://www.w3.org/2000/svg">
<g clip-path="url(#clip0_3_59)">
<path d="M57.5023 10.4626C58.5702 10.4626 59.4358 9.59694 59.4358 8.52911C59.4358 7.46129 58.5702 6.59564 57.5023 6.59564C56.4345 6.59564 55.5689 7.46129 55.5689 8.52911C55.5689 9.59694 56.4345 10.4626 57.5023 10.4626Z" fill="white"/>
<path d="M99.9672 8.09151H82.0236C81.4051 7.18896 80.3669 6.59567 79.1926 6.59567H65.8116C64.9238 2.74197 61.5138 3.05176e-05 57.5023 3.05176e-05C53.4909 3.05176e-05 50.0808 2.74197 49.1933 6.59567H35.8124C34.638 6.59567 33.5998 7.18896 32.9813 8.09151H15.0377C12.9491 8.09151 11.2505 9.79057 11.2505 11.8784V128.213C11.2505 130.302 12.9496 132 15.0377 132H99.9672C102.056 132 103.754 130.301 103.754 128.213V84.6404C104.018 84.5474 104.266 84.3953 104.478 84.184L118.414 70.2472C119.17 69.492 119.17 68.2677 118.414 67.5128L114.389 63.4873L115.673 62.203C116.047 61.8293 116.278 61.3506 116.339 60.8335L119.656 57.5175C121.115 56.0583 121.115 53.6838 119.655 52.2243L116.939 49.5076C115.48 48.0484 113.105 48.0484 111.646 49.5076L108.328 52.8254C107.828 52.8852 107.344 53.1063 106.961 53.4891L103.754 56.6955V11.8784C103.754 9.79057 102.056 8.09151 99.9672 8.09151ZM87.71 84.6973L84.4657 81.453C86.3033 79.6154 100.548 65.3709 102.745 63.1739L105.989 66.4182L87.71 84.6973ZM90.7284 108.395C88.4002 112.901 84.6598 116.644 80.1489 118.974C80.3482 118.623 80.5551 118.211 80.7326 117.804C81.4244 116.221 81.7856 114.515 81.8033 112.805C81.8046 112.695 81.8043 112.672 81.8043 110.605C81.8043 110.299 82.053 110.05 82.3586 110.05C84.4937 110.05 84.5798 110.054 84.9241 110.04C86.4262 109.982 87.8999 109.662 89.2822 109.096C89.2822 109.096 89.2825 109.096 89.2825 109.095C89.7749 108.894 90.2625 108.658 90.7284 108.395ZM72.6754 99.7324L69.4311 96.4881L81.731 84.1879L84.9753 87.4322L72.6754 99.7324ZM69.6936 102.22L64.0026 106.285C63.6414 106.543 63.1476 106.462 62.8794 106.101C62.6806 105.833 62.7011 105.408 62.9283 105.09L66.9428 99.4694C67.8633 100.389 68.8526 101.379 69.6936 102.22ZM99.8869 60.5624L97.3087 63.1406V18.5419C97.3087 16.3335 95.5117 14.5364 93.3033 14.5364H82.6221V11.9582H99.8872V60.5624H99.8869ZM49.711 10.4629C51.304 10.4629 52.646 9.32878 52.902 7.76666C53.2729 5.50731 55.2074 3.86724 57.5021 3.86724C59.7968 3.86724 61.7315 5.50731 62.1021 7.76615C62.3581 9.32878 63.7001 10.4626 65.2931 10.4626H78.7549V19.7921H55.9974C54.9293 19.7921 54.0639 20.6578 54.0639 21.7256C54.0639 22.7934 54.9293 23.6591 55.9974 23.6591H78.7549V25.5333C78.7549 26.1167 78.2804 26.5913 77.697 26.5913H37.3079C36.7243 26.5913 36.25 26.1167 36.25 25.5333V23.6591H46.9743C48.0424 23.6591 48.9077 22.7934 48.9077 21.7256C48.9077 20.6578 48.0424 19.7921 46.9743 19.7921H36.25V10.4629H49.711ZM15.1175 128.133V11.9587H32.3828V14.5369H21.7011C19.4927 14.5369 17.6959 16.3337 17.6959 18.5424V36.5401C17.6959 37.6079 18.5613 38.4735 19.6294 38.4735C20.6975 38.4735 21.5629 37.6079 21.5629 36.5401V18.5419C21.5629 18.4657 21.6247 18.4036 21.7009 18.4036H32.3825V25.5333C32.3825 28.249 34.592 30.4585 37.3077 30.4585H77.6965C80.4122 30.4585 82.6216 28.249 82.6216 25.5333V18.4041H93.303C93.3794 18.4041 93.4413 18.466 93.4413 18.5424V67.0081C90.342 70.1074 69.8815 90.5681 66.5197 93.9296C65.6536 94.7958 64.8581 95.7339 64.1429 96.7352L59.7812 102.842C58.5665 104.542 58.5642 106.779 59.7757 108.408C61.31 110.471 64.1525 110.93 66.25 109.432L72.4277 105.02C73.3999 104.325 74.3469 103.529 75.2334 102.643C76.9545 100.922 91.0418 86.8345 93.4415 84.4348V97.1534C93.4415 102.124 89.3997 106.183 84.4116 106.183H81.9433C79.7344 106.183 77.9368 107.981 77.9368 110.19V112.658C77.9368 117.637 73.8862 121.688 68.907 121.688H21.7011C21.625 121.688 21.5631 121.626 21.5631 121.55V45.5632C21.5631 44.4954 20.6978 43.6297 19.6297 43.6297C18.5616 43.6297 17.6962 44.4954 17.6962 45.5632V121.55C17.6962 123.758 19.493 125.555 21.7014 125.555H68.9075C76.4943 125.555 83.6265 122.601 88.9904 117.236C94.3552 111.872 97.3095 104.74 97.3095 97.1534V80.5674L99.8877 77.9891V128.133H15.1175V128.133ZM114.312 68.88L103.754 79.4382V74.1222C106.297 71.579 109.117 68.7591 111.654 66.222L114.312 68.88ZM114.38 52.242C114.38 52.242 114.38 52.242 114.38 52.242C114.38 52.2422 114.38 52.2422 114.379 52.2425L114.38 52.242ZM114.292 52.3298L116.833 54.8706L114.233 57.4702L111.692 54.9291L114.292 52.3298ZM108.607 57.3122L111.851 60.5564C111.743 60.664 109.27 63.1367 108.724 63.6835L105.479 60.4392L108.607 57.3122Z" fill="white"/>
<path d="M51.6689 83.5901C52.5863 84.4919 54.0801 84.4927 54.9979 83.5901L60.7524 77.9347C61.514 77.1863 61.5247 75.962 60.7763 75.2003C60.0276 74.4386 58.8035 74.4282 58.0419 75.1767L53.3334 79.8038L39.6193 66.3266L43.2757 62.7333L51.6697 70.9823C52.5873 71.8836 54.0803 71.8836 54.9982 70.982L71.7292 54.5397L75.3857 58.1328L64.5153 68.8157C63.7537 69.5642 63.743 70.7884 64.4914 71.5501C65.2401 72.3121 66.4644 72.3225 67.2258 71.5738L79.1902 59.816C79.6393 59.375 79.8966 58.7612 79.8966 58.1328C79.8966 57.5044 79.6393 56.8908 79.1905 56.4501L73.3935 50.7528C72.4758 49.8516 70.9829 49.8516 70.065 50.7531L53.334 67.1954L44.9408 58.947C44.0226 58.0447 42.5291 58.0447 41.6115 58.947L35.8145 64.6439C35.3592 65.0915 35.1086 65.6892 35.1086 66.3266C35.1086 66.9641 35.3594 67.5618 35.8147 68.0093L51.6689 83.5901Z" fill="white"/>
</g>
<defs>
<clipPath id="clip0_3_59">
<rect width="132" height="132" fill="white"/>
</clipPath>
</defs>
</svg>
